{"glyphs":{"0":{"ha":729,"x_min":0,"x_max":0,"o":"m 658 424 b 364 864 658 682 517 864 b 69 425 208 864 69 678 b 364 -15 69 167 211 -15 b 658 424 519 -15 658 171 z m 563 439 b 364 69 563 233 472 69 b 165 439 256 69 165 233 b 364 779 165 642 261 779 b 563 439 465 779 563 643 z "},"1":{"ha":729,"x_min":0,"x_max":0,"o":"m 614 42 b 558 85 614 85 581 85 l 432 85 l 432 807 b 390 864 432 829 432 864 b 349 831 364 864 356 847 b 197 694 296 713 224 697 b 146 651 175 693 146 690 b 192 610 146 617 171 610 b 336 671 218 610 275 618 l 336 85 l 210 85 b 154 42 188 85 154 85 b 210 0 154 0 189 0 l 558 0 b 614 42 579 0 614 0 z "},"2":{"ha":729,"x_min":0,"x_max":0,"o":"m 656 57 l 656 93 b 608 150 656 119 656 150 b 560 85 560 150 560 124 l 229 85 b 504 315 311 156 444 260 b 656 593 592 393 656 482 b 346 864 656 760 515 864 b 72 632 182 864 72 750 b 135 565 72 581 111 565 b 196 628 164 565 196 589 b 176 672 196 644 189 663 b 339 779 197 736 263 779 b 560 593 453 779 560 715 b 400 339 560 496 492 415 l 93 81 b 72 43 81 69 72 63 b 129 0 72 0 107 0 l 600 0 b 656 57 646 0 656 13 z "},"3":{"ha":729,"x_min":0,"x_max":0,"o":"m 667 242 b 510 464 667 340 601 422 b 626 668 588 514 626 593 b 365 864 626 771 525 864 b 101 701 199 864 101 797 b 164 636 101 656 136 636 b 225 699 193 636 225 660 b 213 736 225 718 217 732 b 367 779 256 779 354 779 b 531 667 461 779 531 729 b 472 546 531 625 510 576 b 343 504 428 510 393 507 b 243 458 264 499 243 499 b 299 415 243 415 276 415 l 363 415 b 571 242 500 415 571 322 b 367 69 571 157 493 69 b 168 150 311 69 204 85 b 185 193 175 157 185 165 b 124 254 185 226 158 254 b 61 189 92 254 61 233 b 367 -15 61 65 196 -15 b 667 242 549 -15 667 113 z "},"4":{"ha":729,"x_min":0,"x_max":0,"o":"m 688 276 b 632 319 688 319 654 319 l 524 319 l 524 808 b 467 865 524 854 514 865 l 428 865 b 369 836 394 865 388 864 l 53 339 b 40 290 40 321 40 318 b 96 235 40 244 53 235 l 446 235 l 446 85 l 360 85 b 304 42 338 85 304 85 b 360 0 304 0 339 0 l 610 0 b 665 42 631 0 665 0 b 610 85 665 85 632 85 l 524 85 l 524 235 l 632 235 b 688 276 653 235 688 235 z m 446 319 l 138 319 l 446 804 z "},"5":{"ha":729,"x_min":0,"x_max":0,"o":"m 656 264 b 385 540 656 404 549 540 b 218 500 336 540 275 531 l 218 764 l 551 764 b 607 806 572 764 607 764 b 551 849 607 849 574 849 l 178 849 b 122 792 132 849 122 836 l 122 422 b 167 365 122 397 122 365 b 208 386 192 365 197 372 b 383 456 246 431 303 456 b 560 264 497 456 560 354 b 344 69 560 153 461 69 b 178 157 306 69 217 81 b 196 201 185 164 196 174 b 135 264 196 242 164 264 b 72 197 114 264 72 251 b 344 -15 72 82 189 -15 b 656 264 518 -15 656 110 z "},"6":{"ha":729,"x_min":0,"x_max":0,"o":"m 654 268 b 379 550 654 426 532 550 b 172 469 307 550 235 526 b 444 779 192 665 322 779 b 521 757 492 779 514 764 b 507 717 514 750 507 742 b 568 656 507 683 532 656 b 631 721 603 656 631 679 b 446 864 631 789 581 864 b 74 415 260 864 74 696 b 367 -15 74 86 229 -15 b 654 268 518 -15 654 101 z m 558 268 b 367 69 558 149 467 69 b 194 222 276 69 222 138 b 183 308 181 256 183 289 b 372 464 183 394 267 464 b 558 268 485 464 558 371 z "},"7":{"ha":729,"x_min":0,"x_max":0,"o":"m 667 806 b 611 849 667 849 633 849 l 153 849 b 108 871 144 871 119 871 b 61 814 61 871 61 840 l 61 756 b 108 699 61 729 61 699 b 157 764 157 699 157 725 l 524 764 b 236 50 283 508 236 203 b 285 -15 236 31 236 -15 b 332 40 308 -15 332 0 b 636 758 339 435 551 676 b 667 806 664 783 667 786 z "},"8":{"ha":729,"x_min":0,"x_max":0,"o":"m 667 242 b 474 457 667 346 576 428 b 647 642 585 494 647 563 b 364 864 647 756 529 864 b 81 642 197 864 81 754 b 254 457 81 563 144 493 b 61 242 150 428 61 346 b 364 -15 61 107 190 -15 b 667 242 539 -15 667 107 z m 551 640 b 364 500 551 561 465 500 b 176 640 263 500 176 563 b 364 779 176 713 254 779 b 551 640 472 779 551 713 z m 571 243 b 364 69 571 147 479 69 b 157 243 249 69 157 147 b 364 415 157 328 238 415 b 571 243 492 415 571 328 z "},"9":{"ha":729,"x_min":0,"x_max":0,"o":"m 654 433 b 368 864 654 768 500 864 b 74 581 214 864 74 749 b 349 299 74 422 196 299 b 556 379 421 299 493 322 b 300 69 542 207 433 69 b 208 93 288 69 238 71 b 221 132 214 100 221 108 b 160 193 221 165 196 193 b 97 128 125 193 97 169 b 300 -15 97 83 122 -15 b 654 433 483 -15 654 158 z m 546 540 b 356 385 546 464 471 385 b 169 581 243 385 169 478 b 368 779 169 701 268 779 b 489 719 428 779 467 747 b 546 540 533 665 546 639 z "}," ":{"ha":729,"x_min":0,"x_max":0,"o":""},"!":{"ha":729,"x_min":0,"x_max":0,"o":"m 433 785 b 364 864 433 858 376 864 b 294 785 351 864 294 858 l 304 460 l 308 292 b 364 256 310 256 346 256 b 421 322 414 256 418 267 l 426 563 b 433 785 428 635 433 711 z m 433 69 b 364 139 433 108 403 139 b 294 69 325 139 294 108 b 364 0 294 31 325 0 b 433 69 403 0 433 31 z "},"\"":{"ha":729,"x_min":0,"x_max":0,"o":"m 549 788 b 488 864 553 853 506 864 b 425 788 461 864 421 849 l 443 506 b 488 456 444 485 449 456 b 531 504 522 456 529 481 z m 303 788 b 242 864 307 853 260 864 b 179 788 215 864 175 849 l 197 506 b 242 456 199 485 203 456 b 285 504 276 456 283 481 z "},"#":{"ha":729,"x_min":0,"x_max":0,"o":"m 679 275 b 614 324 679 324 631 324 l 522 324 l 547 526 l 614 526 b 679 575 631 526 679 526 b 614 624 679 624 631 624 l 561 624 l 581 783 b 533 849 588 835 554 849 b 483 792 490 849 485 808 l 463 624 l 319 624 l 339 783 b 292 849 346 835 313 849 b 242 792 249 849 243 808 l 221 624 l 114 624 b 49 575 97 624 49 624 b 114 526 49 526 97 526 l 207 526 l 182 324 l 114 324 b 49 275 97 324 49 324 b 114 226 49 226 97 226 l 168 226 b 146 49 146 56 146 49 b 194 0 146 24 165 0 b 244 57 238 0 242 40 l 267 226 l 410 226 b 388 49 388 56 388 49 b 436 0 388 24 407 0 b 486 57 479 0 483 40 l 508 226 l 614 226 b 679 275 631 226 679 226 z m 449 526 l 424 324 l 281 324 l 306 526 z "},"$":{"ha":729,"x_min":0,"x_max":0,"o":"m 647 238 b 407 481 647 306 608 443 l 407 769 b 544 674 453 764 522 744 b 524 628 531 663 524 646 b 585 567 524 596 547 567 b 647 635 614 567 647 583 b 407 856 647 742 571 842 l 407 907 b 365 964 407 929 407 964 b 322 907 322 964 322 929 l 322 854 b 81 628 169 836 81 731 b 322 401 81 594 89 444 l 322 79 b 182 189 260 88 203 118 b 204 238 190 194 204 206 b 143 300 204 276 171 300 b 81 231 131 300 81 294 b 322 -7 81 115 161 8 l 322 -58 b 365 -115 322 -81 322 -115 b 407 -58 407 -115 407 -81 l 407 -6 b 647 238 576 21 647 140 z m 322 499 b 169 633 243 513 169 563 b 322 769 169 700 236 756 z m 558 232 b 407 81 558 161 496 96 l 407 383 b 558 232 499 365 558 303 z "},"%":{"ha":729,"x_min":0,"x_max":0,"o":"m 290 778 b 169 964 290 886 236 964 b 49 779 101 964 49 883 b 169 593 49 671 103 593 b 290 778 238 593 290 674 z m 607 915 b 558 964 607 940 586 964 b 508 921 525 964 515 938 l 129 -36 b 121 -67 124 -50 121 -57 b 169 -115 121 -93 143 -115 b 218 -75 203 -115 213 -90 l 599 885 b 607 915 604 899 607 906 z m 679 69 b 558 254 679 172 628 254 b 438 69 489 254 438 172 b 558 -115 438 -33 489 -115 b 679 69 628 -115 679 -33 z m 213 779 b 169 679 213 718 186 679 b 126 779 153 679 126 718 b 169 878 126 836 151 878 b 213 779 188 878 213 836 z m 601 69 b 558 -29 601 8 575 -29 b 515 69 542 -29 515 8 b 558 168 515 131 542 168 b 601 69 575 168 601 131 z "},"&":{"ha":729,"x_min":0,"x_max":0,"o":"m 681 556 b 625 599 681 599 647 599 l 497 599 b 442 557 476 599 442 599 b 499 514 442 514 475 514 b 378 222 461 415 415 296 b 275 414 360 251 303 339 b 415 674 415 560 415 642 b 288 864 415 758 386 864 b 143 663 218 864 143 801 b 182 438 143 603 153 525 b 88 336 171 426 90 338 b 39 190 61 303 39 254 b 210 -15 39 85 104 -15 b 382 82 282 -15 339 29 b 544 -15 404 56 464 -15 b 676 146 636 -15 676 79 b 638 192 676 192 638 192 b 599 149 601 192 599 156 b 544 69 593 88 567 69 b 428 150 493 69 440 133 b 499 297 457 199 485 263 l 582 514 l 625 514 b 681 556 646 514 681 514 z m 338 674 b 243 506 338 633 313 583 b 221 663 222 578 221 651 b 288 779 221 743 257 779 b 338 674 335 779 338 686 z m 332 150 b 211 69 281 76 231 69 b 135 194 149 69 135 157 b 215 350 135 261 150 278 b 271 250 225 328 251 282 b 332 150 301 196 308 183 z "},"'":{"ha":729,"x_min":0,"x_max":0,"o":"m 425 785 b 364 864 429 843 397 864 b 301 801 329 864 301 836 l 304 774 l 321 507 b 364 456 322 485 324 456 b 407 507 404 456 406 485 z "},"(":{"ha":729,"x_min":0,"x_max":0,"o":"m 607 -75 b 572 -32 607 -54 597 -49 b 336 425 400 85 336 269 b 575 883 336 564 389 757 b 607 925 597 899 607 904 b 564 964 607 936 600 964 b 240 425 524 964 240 781 b 353 65 240 260 304 135 b 564 -114 426 -36 531 -114 b 607 -75 600 -114 607 -86 z "},")":{"ha":729,"x_min":0,"x_max":0,"o":"m 489 425 b 376 785 489 590 425 715 b 165 964 303 886 199 964 b 122 925 131 964 122 936 b 144 890 122 904 138 894 b 393 425 372 739 393 515 b 154 -33 393 286 342 93 b 122 -75 133 -47 122 -54 b 165 -114 122 -86 131 -114 b 489 425 206 -114 489 69 z "},"*":{"ha":729,"x_min":0,"x_max":0,"o":"m 633 297 b 614 335 633 321 617 333 b 449 424 579 358 485 404 l 599 506 b 633 551 615 515 633 525 b 578 597 633 557 633 597 l 406 497 b 410 665 408 533 410 625 b 364 724 410 678 410 724 b 318 665 318 724 318 678 b 322 497 318 625 319 533 l 172 585 b 140 597 153 597 150 597 b 94 551 113 597 94 572 b 128 507 94 525 110 517 l 279 425 l 129 343 b 94 297 113 333 94 325 b 150 251 94 292 94 251 l 322 351 b 318 183 319 315 318 224 b 364 125 318 171 318 125 b 410 183 410 125 410 171 b 406 351 410 224 408 315 b 536 274 490 304 439 332 b 588 251 574 251 576 251 b 633 297 615 251 633 276 z "},"+":{"ha":729,"x_min":0,"x_max":0,"o":"m 675 425 b 610 474 675 474 626 474 l 413 474 l 413 672 b 364 738 413 689 413 738 b 315 672 315 738 315 689 l 315 474 l 118 474 b 53 425 101 474 53 474 b 118 376 53 376 101 376 l 315 376 l 315 178 b 364 113 315 161 315 113 b 413 178 413 113 413 161 l 413 376 l 610 376 b 675 425 626 376 675 376 z "},",":{"ha":729,"x_min":0,"x_max":0,"o":"m 481 35 b 365 174 481 119 426 174 b 278 88 310 174 278 132 b 364 0 278 35 318 0 b 392 4 372 0 382 1 b 289 -110 371 -82 306 -104 b 250 -149 275 -114 250 -121 b 294 -193 250 -169 271 -193 b 481 35 339 -193 481 -118 z "},"-":{"ha":729,"x_min":0,"x_max":0,"o":"m 650 425 b 585 474 650 474 601 474 l 143 474 b 78 425 126 474 78 474 b 143 376 78 376 126 376 l 585 376 b 650 425 601 376 650 376 z "},".":{"ha":729,"x_min":0,"x_max":0,"o":"m 451 86 b 365 174 451 138 410 174 b 278 88 313 174 278 131 b 364 0 278 36 319 0 b 451 86 417 0 451 43 z "},"/":{"ha":729,"x_min":0,"x_max":0,"o":"m 647 915 b 599 964 647 940 626 964 b 550 925 568 964 558 943 l 92 -33 b 81 -67 82 -56 81 -56 b 129 -115 81 -92 101 -115 b 178 -76 160 -115 169 -94 l 636 882 b 647 915 646 904 647 904 z "},":":{"ha":729,"x_min":0,"x_max":0,"o":"m 451 511 b 365 599 451 563 410 599 b 278 513 313 599 278 556 b 364 425 278 461 319 425 b 451 511 417 425 451 468 z m 451 86 b 365 174 451 138 410 174 b 278 88 313 174 278 131 b 364 0 278 36 319 0 b 451 86 417 0 451 43 z "},";":{"ha":729,"x_min":0,"x_max":0,"o":"m 451 511 b 365 599 451 563 410 599 b 278 513 313 599 278 556 b 364 425 278 461 319 425 b 451 511 417 425 451 468 z m 458 38 b 364 174 458 129 417 174 b 278 88 314 174 278 135 b 369 0 278 49 301 0 b 278 -112 351 -75 299 -101 b 250 -149 269 -117 250 -126 b 294 -193 250 -169 271 -193 b 458 38 325 -193 458 -118 z "},"<":{"ha":729,"x_min":0,"x_max":0,"o":"m 650 126 b 617 174 650 153 632 164 l 218 425 l 617 676 b 650 724 632 686 650 697 b 601 772 650 756 624 772 b 565 758 589 772 585 771 l 108 471 b 78 425 96 463 78 451 b 103 382 78 407 89 392 l 565 92 b 601 78 585 79 589 78 b 650 126 624 78 650 94 z "},"=":{"ha":729,"x_min":0,"x_max":0,"o":"m 675 531 b 604 579 675 579 624 579 l 124 579 b 53 531 104 579 53 579 b 115 482 53 482 99 482 l 613 482 b 675 531 629 482 675 482 z m 675 319 b 613 368 675 368 629 368 l 115 368 b 53 319 99 368 53 368 b 124 271 53 271 104 271 l 604 271 b 675 319 624 271 675 271 z "},">":{"ha":729,"x_min":0,"x_max":0,"o":"m 650 425 b 625 468 650 443 639 458 l 163 758 b 126 772 143 771 139 772 b 78 724 104 772 78 756 b 111 676 78 697 96 686 l 510 425 l 111 174 b 78 126 96 164 78 153 b 126 78 78 94 104 78 b 163 92 139 78 143 79 l 619 379 b 650 425 632 388 650 399 z "},"?":{"ha":729,"x_min":0,"x_max":0,"o":"m 642 685 b 350 857 642 736 607 857 b 86 688 154 857 86 765 b 149 622 86 643 119 622 b 210 685 178 622 210 646 b 196 724 210 701 203 715 b 350 772 231 763 296 772 b 546 685 492 772 546 728 b 489 618 546 649 515 632 b 288 328 288 507 288 383 b 343 256 288 274 288 256 b 399 311 385 256 399 264 l 399 335 b 550 550 399 400 421 479 b 642 685 590 572 642 613 z m 413 69 b 343 139 413 108 382 139 b 274 69 304 139 274 108 b 343 0 274 31 304 0 b 413 69 382 0 413 31 z "},"@":{"ha":729,"x_min":0,"x_max":0,"o":"m 667 111 b 614 150 667 150 628 150 b 572 136 590 150 586 150 b 424 76 524 92 471 76 b 139 424 274 76 139 226 b 422 772 139 631 279 772 b 556 674 461 772 524 758 b 467 701 551 676 513 701 b 265 425 356 701 265 582 b 465 147 265 260 363 147 b 667 446 533 147 667 206 b 422 857 667 536 667 857 b 61 425 233 857 61 675 b 425 -8 61 176 231 -8 b 667 111 550 -8 667 71 z m 589 424 b 467 232 589 311 526 232 b 343 424 401 232 343 315 b 465 617 343 540 407 617 b 589 424 528 617 589 536 z "},"A":{"ha":729,"x_min":0,"x_max":0,"o":"m 690 42 b 667 81 690 60 683 74 b 607 85 658 85 628 85 l 439 811 b 364 865 426 864 407 865 b 289 813 324 865 301 865 l 121 85 b 61 82 101 85 69 85 b 38 42 46 74 38 60 b 97 0 38 0 74 0 l 239 0 b 297 42 264 0 297 0 b 219 85 297 85 269 85 l 251 229 l 476 229 l 508 85 b 431 42 458 85 431 85 b 489 0 431 0 464 0 l 631 0 b 690 42 654 0 690 0 z m 456 314 l 272 314 l 364 750 z "},"B":{"ha":729,"x_min":0,"x_max":0,"o":"m 669 232 b 490 444 669 328 603 418 b 640 633 579 475 640 547 b 401 849 640 735 556 849 l 88 849 b 32 807 68 849 32 849 b 89 764 32 764 67 764 l 126 764 l 126 85 l 89 85 b 32 42 67 85 32 85 b 88 0 32 0 68 0 l 429 0 b 669 232 586 0 669 124 z m 544 632 b 365 483 544 575 500 483 l 222 483 l 222 764 l 396 764 b 544 632 514 764 544 678 z m 574 235 b 399 85 574 167 519 85 l 222 85 l 222 399 l 414 399 b 574 235 532 399 574 297 z "},"C":{"ha":729,"x_min":0,"x_max":0,"o":"m 672 233 b 624 279 672 279 639 279 b 576 239 611 279 579 279 b 397 69 567 103 454 69 b 151 425 271 69 151 217 b 396 779 151 632 272 779 b 575 603 479 779 556 715 b 624 557 579 579 582 557 b 672 614 672 557 672 586 l 672 807 b 631 864 672 829 672 864 b 592 840 606 864 599 850 b 571 797 589 835 589 832 b 390 864 525 836 461 864 b 56 425 211 864 56 678 b 392 -15 56 171 211 -15 b 672 233 553 -15 672 108 z "},"D":{"ha":729,"x_min":0,"x_max":0,"o":"m 674 418 b 369 849 674 640 554 849 l 83 849 b 26 806 61 849 26 849 b 83 764 26 764 63 764 l 114 764 l 114 85 l 83 85 b 26 42 61 85 26 85 b 83 0 26 0 63 0 l 369 0 b 674 418 551 0 674 194 z m 578 418 b 343 85 578 256 497 85 l 210 85 l 210 764 l 343 764 b 578 418 500 764 578 579 z "},"E":{"ha":729,"x_min":0,"x_max":0,"o":"m 697 57 l 697 181 b 650 238 697 207 697 238 b 601 181 601 238 601 208 l 601 85 l 231 85 l 231 397 l 413 397 b 461 318 413 340 413 318 b 508 375 508 318 508 349 l 508 504 b 461 561 508 531 508 561 b 413 482 413 561 413 539 l 231 482 l 231 764 l 571 764 l 571 690 b 618 633 571 664 571 633 b 667 690 667 633 667 663 l 667 792 b 611 849 667 835 658 849 l 93 849 b 36 807 72 849 36 849 b 93 764 36 764 72 764 l 135 764 l 135 85 l 93 85 b 36 42 71 85 36 85 b 93 0 36 0 72 0 l 642 0 b 697 57 688 0 697 13 z "},"F":{"ha":729,"x_min":0,"x_max":0,"o":"m 681 690 l 681 792 b 625 849 681 835 672 849 l 96 849 b 39 806 74 849 39 849 b 96 764 39 764 75 764 l 142 764 l 142 85 l 96 85 b 39 42 74 85 39 85 b 96 0 39 0 75 0 l 310 0 b 365 42 331 0 365 0 b 310 85 365 85 332 85 l 238 85 l 238 382 l 426 382 b 475 303 426 325 426 303 b 522 360 522 303 522 333 l 522 489 b 475 546 522 515 522 546 b 426 467 426 546 426 524 l 238 467 l 238 764 l 585 764 l 585 690 b 632 633 585 664 585 633 b 681 690 681 633 681 663 z "},"G":{"ha":729,"x_min":0,"x_max":0,"o":"m 689 333 b 632 375 689 375 653 375 l 467 375 b 411 333 446 375 411 375 b 467 290 411 290 444 290 l 525 290 b 367 69 508 135 440 69 b 149 424 254 69 149 219 b 368 779 149 636 260 779 b 528 597 417 779 504 747 b 575 557 531 574 539 557 b 624 614 624 557 624 586 l 624 807 b 582 864 624 829 624 864 b 525 801 553 864 546 849 b 363 864 476 843 421 864 b 53 425 196 864 53 676 b 363 -15 53 169 197 -15 b 528 58 442 -15 500 26 b 576 0 528 28 528 0 b 624 57 624 0 624 31 l 624 290 b 689 333 657 290 689 290 z "},"H":{"ha":729,"x_min":0,"x_max":0,"o":"m 697 42 b 642 85 697 85 664 85 l 607 85 l 607 764 l 642 764 b 697 806 663 764 697 764 b 642 849 697 849 664 849 l 476 849 b 421 807 456 849 421 849 b 476 764 421 764 454 764 l 511 764 l 511 483 l 217 483 l 217 764 l 251 764 b 307 806 272 764 307 764 b 251 849 307 849 274 849 l 86 849 b 31 806 64 849 31 849 b 86 764 31 764 65 764 l 121 764 l 121 85 l 86 85 b 31 42 64 85 31 85 b 86 0 31 0 65 0 l 251 0 b 307 42 272 0 307 0 b 251 85 307 85 274 85 l 217 85 l 217 399 l 511 399 l 511 85 l 476 85 b 421 43 456 85 421 85 b 476 0 421 0 454 0 l 642 0 b 697 42 663 0 697 0 z "},"I":{"ha":729,"x_min":0,"x_max":0,"o":"m 619 42 b 563 85 619 85 583 85 l 413 85 l 413 764 l 563 764 b 619 806 583 764 619 764 b 563 849 619 849 583 849 l 167 849 b 110 807 146 849 110 849 b 167 764 110 764 146 764 l 317 764 l 317 85 l 167 85 b 110 43 146 85 110 85 b 167 0 110 0 146 0 l 563 0 b 619 42 583 0 619 0 z "},"J":{"ha":729,"x_min":0,"x_max":0,"o":"m 664 807 b 607 849 664 849 628 849 l 356 849 b 299 807 335 849 299 849 b 356 764 299 764 335 764 l 469 764 l 469 194 b 329 69 469 76 356 69 b 211 106 318 69 251 69 b 222 142 217 113 222 119 b 161 203 222 175 196 203 b 99 138 129 203 99 182 b 329 -15 99 50 190 -15 b 565 186 453 -15 565 60 l 565 764 l 607 764 b 664 807 629 764 664 764 z "},"K":{"ha":729,"x_min":0,"x_max":0,"o":"m 688 42 b 615 85 688 85 656 85 b 606 101 613 90 607 99 l 383 497 l 594 764 b 674 807 644 764 674 764 b 617 849 674 849 636 849 l 494 849 b 438 806 474 849 438 849 b 494 764 438 764 475 764 l 201 394 l 201 764 l 232 764 b 289 806 253 764 289 764 b 232 849 289 849 254 849 l 93 849 b 36 807 72 849 36 849 b 93 764 36 764 71 764 l 124 764 l 124 85 l 93 85 b 36 43 72 85 36 85 b 93 0 36 0 71 0 l 232 0 b 289 42 253 0 289 0 b 232 85 289 85 254 85 l 201 85 l 201 269 l 331 432 l 525 85 b 469 43 506 85 469 85 b 526 0 469 0 504 0 l 631 0 b 688 42 651 0 688 0 z "},"L":{"ha":729,"x_min":0,"x_max":0,"o":"m 678 57 l 678 181 b 631 238 678 208 678 238 b 582 181 582 238 582 210 l 582 85 l 247 85 l 247 764 l 325 764 b 382 806 344 764 382 764 b 325 849 382 849 346 849 l 100 849 b 44 806 78 849 44 849 b 100 764 44 764 79 764 l 151 764 l 151 85 l 100 85 b 44 42 78 85 44 85 b 100 0 44 0 79 0 l 622 0 b 678 57 668 0 678 13 z "},"M":{"ha":729,"x_min":0,"x_max":0,"o":"m 704 42 b 631 85 704 85 675 85 l 631 764 b 704 807 675 764 704 764 b 649 849 704 849 669 849 l 571 849 b 496 793 514 849 508 829 l 403 513 b 365 382 386 463 374 422 l 364 382 b 225 815 350 447 228 807 b 157 849 211 849 176 849 l 79 849 b 24 807 58 849 24 849 b 97 764 24 764 53 764 l 97 85 b 24 42 53 85 24 85 b 79 0 24 0 58 0 l 193 0 b 249 42 214 0 249 0 b 175 85 249 85 219 85 l 175 747 l 176 747 b 286 399 192 683 281 417 b 322 304 297 367 315 314 b 364 283 331 293 347 283 b 413 314 382 283 401 294 b 551 747 417 322 535 674 l 553 747 l 553 85 b 479 42 508 85 479 85 b 535 0 479 0 514 0 l 649 0 b 704 42 669 0 704 0 z "},"N":{"ha":729,"x_min":0,"x_max":0,"o":"m 689 806 b 633 849 689 849 656 849 l 486 849 b 431 806 464 849 431 849 b 486 764 431 764 465 764 l 521 764 l 521 104 l 519 104 l 264 799 b 189 849 247 844 226 849 l 94 849 b 39 807 74 849 39 849 b 94 764 39 764 72 764 l 129 764 l 129 85 l 94 85 b 39 43 74 85 39 85 b 94 0 39 0 72 0 l 242 0 b 297 42 263 0 297 0 b 242 85 297 85 264 85 l 207 85 l 207 744 l 208 744 l 464 50 b 540 0 482 1 504 0 b 599 57 582 0 599 4 l 599 764 l 633 764 b 689 806 654 764 689 764 z "},"O":{"ha":729,"x_min":0,"x_max":0,"o":"m 650 424 b 364 864 650 825 621 864 b 78 424 107 864 78 826 b 364 -15 78 22 107 -15 b 650 424 619 -15 650 22 z m 554 436 b 539 176 554 350 554 251 b 364 69 524 99 488 69 b 190 168 242 69 207 99 b 174 436 174 239 174 360 b 189 681 174 522 174 617 b 364 779 207 763 250 779 b 538 690 468 779 517 767 b 554 436 554 625 554 521 z "},"P":{"ha":729,"x_min":0,"x_max":0,"o":"m 667 594 b 404 849 667 724 564 849 l 93 849 b 36 807 72 849 36 849 b 93 764 36 764 72 764 l 135 764 l 135 85 l 93 85 b 36 42 71 85 36 85 b 93 0 36 0 72 0 l 272 0 b 329 42 293 0 329 0 b 272 85 329 85 293 85 l 231 85 l 231 340 l 404 340 b 667 594 565 340 667 465 z m 571 594 b 378 425 571 521 511 425 l 231 425 l 231 764 l 378 764 b 571 594 511 764 571 668 z "},"Q":{"ha":729,"x_min":0,"x_max":0,"o":"m 650 424 b 364 864 650 825 621 864 b 78 424 107 864 78 826 b 364 -15 78 22 107 -15 b 442 -14 382 -15 426 -15 l 526 -176 b 575 -193 538 -193 553 -193 l 588 -193 b 632 -167 608 -193 632 -193 b 589 -78 632 -158 604 -108 b 543 6 578 -60 553 -12 b 642 192 604 31 629 79 b 650 424 650 267 650 360 z m 554 425 b 496 94 554 135 526 115 l 429 215 b 388 238 417 236 415 238 l 372 238 b 328 211 353 238 328 238 b 333 193 328 204 329 200 l 397 69 l 353 69 b 186 183 228 69 200 108 b 174 424 174 254 174 349 b 188 675 174 501 174 608 b 364 779 206 751 236 779 b 542 665 488 779 526 756 b 554 425 554 594 554 500 z "},"R":{"ha":729,"x_min":0,"x_max":0,"o":"m 725 129 b 676 174 725 174 692 174 b 629 132 663 174 631 174 b 603 69 629 121 626 69 b 564 207 564 69 564 133 b 551 338 564 294 564 306 b 483 422 535 378 503 407 b 601 615 575 474 601 558 b 332 849 601 735 496 849 l 86 849 b 31 806 64 849 31 849 b 86 764 31 764 65 764 l 121 764 l 121 85 l 86 85 b 31 42 64 85 31 85 b 86 0 31 0 65 0 l 251 0 b 307 42 272 0 307 0 b 251 85 307 85 274 85 l 217 85 l 217 382 l 325 382 b 438 343 351 382 393 382 b 468 225 468 314 468 283 b 494 49 468 135 468 93 b 604 -15 518 7 557 -15 b 725 129 692 -15 725 76 z m 506 615 b 317 467 506 547 443 467 l 217 467 l 217 764 l 317 764 b 506 615 444 764 506 682 z "},"S":{"ha":729,"x_min":0,"x_max":0,"o":"m 656 231 b 589 396 656 319 606 378 b 386 486 532 451 494 461 l 274 511 b 163 642 215 528 163 576 b 329 779 163 713 231 779 b 522 606 493 779 514 649 b 569 567 526 575 542 567 b 618 624 618 567 618 596 l 618 807 b 576 864 618 829 618 864 b 525 799 543 864 536 840 b 331 864 468 847 393 864 b 72 636 176 864 72 754 b 251 418 72 543 136 451 l 411 381 b 565 224 450 372 565 344 b 396 69 565 151 506 69 b 233 113 357 69 289 75 b 168 233 175 150 169 208 b 121 282 167 257 165 282 b 72 225 72 282 72 253 l 72 42 b 114 -15 72 19 72 -15 b 165 49 144 -15 153 4 b 394 -15 221 7 306 -15 b 656 231 556 -15 656 107 z "},"T":{"ha":729,"x_min":0,"x_max":0,"o":"m 692 690 l 692 792 b 636 849 692 835 683 849 l 93 849 b 36 792 47 849 36 838 l 36 690 b 83 633 36 664 36 633 b 132 690 132 633 132 663 l 132 764 l 317 764 l 317 85 l 244 85 b 189 43 224 85 189 85 b 244 0 189 0 222 0 l 485 0 b 540 42 506 0 540 0 b 485 85 540 85 507 85 l 413 85 l 413 764 l 596 764 l 596 690 b 643 633 596 664 596 633 b 692 690 692 633 692 663 z "},"U":{"ha":729,"x_min":0,"x_max":0,"o":"m 722 807 b 665 849 722 849 686 849 l 486 849 b 429 807 465 849 429 849 b 486 764 429 764 465 764 l 528 764 l 528 290 b 364 69 528 142 436 69 b 200 290 290 69 200 142 l 200 764 l 242 764 b 299 807 263 764 299 764 b 242 849 299 849 263 849 l 63 849 b 6 807 42 849 6 849 b 63 764 6 764 42 764 l 104 764 l 104 283 b 364 -15 104 113 225 -15 b 624 283 503 -15 624 113 l 624 764 l 665 764 b 722 807 688 764 722 764 z "},"V":{"ha":729,"x_min":0,"x_max":0,"o":"m 703 807 b 646 849 703 849 667 849 l 504 849 b 447 807 483 849 447 849 b 525 764 447 764 476 764 l 418 339 b 364 100 400 265 374 160 l 363 100 b 338 224 356 149 350 172 l 203 764 b 281 807 251 764 281 764 b 224 849 281 849 244 849 l 82 849 b 25 807 61 849 25 849 b 104 764 25 764 54 764 l 288 42 b 364 -11 301 -11 324 -11 b 440 40 401 -11 428 -11 l 624 764 b 703 807 674 764 703 764 z "},"W":{"ha":729,"x_min":0,"x_max":0,"o":"m 713 806 b 656 849 713 849 676 849 l 546 849 b 490 806 524 849 490 849 b 546 764 490 764 525 764 l 581 764 l 519 301 b 497 106 508 217 499 144 l 496 106 b 421 478 488 194 422 469 b 364 510 408 510 376 510 b 308 479 350 510 322 510 b 232 106 304 469 239 192 l 231 106 b 219 214 231 113 229 139 l 147 764 l 182 764 b 238 806 203 764 238 764 b 182 849 238 849 204 849 l 72 849 b 15 806 51 849 15 849 b 67 764 15 764 54 764 l 68 764 l 168 38 b 225 -11 175 -11 208 -11 b 279 17 238 -11 265 -11 b 364 407 283 26 358 351 l 365 407 b 447 24 371 344 446 26 b 503 -11 457 -11 493 -11 b 560 38 519 -11 553 -11 l 660 764 b 713 806 675 764 713 764 z "},"X":{"ha":729,"x_min":0,"x_max":0,"o":"m 689 42 b 632 85 689 85 653 85 l 600 85 l 404 453 l 561 764 l 592 764 b 649 806 613 764 649 764 b 592 849 649 849 613 849 l 447 849 b 392 807 426 849 392 849 b 456 764 392 764 424 764 l 357 561 l 250 764 b 310 807 278 764 310 764 b 254 849 310 849 275 849 l 110 849 b 53 807 89 849 53 849 b 110 764 53 764 89 764 l 142 764 l 308 451 l 124 85 l 93 85 b 38 42 71 85 38 85 b 93 0 38 0 72 0 l 238 0 b 294 42 258 0 294 0 b 229 85 294 85 261 85 l 357 354 l 494 85 b 432 42 463 85 432 85 b 488 0 432 0 467 0 l 632 0 b 689 42 653 0 689 0 z "},"Y":{"ha":729,"x_min":0,"x_max":0,"o":"m 701 806 b 646 849 701 849 668 849 l 501 849 b 446 807 481 849 446 849 b 510 764 446 764 476 764 l 364 436 b 218 764 344 507 232 735 b 282 807 251 764 282 764 b 226 849 282 849 247 849 l 82 849 b 26 807 61 849 26 849 b 82 764 26 764 60 764 l 111 764 l 317 339 l 317 85 l 282 85 b 226 43 261 85 226 85 b 282 0 226 0 260 0 l 447 0 b 503 42 468 0 503 0 b 447 85 503 85 469 85 l 413 85 l 413 339 l 617 764 l 646 764 b 701 806 667 764 701 764 z "},"Z":{"ha":729,"x_min":0,"x_max":0,"o":"m 668 57 l 668 185 b 621 242 668 211 668 242 b 572 185 572 242 572 213 l 572 85 l 190 85 l 647 758 b 661 801 661 779 661 788 b 604 849 661 849 631 849 l 140 849 b 83 792 94 849 83 838 l 83 690 b 131 633 83 664 83 633 b 179 690 179 633 179 663 l 179 764 l 538 764 l 81 90 b 67 47 67 69 67 61 b 124 0 67 0 97 0 l 613 0 b 668 57 658 0 668 13 z "},"[":{"ha":729,"x_min":0,"x_max":0,"o":"m 671 -74 b 615 -31 671 -31 638 -31 l 404 -31 l 404 879 l 615 879 b 671 921 636 879 671 879 b 615 964 671 964 638 964 l 364 964 b 308 907 318 964 308 951 l 308 -58 b 364 -115 308 -101 317 -115 l 615 -115 b 671 -74 636 -115 671 -115 z "},"\\":{"ha":729,"x_min":0,"x_max":0,"o":"m 647 -67 b 638 -33 647 -56 642 -42 l 178 926 b 129 964 171 940 160 964 b 81 915 101 964 81 940 b 90 882 81 904 86 890 l 550 -78 b 599 -115 557 -92 568 -115 b 647 -67 626 -115 647 -92 z "},"]":{"ha":729,"x_min":0,"x_max":0,"o":"m 419 -58 l 419 907 b 364 964 419 950 411 964 l 113 964 b 57 922 92 964 57 964 b 113 879 57 879 90 879 l 324 879 l 324 -31 l 113 -31 b 57 -72 92 -31 57 -31 b 113 -115 57 -115 90 -115 l 364 -115 b 419 -58 410 -115 419 -103 z "},"^":{"ha":729,"x_min":0,"x_max":0,"o":"m 607 754 l 381 864 b 349 864 371 868 358 868 l 122 754 b 154 679 74 731 107 658 l 364 769 l 574 679 b 607 754 622 658 656 731 z "},"_":{"ha":729,"x_min":0,"x_max":0,"o":"m 650 -183 b 585 -135 650 -135 601 -135 l 143 -135 b 78 -183 126 -135 78 -135 b 143 -232 78 -232 126 -232 l 585 -232 b 650 -183 601 -232 650 -232 z "},"`":{"ha":729,"x_min":0,"x_max":0,"o":"m 511 733 b 476 774 511 758 496 765 l 292 857 b 265 864 276 864 265 864 b 217 815 238 864 217 843 b 256 767 217 800 222 782 l 440 685 b 465 678 449 681 456 678 b 511 733 501 678 511 722 z "},"a":{"ha":729,"x_min":0,"x_max":0,"o":"m 728 43 b 672 85 728 85 693 85 b 589 96 614 85 600 92 l 589 396 b 314 611 589 494 514 611 b 113 510 254 611 113 611 b 175 446 113 468 142 446 b 236 510 196 446 235 458 b 265 525 236 521 238 522 b 315 526 285 526 303 526 b 493 385 421 526 493 483 b 76 178 247 381 76 311 b 306 -8 76 82 164 -8 b 508 44 357 -8 443 1 b 658 0 539 1 606 0 b 728 43 697 0 728 0 z m 493 186 b 439 100 493 154 493 125 b 315 76 389 76 326 76 b 172 178 229 76 172 124 b 493 303 172 246 292 297 z "},"b":{"ha":729,"x_min":0,"x_max":0,"o":"m 678 300 b 407 607 678 471 554 607 b 231 539 340 607 278 582 l 231 792 b 175 849 231 835 222 849 l 74 849 b 17 806 51 849 17 849 b 72 764 17 764 53 764 l 135 764 l 135 57 b 183 0 135 29 135 0 b 231 63 231 0 231 28 b 392 -8 288 4 347 -8 b 678 300 543 -8 678 124 z m 582 300 b 388 76 582 167 485 76 b 231 265 279 76 231 199 l 231 367 b 399 522 231 449 311 522 b 582 300 501 522 582 421 z "},"c":{"ha":729,"x_min":0,"x_max":0,"o":"m 647 151 b 599 190 647 190 607 190 b 553 160 576 190 563 188 b 415 76 544 142 518 76 b 197 300 297 76 197 174 b 424 526 197 367 236 526 b 507 514 453 526 507 526 b 568 446 508 465 535 446 b 631 510 601 446 631 469 b 424 611 631 611 486 611 b 101 300 185 611 101 422 b 407 -8 101 133 232 -8 b 647 151 600 -8 647 128 z "},"d":{"ha":729,"x_min":0,"x_max":0,"o":"m 711 43 b 656 85 711 85 675 85 l 593 85 l 593 792 b 538 849 593 835 585 849 l 436 849 b 379 806 414 849 379 849 b 435 764 379 764 415 764 l 497 764 l 497 544 b 335 607 451 585 394 607 b 50 299 183 607 50 475 b 322 -8 50 126 175 -8 b 497 69 400 -8 458 29 b 553 0 497 19 497 0 l 654 0 b 711 43 676 0 711 0 z m 497 269 b 328 76 497 192 435 76 b 146 299 229 76 146 175 b 340 522 146 432 243 522 b 497 368 429 522 497 444 z "},"e":{"ha":729,"x_min":0,"x_max":0,"o":"m 644 151 b 596 190 644 190 604 190 b 550 160 571 190 560 186 b 406 76 519 89 444 76 b 175 265 301 76 197 146 l 589 265 b 644 317 618 265 644 265 b 375 611 644 475 556 611 b 76 301 210 611 76 472 b 396 -8 76 132 217 -8 b 644 151 579 -8 644 117 z m 546 349 l 176 349 b 375 526 196 450 278 526 b 546 349 447 526 533 492 z "},"f":{"ha":729,"x_min":0,"x_max":0,"o":"m 607 774 b 474 857 607 857 496 857 b 256 672 363 857 256 793 l 256 599 l 117 599 b 60 556 94 599 60 599 b 115 514 60 514 94 514 l 256 514 l 256 85 l 115 85 b 58 43 94 85 58 85 b 115 0 58 0 94 0 l 492 0 b 549 42 513 0 549 0 b 492 85 549 85 513 85 l 351 85 l 351 514 l 521 514 b 576 556 542 514 576 514 b 521 599 576 599 543 599 l 351 599 l 351 664 b 486 772 351 772 444 772 b 547 713 486 767 499 713 b 607 774 575 713 607 735 z "},"g":{"ha":729,"x_min":0,"x_max":0,"o":"m 707 539 b 606 614 707 571 681 614 b 458 565 590 614 522 613 b 324 607 436 581 388 607 b 94 385 193 607 94 503 b 139 253 94 325 118 279 b 111 158 124 231 111 200 b 143 58 111 110 131 75 b 40 -114 40 -4 40 -99 b 364 -318 40 -233 186 -318 b 688 -114 542 -318 688 -232 b 592 44 688 -62 663 7 b 390 85 574 54 515 85 l 293 85 b 253 88 282 85 264 85 b 207 107 232 88 224 88 b 190 157 192 126 190 157 b 199 196 190 163 193 182 b 324 161 203 193 256 161 b 553 385 451 161 553 261 b 517 506 553 426 540 467 b 597 529 546 522 579 528 b 651 482 606 492 638 482 b 707 539 675 482 707 499 z m 457 385 b 324 244 457 306 396 244 b 190 383 249 244 190 310 b 324 524 190 463 251 524 b 457 385 399 524 457 458 z m 607 -114 b 364 -235 607 -175 503 -235 b 121 -114 225 -235 121 -175 b 178 -17 121 -89 133 -44 b 326 6 213 6 225 6 b 607 -114 450 6 607 6 z "},"h":{"ha":729,"x_min":0,"x_max":0,"o":"m 711 42 b 654 85 711 85 676 85 l 593 85 l 593 407 b 413 607 593 547 522 607 b 231 533 319 607 257 560 l 231 792 b 175 849 231 835 222 849 l 74 849 b 17 806 51 849 17 849 b 72 764 17 764 53 764 l 135 764 l 135 85 l 74 85 b 17 42 51 85 17 85 b 72 0 17 0 53 0 l 293 0 b 349 42 313 0 349 0 b 292 85 349 85 314 85 l 231 85 l 231 331 b 404 522 231 469 333 522 b 497 400 478 522 497 483 l 497 85 l 443 85 b 386 42 421 85 386 85 b 443 0 386 0 424 0 l 656 0 b 711 42 675 0 711 0 z "},"i":{"ha":729,"x_min":0,"x_max":0,"o":"m 632 42 b 575 85 632 85 596 85 l 429 85 l 429 542 b 374 599 429 585 421 599 l 176 599 b 119 557 156 599 119 599 b 176 514 119 514 156 514 l 333 514 l 333 85 l 165 85 b 108 42 143 85 108 85 b 165 0 108 0 144 0 l 575 0 b 632 42 596 0 632 0 z m 435 771 b 365 840 435 810 404 840 b 296 771 326 840 296 810 b 365 701 296 732 326 701 b 435 771 404 701 435 732 z "},"j":{"ha":729,"x_min":0,"x_max":0,"o":"m 511 -61 l 511 542 b 456 599 511 585 503 599 l 236 599 b 179 556 214 599 179 599 b 235 514 179 514 214 514 l 415 514 l 415 -54 b 379 -179 415 -78 415 -131 b 267 -232 342 -232 299 -232 b 189 -226 226 -232 210 -229 b 190 -210 190 -222 190 -219 b 129 -147 190 -171 158 -147 b 67 -211 97 -147 67 -171 b 260 -317 67 -317 203 -317 b 511 -61 461 -317 511 -150 z m 513 771 b 443 840 513 810 482 840 b 374 771 404 840 374 810 b 443 701 374 732 404 701 b 513 771 482 701 513 732 z "},"k":{"ha":729,"x_min":0,"x_max":0,"o":"m 706 42 b 649 85 706 85 669 85 l 606 85 l 399 354 l 569 514 l 618 514 b 675 556 639 514 675 514 b 618 599 675 599 639 599 l 404 599 b 349 556 382 599 349 599 b 404 514 349 514 383 514 l 456 514 l 231 303 l 231 792 b 175 849 231 835 222 849 l 85 849 b 29 807 64 849 29 849 b 85 764 29 764 63 764 l 153 764 l 153 85 l 85 85 b 29 43 64 85 29 85 b 85 0 29 0 63 0 l 299 0 b 354 42 319 0 354 0 b 299 85 354 85 321 85 l 231 85 l 231 197 l 342 300 l 507 85 b 429 42 457 85 429 85 b 485 0 429 0 464 0 l 649 0 b 706 42 669 0 706 0 z "},"l":{"ha":729,"x_min":0,"x_max":0,"o":"m 649 42 b 593 85 649 85 615 85 l 413 85 l 413 792 b 357 849 413 835 404 849 l 138 849 b 81 806 115 849 81 849 b 136 764 81 764 117 764 l 317 764 l 317 85 l 138 85 b 81 42 115 85 81 85 b 136 0 81 0 117 0 l 593 0 b 649 42 614 0 649 0 z "},"m":{"ha":729,"x_min":0,"x_max":0,"o":"m 717 42 b 638 85 717 85 688 85 l 638 421 b 514 607 638 449 638 607 b 376 535 472 607 415 589 b 271 607 356 582 317 607 b 151 557 226 607 185 588 b 96 599 149 599 121 599 l 51 599 b -6 557 31 599 -6 599 b 74 514 -6 514 24 514 l 74 85 b -6 42 24 85 -6 85 b 51 0 -6 0 32 0 l 174 0 b 231 42 194 0 231 0 b 151 85 231 85 201 85 l 151 333 b 265 522 151 457 208 522 b 317 408 297 522 317 499 l 317 85 b 256 42 290 85 256 85 b 313 0 256 0 293 0 l 417 0 b 474 42 438 0 474 0 b 394 85 474 85 444 85 l 394 333 b 508 522 394 457 451 522 b 560 408 540 522 560 499 l 560 85 b 499 42 533 85 499 85 b 556 0 499 0 536 0 l 660 0 b 717 42 681 0 717 0 z "},"n":{"ha":729,"x_min":0,"x_max":0,"o":"m 711 42 b 654 85 711 85 676 85 l 593 85 l 593 407 b 413 607 593 547 522 607 b 231 533 319 607 257 560 b 175 599 231 578 231 599 l 74 599 b 17 556 51 599 17 599 b 72 514 17 514 53 514 l 135 514 l 135 85 l 74 85 b 17 42 51 85 17 85 b 72 0 17 0 53 0 l 293 0 b 349 42 313 0 349 0 b 292 85 349 85 314 85 l 231 85 l 231 331 b 404 522 231 469 333 522 b 497 400 478 522 497 483 l 497 85 l 443 85 b 386 42 421 85 386 85 b 443 0 386 0 424 0 l 656 0 b 711 42 675 0 711 0 z "},"o":{"ha":729,"x_min":0,"x_max":0,"o":"m 649 300 b 364 611 649 474 519 611 b 79 300 208 611 79 474 b 364 -8 79 124 211 -8 b 649 300 517 -8 649 125 z m 553 310 b 364 76 553 181 467 76 b 175 310 261 76 175 181 b 364 526 175 436 265 526 b 553 310 464 526 553 436 z "},"p":{"ha":729,"x_min":0,"x_max":0,"o":"m 678 300 b 407 607 678 471 554 607 b 231 539 340 607 278 582 b 175 599 231 579 228 599 l 74 599 b 17 556 51 599 17 599 b 72 514 17 514 53 514 l 135 514 l 135 -224 l 74 -224 b 17 -267 51 -224 17 -224 b 72 -308 17 -308 53 -308 l 293 -308 b 349 -267 313 -308 349 -308 b 292 -224 349 -224 314 -224 l 231 -224 l 231 63 b 392 -8 288 4 347 -8 b 678 300 543 -8 678 124 z m 582 300 b 388 76 582 167 485 76 b 231 265 279 76 231 199 l 231 367 b 399 522 231 449 311 522 b 582 300 501 522 582 421 z "},"q":{"ha":729,"x_min":0,"x_max":0,"o":"m 746 -267 b 690 -224 746 -224 713 -224 l 622 -224 l 622 550 b 575 607 622 576 622 607 b 526 531 526 607 526 583 b 353 607 489 571 432 607 b 56 299 197 607 56 475 b 339 -8 56 126 186 -8 b 526 75 433 -8 497 43 l 526 -224 l 458 -224 b 403 -265 438 -224 403 -224 b 458 -308 403 -308 436 -308 l 690 -308 b 746 -267 711 -308 746 -308 z m 526 269 b 344 76 526 190 458 76 b 151 299 242 76 151 174 b 360 522 151 426 249 522 b 526 324 464 522 526 415 z "},"r":{"ha":729,"x_min":0,"x_max":0,"o":"m 676 521 b 544 607 676 549 660 607 b 308 494 474 607 385 582 l 308 542 b 253 599 308 585 300 599 l 100 599 b 44 557 79 599 44 599 b 100 514 44 514 78 514 l 213 514 l 213 85 l 100 85 b 44 43 79 85 44 85 b 100 0 44 0 78 0 l 463 0 b 519 42 483 0 519 0 b 463 85 519 85 483 85 l 308 85 l 308 258 b 558 522 308 389 390 522 b 618 461 560 489 583 461 b 676 521 649 461 676 483 z "},"s":{"ha":729,"x_min":0,"x_max":0,"o":"m 638 174 b 414 354 638 318 458 347 l 319 371 b 185 447 279 376 185 393 b 361 526 185 483 229 526 b 500 449 476 526 496 485 b 547 401 501 425 504 401 b 596 458 596 401 596 431 l 596 554 b 554 611 596 576 596 611 b 513 582 521 611 515 592 b 364 611 451 611 390 611 b 100 447 132 611 100 497 b 374 276 100 319 246 296 b 553 174 442 265 553 247 b 375 76 553 122 501 76 b 197 200 310 76 232 92 b 149 240 190 225 185 240 b 100 183 100 240 100 211 l 100 49 b 142 -8 100 26 100 -8 b 193 44 154 -8 176 -7 b 374 -8 261 -6 335 -8 b 638 174 593 -8 638 107 z "},"t":{"ha":729,"x_min":0,"x_max":0,"o":"m 624 175 b 575 229 624 200 624 229 b 528 176 529 229 528 200 b 415 76 526 90 447 76 b 308 183 308 76 308 149 l 308 514 l 536 514 b 592 556 557 514 592 514 b 536 599 592 599 558 599 l 308 599 l 308 713 b 261 769 308 739 308 769 b 213 713 213 769 213 740 l 213 599 l 92 599 b 35 556 69 599 35 599 b 90 514 35 514 69 514 l 213 514 l 213 175 b 408 -8 213 42 307 -8 b 624 175 511 -8 624 51 z "},"u":{"ha":729,"x_min":0,"x_max":0,"o":"m 711 43 b 656 85 711 85 675 85 l 593 85 l 593 542 b 538 599 593 585 585 599 l 436 599 b 379 556 414 599 379 599 b 435 514 379 514 415 514 l 497 514 l 497 218 b 340 76 497 93 385 76 b 231 167 231 76 231 122 l 231 542 b 175 599 231 585 222 599 l 74 599 b 17 556 51 599 17 599 b 72 514 17 514 53 514 l 135 514 l 135 158 b 332 -8 135 25 231 -8 b 497 44 389 -8 446 6 b 553 0 499 0 528 0 l 654 0 b 711 43 676 0 711 0 z "},"v":{"ha":729,"x_min":0,"x_max":0,"o":"m 694 556 b 639 599 694 599 661 599 l 476 599 b 421 557 456 599 421 599 b 476 514 421 514 454 514 l 515 514 l 364 67 l 213 514 l 251 514 b 307 556 272 514 307 514 b 251 599 307 599 274 599 l 89 599 b 33 556 67 599 33 599 b 89 514 33 514 68 514 l 131 514 l 290 42 b 364 -6 307 -6 335 -6 b 438 40 390 -6 422 -6 l 597 514 l 639 514 b 694 556 660 514 694 514 z "},"w":{"ha":729,"x_min":0,"x_max":0,"o":"m 706 557 b 647 599 706 599 672 599 l 488 599 b 429 557 463 599 429 599 b 488 514 429 514 461 514 l 556 514 l 486 100 l 485 100 b 444 257 479 136 461 200 b 367 360 419 344 415 360 b 311 329 353 360 326 360 b 246 100 307 319 251 128 l 244 100 l 172 514 l 240 514 b 299 556 265 514 299 514 b 240 599 299 599 267 599 l 81 599 b 22 557 56 599 22 599 b 93 514 22 514 51 514 l 176 47 b 242 -6 182 15 186 -6 b 326 92 297 -6 301 7 b 367 264 361 214 363 233 l 368 264 b 432 18 375 192 426 29 b 490 -6 449 -6 474 -6 b 551 47 542 -6 546 17 l 635 514 b 706 557 676 514 706 514 z "},"x":{"ha":729,"x_min":0,"x_max":0,"o":"m 689 42 b 632 85 689 85 653 85 l 576 85 l 399 308 l 557 514 l 613 514 b 669 556 632 514 669 514 b 613 599 669 599 633 599 l 450 599 b 394 557 429 599 394 599 b 463 514 394 514 425 514 l 360 374 l 254 514 b 321 557 290 514 321 514 b 265 599 321 599 286 599 l 103 599 b 46 556 82 599 46 599 b 103 514 46 514 83 514 l 158 514 l 322 308 l 150 85 l 94 85 b 38 42 74 85 38 85 b 94 0 38 0 75 0 l 257 0 b 313 42 278 0 313 0 b 240 85 313 85 283 85 l 360 256 l 483 85 b 414 42 444 85 414 85 b 469 0 414 0 449 0 l 632 0 b 689 42 651 0 689 0 z "},"y":{"ha":729,"x_min":0,"x_max":0,"o":"m 694 556 b 639 599 694 599 661 599 l 476 599 b 421 557 456 599 421 599 b 476 514 421 514 454 514 l 515 514 l 415 218 b 379 99 397 167 389 142 l 378 99 b 349 181 371 125 358 154 l 219 514 l 254 514 b 310 556 275 514 310 514 b 254 599 310 599 276 599 l 92 599 b 36 556 69 599 36 599 b 92 514 36 514 71 514 l 135 514 l 332 18 b 338 0 338 4 338 0 b 285 -151 338 0 303 -117 b 174 -232 244 -228 194 -231 b 181 -201 174 -232 181 -219 b 121 -142 181 -167 156 -142 b 60 -203 83 -142 60 -167 b 175 -317 60 -261 107 -317 b 382 -118 314 -317 376 -133 l 597 514 l 639 514 b 694 556 660 514 694 514 z "},"z":{"ha":729,"x_min":0,"x_max":0,"o":"m 660 57 l 660 138 b 613 194 660 164 660 194 b 564 138 564 194 564 165 l 564 85 l 190 85 l 624 496 b 654 551 653 524 654 528 b 597 599 654 599 624 599 l 125 599 b 68 542 79 599 68 588 l 68 478 b 115 421 68 451 68 421 b 164 478 164 421 164 450 l 164 514 l 510 514 l 76 103 b 46 47 47 75 46 71 b 103 0 46 0 76 0 l 629 0 b 660 57 660 8 660 36 z "},"{":{"ha":729,"x_min":0,"x_max":0,"o":"m 649 -72 b 601 -31 649 -32 614 -31 b 413 67 413 -26 413 24 l 413 290 b 332 424 413 325 408 382 b 413 539 390 458 411 504 l 413 722 b 417 824 413 757 413 813 b 613 879 442 876 564 879 b 649 921 621 879 649 888 b 590 964 649 964 615 964 b 318 824 493 964 342 946 b 317 707 317 815 317 746 l 317 582 b 267 489 317 532 317 511 b 115 467 217 468 147 467 b 79 425 107 467 79 458 b 126 382 79 383 113 382 b 317 301 163 381 314 376 l 317 71 b 389 -74 317 29 317 -33 b 590 -115 447 -106 524 -115 b 649 -72 615 -115 649 -115 z "},"|":{"ha":729,"x_min":0,"x_max":0,"o":"m 413 -50 l 413 899 b 364 964 413 915 413 964 b 315 899 315 964 315 915 l 315 -50 b 364 -115 315 -67 315 -115 b 413 -50 413 -115 413 -67 z "},"}":{"ha":729,"x_min":0,"x_max":0,"o":"m 649 424 b 601 467 649 465 615 467 b 413 549 568 468 415 471 l 413 781 b 340 922 413 819 413 882 b 138 964 274 958 186 964 b 79 921 114 964 79 964 b 125 879 79 885 106 879 b 317 781 317 876 317 826 l 317 557 b 397 425 317 501 338 457 b 317 310 319 381 317 315 l 317 63 b 115 -31 317 22 317 -28 b 79 -72 107 -31 79 -39 b 138 -115 79 -115 114 -115 b 411 25 258 -115 390 -87 b 413 142 413 33 413 103 l 413 267 b 463 360 413 317 413 338 b 613 382 513 381 579 382 b 649 424 621 382 649 390 z "},"~":{"ha":729,"x_min":0,"x_max":0,"o":"m 608 464 b 565 508 608 486 588 508 b 532 493 550 508 542 501 b 435 432 490 454 454 432 b 392 461 421 432 410 444 b 299 508 374 479 346 508 b 190 463 261 508 222 486 b 122 386 163 442 122 411 b 165 342 122 364 143 342 b 199 357 181 342 189 349 b 296 418 240 396 276 418 b 339 389 310 418 321 406 b 432 342 357 371 385 342 b 540 388 469 342 508 364 b 608 464 568 408 608 439 z "}," ":{"ha":729,"x_min":0,"x_max":0,"o":""},"¡":{"ha":729,"x_min":0,"x_max":0,"o":"m 433 471 b 364 540 433 510 403 540 b 294 471 325 540 294 510 b 364 401 294 432 325 401 b 433 471 403 401 433 432 z m 433 -244 l 424 81 l 419 250 b 364 285 418 285 381 285 b 307 218 315 285 310 274 l 301 -22 b 294 -244 300 -94 294 -171 b 364 -324 294 -318 351 -324 b 433 -244 376 -324 433 -318 z "},"¢":{"ha":729,"x_min":0,"x_max":0,"o":"m 647 151 b 599 190 647 190 607 190 b 553 160 576 190 563 188 b 444 78 546 143 524 89 l 444 526 b 507 514 472 526 507 524 b 568 446 508 465 535 446 b 631 510 601 446 631 469 b 444 611 631 601 513 610 l 444 685 b 401 728 444 708 425 728 b 358 685 378 728 358 708 l 358 606 b 101 300 169 575 101 410 b 358 -4 101 149 208 19 l 358 -86 b 401 -129 358 -110 378 -129 b 444 -86 425 -129 444 -110 l 444 -7 b 647 151 606 10 647 129 z m 358 85 b 197 300 267 110 197 194 b 358 519 197 358 226 486 z "},"£":{"ha":729,"x_min":0,"x_max":0,"o":"m 704 200 b 656 249 704 226 683 249 b 607 200 629 249 607 226 b 547 82 607 143 596 82 b 376 161 481 82 429 121 b 303 376 374 238 338 307 l 481 376 b 529 425 507 376 529 397 b 481 474 529 451 507 474 l 257 474 b 231 599 242 513 231 554 b 383 751 231 682 299 751 b 526 668 446 751 506 719 b 510 626 517 657 510 643 b 571 565 510 593 538 565 b 632 626 604 565 632 593 b 383 849 632 754 515 849 b 133 599 244 849 133 736 b 160 474 133 554 144 513 l 115 474 b 67 425 89 474 67 451 b 115 376 67 397 89 376 l 206 376 b 268 231 229 328 254 281 b 200 244 247 239 225 244 b 25 114 111 244 25 196 b 158 -15 25 42 85 -15 b 357 78 242 -15 321 19 b 547 -15 415 35 474 -15 b 704 200 646 -15 704 90 z m 276 129 b 158 82 261 94 208 82 b 122 114 139 82 122 96 b 200 147 122 146 164 147 b 276 129 228 147 253 140 z "},"¤":{"ha":729,"x_min":0,"x_max":0,"o":"m 585 204 b 574 285 619 239 585 272 l 540 317 b 571 425 560 349 571 385 b 540 533 571 465 560 501 l 572 564 b 583 644 583 576 618 611 b 503 633 550 679 515 644 l 472 601 b 365 632 440 621 404 632 b 257 601 325 632 288 621 l 224 635 b 143 646 211 646 178 681 b 154 565 108 611 143 578 l 188 532 b 158 425 169 501 158 464 b 188 318 158 386 169 349 l 156 286 b 144 206 144 274 110 239 b 225 217 178 171 213 206 l 257 249 b 365 218 288 229 325 218 b 472 249 404 218 440 229 l 504 215 b 585 204 517 204 550 169 z m 474 425 b 365 315 474 365 425 315 b 256 425 304 315 256 365 b 365 535 256 485 304 535 b 474 425 425 535 474 485 z "},"¥":{"ha":729,"x_min":0,"x_max":0,"o":"m 701 806 b 646 849 701 849 668 849 l 501 849 b 446 807 481 849 446 849 b 510 764 446 764 476 764 l 429 582 l 304 582 l 218 764 b 282 807 251 764 282 764 b 226 849 282 849 247 849 l 82 849 b 26 807 61 849 26 849 b 82 764 26 764 60 764 l 111 764 l 199 582 l 146 582 b 97 533 119 582 97 560 b 146 485 97 506 119 485 l 246 485 l 304 365 l 146 365 b 97 317 119 365 97 344 b 146 268 97 290 119 268 l 317 268 l 317 85 l 282 85 b 226 43 261 85 226 85 b 282 0 226 0 260 0 l 447 0 b 503 42 468 0 503 0 b 447 85 503 85 469 85 l 413 85 l 413 268 l 583 268 b 632 317 610 268 632 290 b 583 365 632 344 610 365 l 425 365 l 482 485 l 583 485 b 632 533 610 485 632 506 b 583 582 632 560 610 582 l 529 582 l 617 764 l 646 764 b 701 806 667 764 701 764 z m 386 485 l 364 436 b 347 485 361 449 354 465 z "},"¦":{"ha":729,"x_min":0,"x_max":0,"o":"m 413 565 l 413 899 b 364 964 413 915 413 964 b 315 899 315 964 315 915 l 315 565 b 364 522 315 540 338 522 b 413 565 390 522 413 540 z m 413 -50 l 413 283 b 364 326 413 308 390 326 b 315 283 338 326 315 308 l 315 -50 b 364 -115 315 -67 315 -115 b 413 -50 413 -115 413 -67 z "},"§":{"ha":729,"x_min":0,"x_max":0,"o":"m 681 269 b 476 500 681 381 586 463 l 333 549 b 194 660 268 571 194 596 b 365 767 194 733 281 767 b 524 725 428 767 497 761 b 511 688 517 715 511 701 b 572 626 511 654 539 626 b 633 688 606 626 633 654 b 365 864 633 806 499 864 b 97 660 228 864 97 786 b 129 565 97 624 110 593 b 50 425 82 536 50 483 b 254 194 50 314 144 232 l 397 146 b 536 35 463 124 536 99 b 365 -72 536 -39 450 -72 b 207 -31 303 -72 233 -67 b 219 7 214 -21 219 -7 b 158 68 219 40 192 68 b 97 7 125 68 97 40 b 365 -169 97 -111 232 -169 b 633 35 503 -169 633 -92 b 601 128 633 69 621 101 b 681 269 649 158 681 210 z m 583 269 b 528 192 583 233 561 201 b 429 238 497 210 464 225 l 286 286 b 147 425 215 311 147 354 b 203 501 147 460 169 493 b 301 457 233 483 267 468 l 444 408 b 583 269 515 383 583 340 z "},"¨":{"ha":729,"x_min":0,"x_max":0,"o":"m 313 771 b 250 833 313 807 285 833 b 188 771 215 833 188 807 b 250 708 188 736 215 708 b 313 771 285 708 313 736 z m 542 771 b 479 833 542 807 514 833 b 417 771 444 833 417 807 b 479 708 417 736 444 708 b 542 771 514 708 542 736 z "},"©":{"ha":729,"x_min":0,"x_max":0,"o":"m 729 365 b 365 729 729 565 565 729 b 0 365 164 729 0 565 b 365 0 0 164 164 0 b 729 365 565 0 729 164 z m 676 365 b 365 53 676 193 536 53 b 53 365 193 53 53 193 b 365 676 53 536 193 676 b 676 365 536 676 676 536 z m 503 261 b 476 286 503 286 485 286 b 451 264 471 286 453 286 b 354 174 446 192 386 174 b 222 365 286 174 222 253 b 354 556 222 476 288 556 b 451 461 399 556 440 522 b 476 436 453 449 454 436 b 503 467 503 436 503 451 l 503 571 b 481 601 503 583 503 601 b 460 589 467 601 464 594 b 449 565 458 586 458 585 b 351 601 424 588 389 601 b 171 365 254 601 171 501 b 351 128 171 228 254 128 b 503 261 439 128 503 194 z "},"ª":{"ha":729,"x_min":0,"x_max":0,"o":"m 593 467 b 554 496 593 496 568 496 b 496 503 513 496 503 500 l 496 714 b 303 864 496 782 443 864 b 163 793 261 864 163 864 b 206 749 163 764 182 749 b 249 793 221 749 247 757 b 269 804 249 801 250 801 l 304 804 b 428 706 378 804 428 775 b 136 561 256 703 136 654 b 297 431 136 493 197 431 b 439 468 333 431 393 438 b 544 436 460 438 507 436 b 593 467 571 436 593 436 z m 550 358 b 507 389 550 375 531 389 l 222 389 b 179 358 199 389 179 375 b 222 329 179 342 199 329 l 507 329 b 550 358 531 329 550 342 z m 428 567 b 390 507 428 544 428 524 b 304 490 356 490 311 490 b 204 561 243 490 204 522 b 428 649 204 608 288 644 z "},"«":{"ha":729,"x_min":0,"x_max":0,"o":"m 664 157 b 643 199 664 181 653 190 l 382 425 l 643 651 b 664 693 653 660 664 669 b 633 738 664 722 649 738 b 608 725 625 738 622 736 l 310 467 b 290 425 301 458 290 449 b 306 386 290 408 297 394 l 608 125 b 633 113 622 114 625 113 b 664 157 649 113 664 128 z m 439 157 b 418 199 439 181 428 190 l 157 425 l 418 651 b 439 693 428 660 439 669 b 408 738 439 722 424 738 b 383 725 401 738 397 736 l 85 467 b 65 425 76 458 65 449 b 81 386 65 408 72 394 l 383 125 b 408 113 397 114 401 113 b 439 157 424 113 439 128 z "},"¬":{"ha":729,"x_min":0,"x_max":0,"o":"m 675 319 l 675 531 b 626 579 675 557 653 579 l 101 579 b 53 531 75 579 53 557 b 101 482 53 504 75 482 l 578 482 l 578 319 b 626 271 578 293 600 271 b 675 319 653 271 675 293 z "},"®":{"ha":729,"x_min":0,"x_max":0,"o":"m 729 365 b 365 729 729 565 565 729 b 0 365 164 729 0 565 b 365 0 0 164 164 0 b 729 365 565 0 729 164 z m 676 365 b 365 53 676 193 536 53 b 53 365 193 53 53 193 b 365 676 53 536 193 676 b 676 365 536 676 676 536 z m 572 210 b 547 233 572 233 554 233 b 521 211 539 233 522 233 b 507 178 521 206 519 178 b 486 251 486 178 486 211 b 479 322 486 299 486 304 b 443 368 469 343 453 360 b 506 472 492 396 506 442 b 361 597 506 536 449 597 l 228 597 b 199 575 217 597 199 597 b 228 551 199 551 217 551 l 247 551 l 247 186 l 228 186 b 199 163 217 186 199 186 b 228 140 199 140 217 140 l 317 140 b 347 163 328 140 347 140 b 317 186 347 186 329 186 l 299 186 l 299 346 l 357 346 b 418 325 371 346 393 346 b 435 261 435 310 435 293 b 449 165 435 213 435 190 b 507 132 461 143 482 132 b 572 210 554 132 572 181 z m 454 472 b 353 392 454 435 421 392 l 299 392 l 299 551 l 353 551 b 454 472 421 551 454 508 z "},"¯":{"ha":729,"x_min":0,"x_max":0,"o":"m 628 771 b 572 815 628 815 596 815 l 158 815 b 103 772 136 815 103 815 b 160 728 103 728 136 728 l 572 728 b 628 771 594 728 628 728 z "},"°":{"ha":729,"x_min":0,"x_max":0,"o":"m 567 646 b 365 849 567 758 476 849 b 163 646 253 849 163 758 b 365 443 163 535 253 443 b 567 646 476 443 567 535 z m 469 646 b 365 540 469 588 422 540 b 260 646 307 540 260 588 b 365 751 260 704 307 751 b 469 646 422 751 469 704 z "},"±":{"ha":729,"x_min":0,"x_max":0,"o":"m 675 49 b 610 97 675 97 626 97 l 413 97 l 413 264 l 610 264 b 675 313 626 264 675 264 b 610 361 675 361 626 361 l 413 361 l 413 560 b 364 625 413 576 413 625 b 315 560 315 625 315 576 l 315 361 l 118 361 b 53 313 101 361 53 361 b 118 264 53 264 101 264 l 315 264 l 315 97 l 118 97 b 53 49 101 97 53 97 b 118 0 53 0 101 0 l 610 0 b 675 49 626 0 675 0 z "},"²":{"ha":729,"x_min":0,"x_max":0,"o":"m 511 461 l 511 479 b 488 507 511 492 511 507 b 463 475 463 507 463 494 l 297 475 b 435 590 339 510 406 563 b 511 729 479 629 511 674 b 356 864 511 813 440 864 b 219 749 274 864 219 807 b 250 715 219 722 239 715 b 281 746 265 715 281 726 b 271 768 281 754 278 764 b 353 822 282 800 314 822 b 463 729 410 822 463 790 b 383 601 463 681 429 640 l 229 472 b 219 454 224 467 219 464 b 247 432 219 432 236 432 l 483 432 b 511 461 506 432 511 439 z "},"³":{"ha":729,"x_min":0,"x_max":0,"o":"m 517 553 b 438 664 517 603 483 643 b 496 767 476 689 496 729 b 365 864 496 818 446 864 b 233 783 282 864 233 831 b 265 750 233 760 251 750 b 296 782 279 750 296 763 b 289 800 296 792 292 799 b 367 822 311 822 360 822 b 449 765 414 822 449 797 b 419 706 449 744 438 721 b 354 685 397 688 379 686 b 304 661 315 682 304 682 b 332 640 304 640 321 640 l 364 640 b 468 553 433 640 468 593 b 367 467 468 511 429 467 b 267 507 339 467 285 475 b 275 529 271 511 275 515 b 244 560 275 546 263 560 b 214 526 229 560 214 549 b 367 425 214 465 281 425 b 517 553 457 425 517 489 z "},"´":{"ha":729,"x_min":0,"x_max":0,"o":"m 513 815 b 464 864 513 843 492 864 b 438 857 464 864 453 864 l 253 774 b 218 733 233 765 218 758 b 264 678 218 722 228 678 b 289 685 274 678 281 681 l 474 767 b 513 815 507 782 513 800 z "},"µ":{"ha":729,"x_min":0,"x_max":0,"o":"m 713 42 b 653 85 713 85 678 85 l 594 85 l 594 538 b 535 597 594 586 585 597 l 439 597 b 379 556 415 597 379 597 b 439 513 379 513 414 513 l 497 513 l 497 219 b 453 113 497 190 497 149 b 340 76 407 76 360 76 b 231 168 231 76 231 121 l 231 538 b 171 597 231 586 221 597 l 75 597 b 15 556 51 597 15 597 b 75 513 15 513 50 513 l 133 513 l 133 -224 l 75 -224 b 15 -265 51 -224 15 -224 b 75 -308 15 -308 50 -308 l 289 -308 b 349 -267 313 -308 349 -308 b 289 -224 349 -224 314 -224 l 231 -224 l 231 7 b 332 -8 271 -8 317 -8 b 496 43 403 -8 453 11 b 557 0 499 0 532 0 l 653 0 b 713 42 676 0 713 0 z "},"¶":{"ha":729,"x_min":0,"x_max":0,"o":"m 694 936 b 656 964 694 964 672 964 l 365 964 b 67 643 199 964 67 818 b 417 319 67 425 264 326 l 417 -224 b 440 -269 417 -243 417 -269 b 464 -224 464 -269 464 -243 l 464 908 l 547 908 l 547 -224 b 572 -269 547 -243 547 -269 b 596 -224 596 -269 596 -243 l 596 908 l 656 908 b 694 936 672 908 694 908 z "},"·":{"ha":729,"x_min":0,"x_max":0,"o":"m 451 424 b 365 511 451 475 410 511 b 278 425 313 511 278 468 b 364 338 278 374 319 338 b 451 424 417 338 451 381 z "},"¸":{"ha":729,"x_min":0,"x_max":0,"o":"m 594 -147 b 457 -12 594 -93 556 -32 b 410 63 457 39 457 63 b 361 4 361 63 361 32 l 361 -33 b 406 -92 361 -61 361 -89 b 499 -147 467 -94 499 -119 b 308 -203 499 -203 361 -203 b 225 -246 256 -203 225 -203 b 268 -289 225 -278 247 -289 b 594 -147 400 -289 594 -289 z "},"¹":{"ha":729,"x_min":0,"x_max":0,"o":"m 482 453 b 454 475 482 475 465 475 l 390 475 l 390 836 b 369 864 390 847 390 864 b 349 847 357 864 353 856 b 274 779 322 789 286 781 b 247 758 263 779 247 778 b 271 738 247 740 260 738 b 343 768 283 738 313 742 l 343 475 l 279 475 b 251 453 268 475 251 475 b 279 432 251 432 269 432 l 454 432 b 482 453 464 432 482 432 z "},"º":{"ha":729,"x_min":0,"x_max":0,"o":"m 564 646 b 365 864 564 768 474 864 b 165 646 256 864 165 768 b 365 431 165 522 258 431 b 564 646 471 431 564 524 z m 521 358 b 478 389 521 375 501 389 l 251 389 b 208 358 228 389 208 375 b 251 329 208 342 228 329 l 478 329 b 521 358 501 329 521 342 z m 497 653 b 365 490 497 563 436 490 b 232 653 293 490 232 563 b 365 804 232 742 296 804 b 497 653 435 804 497 742 z "},"»":{"ha":729,"x_min":0,"x_max":0,"o":"m 663 425 b 643 467 663 449 651 458 l 344 725 b 319 738 331 736 326 738 b 289 693 304 738 289 722 b 310 651 289 669 300 660 l 571 425 l 310 199 b 289 157 300 190 289 181 b 319 113 289 128 304 113 b 344 125 326 113 331 114 l 647 386 b 663 425 656 394 663 408 z m 438 425 b 418 467 438 449 426 458 l 119 725 b 94 738 106 736 103 738 b 64 693 79 738 64 722 b 85 651 64 669 75 660 l 346 425 l 85 199 b 64 157 75 190 64 181 b 94 113 64 128 79 113 b 119 125 103 113 106 114 l 422 386 b 438 425 431 394 438 408 z "},"¼":{"ha":729,"x_min":0,"x_max":0,"o":"m 271 453 b 243 475 271 475 254 475 l 179 475 l 179 836 b 158 864 179 847 179 864 b 138 847 146 864 142 856 b 63 779 111 789 75 781 b 36 758 51 779 36 778 b 60 738 36 740 49 738 b 132 768 72 738 101 742 l 132 475 l 68 475 b 40 453 57 475 40 475 b 68 432 40 432 58 432 l 243 432 b 271 453 253 432 271 432 z m 693 139 b 665 160 693 160 676 160 l 611 160 l 611 404 b 583 433 611 428 607 433 l 564 433 b 535 418 547 433 543 432 l 376 169 b 369 146 369 161 369 160 b 397 118 369 122 376 118 l 572 118 l 572 43 l 529 43 b 501 21 518 43 501 43 b 529 0 501 0 519 0 l 654 0 b 682 21 665 0 682 0 b 654 43 682 43 665 43 l 611 43 l 611 118 l 665 118 b 693 139 676 118 693 118 z m 668 821 b 619 869 668 847 647 869 b 578 844 601 869 586 860 l 140 51 b 133 28 136 44 133 36 b 182 -21 133 1 156 -21 b 225 4 200 -21 217 -11 l 663 797 b 668 821 667 804 668 813 z m 572 160 l 418 160 l 572 403 z "},"½":{"ha":729,"x_min":0,"x_max":0,"o":"m 271 453 b 243 475 271 475 254 475 l 179 475 l 179 836 b 158 864 179 847 179 864 b 138 847 146 864 142 856 b 63 779 111 789 75 781 b 36 758 51 779 36 778 b 60 738 36 740 49 738 b 132 768 72 738 101 742 l 132 475 l 68 475 b 40 453 57 475 40 475 b 68 432 40 432 58 432 l 243 432 b 271 453 253 432 271 432 z m 693 29 l 693 47 b 669 75 693 60 693 75 b 646 43 646 75 646 63 l 481 43 b 618 158 521 78 588 131 b 693 297 661 197 693 242 b 539 432 693 381 624 432 b 401 317 457 432 401 375 b 433 283 401 290 421 283 b 464 314 447 283 464 294 b 454 336 464 322 460 332 b 535 390 464 368 497 390 b 646 297 592 390 646 358 b 565 169 646 249 611 208 l 413 40 b 401 22 406 35 401 32 b 431 0 401 0 419 0 l 665 0 b 693 29 689 0 693 7 z m 632 821 b 583 869 632 847 610 869 b 540 844 565 869 549 860 l 103 51 b 97 28 100 44 97 36 b 146 -21 97 1 119 -21 b 189 4 164 -21 181 -11 l 626 797 b 632 821 629 804 632 813 z "},"¾":{"ha":729,"x_min":0,"x_max":0,"o":"m 333 553 b 256 664 333 603 301 643 b 314 767 294 689 314 729 b 183 864 314 818 263 864 b 51 783 100 864 51 831 b 82 750 51 760 68 750 b 113 782 97 750 113 763 b 107 800 113 792 108 799 b 183 822 128 822 178 822 b 265 765 231 822 265 797 b 236 706 265 744 256 721 b 172 685 214 688 197 686 b 122 661 132 682 122 682 b 150 640 122 640 139 640 l 182 640 b 286 553 250 640 286 593 b 183 467 286 511 247 467 b 85 507 156 467 103 475 b 93 529 88 511 93 515 b 63 560 93 546 79 560 b 31 526 46 560 31 549 b 183 425 31 465 99 425 b 333 553 275 425 333 489 z m 693 139 b 665 160 693 160 676 160 l 611 160 l 611 404 b 583 433 611 428 607 433 l 564 433 b 535 418 547 433 543 432 l 376 169 b 369 146 369 161 369 160 b 397 118 369 122 376 118 l 572 118 l 572 43 l 529 43 b 501 21 518 43 501 43 b 529 0 501 0 519 0 l 654 0 b 682 21 665 0 682 0 b 654 43 682 43 665 43 l 611 43 l 611 118 l 665 118 b 693 139 676 118 693 118 z m 668 821 b 619 869 668 847 647 869 b 578 844 601 869 586 860 l 140 51 b 133 28 136 44 133 36 b 182 -21 133 1 156 -21 b 225 4 200 -21 217 -11 l 663 797 b 668 821 667 804 668 813 z m 572 160 l 418 160 l 572 403 z "},"¿":{"ha":729,"x_min":0,"x_max":0,"o":"m 413 471 b 343 540 413 510 382 540 b 274 471 304 540 274 510 b 343 401 274 432 304 401 b 413 471 382 401 413 432 z m 642 -147 b 579 -82 642 -103 608 -82 b 518 -144 550 -82 518 -106 b 531 -185 518 -158 521 -174 b 346 -232 483 -232 368 -232 b 182 -144 318 -232 182 -232 b 225 -78 182 -107 208 -89 b 399 213 399 39 399 157 b 343 285 399 267 399 285 b 288 228 301 285 288 278 l 288 204 b 168 -8 288 160 282 68 b 86 -144 144 -25 86 -64 b 344 -317 86 -178 97 -317 b 642 -147 389 -317 642 -317 z "},"À":{"ha":729,"x_min":0,"x_max":0,"o":"m 690 42 b 667 81 690 60 683 74 b 607 85 658 85 628 85 l 439 811 b 364 865 426 864 407 865 b 289 813 324 865 301 865 l 121 85 b 61 82 101 85 69 85 b 38 42 46 74 38 60 b 97 0 38 0 74 0 l 239 0 b 297 42 264 0 297 0 b 219 85 297 85 269 85 l 251 229 l 476 229 l 508 85 b 431 42 458 85 431 85 b 489 0 431 0 464 0 l 631 0 b 690 42 654 0 690 0 z m 456 314 l 272 314 l 364 750 z m 511 990 b 476 1031 511 1015 496 1022 l 292 1114 b 265 1121 276 1121 265 1121 b 217 1072 238 1121 217 1100 b 256 1024 217 1057 222 1039 l 440 942 b 465 935 449 938 456 935 b 511 990 501 935 511 979 z "},"Á":{"ha":729,"x_min":0,"x_max":0,"o":"m 690 42 b 667 81 690 60 683 74 b 607 85 658 85 628 85 l 439 811 b 364 865 426 864 407 865 b 289 813 324 865 301 865 l 121 85 b 61 82 101 85 69 85 b 38 42 46 74 38 60 b 97 0 38 0 74 0 l 239 0 b 297 42 264 0 297 0 b 219 85 297 85 269 85 l 251 229 l 476 229 l 508 85 b 431 42 458 85 431 85 b 489 0 431 0 464 0 l 631 0 b 690 42 654 0 690 0 z m 456 314 l 272 314 l 364 750 z m 513 1072 b 464 1121 513 1100 492 1121 b 438 1114 464 1121 453 1121 l 253 1031 b 218 990 233 1022 218 1015 b 264 935 218 979 228 935 b 289 942 274 935 281 938 l 474 1024 b 513 1072 507 1039 513 1057 z "},"Â":{"ha":729,"x_min":0,"x_max":0,"o":"m 690 42 b 667 81 690 60 683 74 b 607 85 658 85 628 85 l 439 811 b 364 865 426 864 407 865 b 289 813 324 865 301 865 l 121 85 b 61 82 101 85 69 85 b 38 42 46 74 38 60 b 97 0 38 0 74 0 l 239 0 b 297 42 264 0 297 0 b 219 85 297 85 269 85 l 251 229 l 476 229 l 508 85 b 431 42 458 85 431 85 b 489 0 431 0 464 0 l 631 0 b 690 42 654 0 690 0 z m 456 314 l 272 314 l 364 750 z m 543 1001 l 379 1061 b 353 1061 371 1064 361 1064 l 189 1001 b 214 924 139 983 164 908 l 365 969 l 517 924 b 543 1001 567 908 592 983 z "},"Ã":{"ha":729,"x_min":0,"x_max":0,"o":"m 690 42 b 667 81 690 60 683 74 b 607 85 658 85 628 85 l 439 811 b 364 865 426 864 407 865 b 289 813 324 865 301 865 l 121 85 b 61 82 101 85 69 85 b 38 42 46 74 38 60 b 97 0 38 0 74 0 l 239 0 b 297 42 264 0 297 0 b 219 85 297 85 269 85 l 251 229 l 476 229 l 508 85 b 431 42 458 85 431 85 b 489 0 431 0 464 0 l 631 0 b 690 42 654 0 690 0 z m 456 314 l 272 314 l 364 750 z m 608 1043 b 565 1088 608 1065 588 1088 b 532 1072 550 1088 542 1081 b 435 1011 490 1033 454 1011 b 392 1040 421 1011 410 1024 b 299 1088 374 1058 346 1088 b 190 1042 261 1088 222 1065 b 122 965 163 1021 122 990 b 165 921 122 943 143 921 b 199 936 181 921 189 928 b 296 997 240 975 276 997 b 339 968 310 997 321 985 b 432 921 357 950 385 921 b 540 967 469 921 508 943 b 608 1043 568 988 608 1018 z "},"Ä":{"ha":729,"x_min":0,"x_max":0,"o":"m 690 42 b 667 81 690 60 683 74 b 607 85 658 85 628 85 l 439 811 b 364 865 426 864 407 865 b 289 813 324 865 301 865 l 121 85 b 61 82 101 85 69 85 b 38 42 46 74 38 60 b 97 0 38 0 74 0 l 239 0 b 297 42 264 0 297 0 b 219 85 297 85 269 85 l 251 229 l 476 229 l 508 85 b 431 42 458 85 431 85 b 489 0 431 0 464 0 l 631 0 b 690 42 654 0 690 0 z m 456 314 l 272 314 l 364 750 z m 292 983 b 229 1046 292 1019 264 1046 b 167 983 194 1046 167 1019 b 229 921 167 949 194 921 b 292 983 264 921 292 949 z m 563 983 b 500 1046 563 1019 535 1046 b 438 983 465 1046 438 1019 b 500 921 438 949 465 921 b 563 983 535 921 563 949 z "},"Å":{"ha":729,"x_min":0,"x_max":0,"o":"m 690 42 b 667 81 690 60 683 74 b 607 85 658 85 628 85 l 439 811 b 364 865 426 864 407 865 b 289 813 324 865 301 865 l 121 85 b 61 82 101 85 69 85 b 38 42 46 74 38 60 b 97 0 38 0 74 0 l 239 0 b 297 42 264 0 297 0 b 219 85 297 85 269 85 l 251 229 l 476 229 l 508 85 b 431 42 458 85 431 85 b 489 0 431 0 464 0 l 631 0 b 690 42 654 0 690 0 z m 456 314 l 272 314 l 364 750 z m 431 965 b 365 918 431 939 397 918 b 300 965 333 918 300 939 b 365 1013 300 992 333 1013 b 431 965 397 1013 431 992 z m 500 965 b 365 1065 500 1017 443 1065 b 231 965 288 1065 231 1017 b 365 865 231 914 288 865 b 500 965 443 865 500 914 z "},"Æ":{"ha":729,"x_min":0,"x_max":0,"o":"m 693 57 l 693 181 b 654 238 693 200 693 238 b 615 181 615 238 615 200 l 615 85 l 444 85 l 444 397 l 604 397 b 660 439 625 397 660 397 b 604 482 660 482 626 482 l 444 482 l 444 764 l 604 764 l 604 690 b 643 633 604 671 604 633 b 682 690 682 633 682 671 l 682 792 b 626 849 682 835 674 849 l 236 849 b 181 807 215 849 181 849 b 236 764 181 764 214 764 l 99 85 b 32 42 63 85 32 85 b 88 0 32 0 67 0 l 186 0 b 242 42 207 0 242 0 b 178 85 242 85 210 85 l 213 254 l 367 254 l 367 85 b 311 43 347 85 311 85 b 368 0 311 0 346 0 l 638 0 b 693 57 683 0 693 13 z m 367 339 l 229 339 l 315 764 l 367 764 z "},"Ç":{"ha":729,"x_min":0,"x_max":0,"o":"m 672 233 b 624 279 672 279 639 279 b 576 239 611 279 579 279 b 397 69 567 103 454 69 b 151 425 271 69 151 217 b 396 779 151 632 272 779 b 575 603 479 779 556 715 b 624 557 579 579 582 557 b 672 614 672 557 672 586 l 672 807 b 631 864 672 829 672 864 b 592 840 606 864 599 850 b 571 797 589 835 589 832 b 390 864 525 836 461 864 b 56 425 211 864 56 678 b 379 -15 56 176 204 -7 l 379 -33 b 424 -92 379 -61 379 -89 b 517 -147 485 -94 517 -119 b 326 -203 517 -203 379 -203 b 243 -246 274 -203 243 -203 b 286 -289 243 -278 265 -289 b 613 -147 418 -289 613 -289 b 475 -12 613 -93 574 -32 l 475 -4 b 672 233 593 29 672 131 z "},"È":{"ha":729,"x_min":0,"x_max":0,"o":"m 697 57 l 697 181 b 650 238 697 207 697 238 b 601 181 601 238 601 208 l 601 85 l 231 85 l 231 397 l 413 397 b 461 318 413 340 413 318 b 508 375 508 318 508 349 l 508 504 b 461 561 508 531 508 561 b 413 482 413 561 413 539 l 231 482 l 231 764 l 571 764 l 571 690 b 618 633 571 664 571 633 b 667 690 667 633 667 663 l 667 792 b 611 849 667 835 658 849 l 93 849 b 36 807 72 849 36 849 b 93 764 36 764 72 764 l 135 764 l 135 85 l 93 85 b 36 42 71 85 36 85 b 93 0 36 0 72 0 l 642 0 b 697 57 688 0 697 13 z m 511 990 b 476 1031 511 1015 496 1022 l 292 1114 b 265 1121 276 1121 265 1121 b 217 1072 238 1121 217 1100 b 256 1024 217 1057 222 1039 l 440 942 b 465 935 449 938 456 935 b 511 990 501 935 511 979 z "},"É":{"ha":729,"x_min":0,"x_max":0,"o":"m 697 57 l 697 181 b 650 238 697 207 697 238 b 601 181 601 238 601 208 l 601 85 l 231 85 l 231 397 l 413 397 b 461 318 413 340 413 318 b 508 375 508 318 508 349 l 508 504 b 461 561 508 531 508 561 b 413 482 413 561 413 539 l 231 482 l 231 764 l 571 764 l 571 690 b 618 633 571 664 571 633 b 667 690 667 633 667 663 l 667 792 b 611 849 667 835 658 849 l 93 849 b 36 807 72 849 36 849 b 93 764 36 764 72 764 l 135 764 l 135 85 l 93 85 b 36 42 71 85 36 85 b 93 0 36 0 72 0 l 642 0 b 697 57 688 0 697 13 z m 513 1072 b 464 1121 513 1100 492 1121 b 438 1114 464 1121 453 1121 l 253 1031 b 218 990 233 1022 218 1015 b 264 935 218 979 228 935 b 289 942 274 935 281 938 l 474 1024 b 513 1072 507 1039 513 1057 z "},"Ê":{"ha":729,"x_min":0,"x_max":0,"o":"m 697 57 l 697 181 b 650 238 697 207 697 238 b 601 181 601 238 601 208 l 601 85 l 231 85 l 231 397 l 413 397 b 461 318 413 340 413 318 b 508 375 508 318 508 349 l 508 504 b 461 561 508 531 508 561 b 413 482 413 561 413 539 l 231 482 l 231 764 l 571 764 l 571 690 b 618 633 571 664 571 633 b 667 690 667 633 667 663 l 667 792 b 611 849 667 835 658 849 l 93 849 b 36 807 72 849 36 849 b 93 764 36 764 72 764 l 135 764 l 135 85 l 93 85 b 36 42 71 85 36 85 b 93 0 36 0 72 0 l 642 0 b 697 57 688 0 697 13 z m 543 1001 l 379 1061 b 353 1061 371 1064 361 1064 l 189 1001 b 214 924 139 983 164 908 l 365 969 l 517 924 b 543 1001 567 908 592 983 z "},"Ë":{"ha":729,"x_min":0,"x_max":0,"o":"m 697 57 l 697 181 b 650 238 697 207 697 238 b 601 181 601 238 601 208 l 601 85 l 231 85 l 231 397 l 413 397 b 461 318 413 340 413 318 b 508 375 508 318 508 349 l 508 504 b 461 561 508 531 508 561 b 413 482 413 561 413 539 l 231 482 l 231 764 l 571 764 l 571 690 b 618 633 571 664 571 633 b 667 690 667 633 667 663 l 667 792 b 611 849 667 835 658 849 l 93 849 b 36 807 72 849 36 849 b 93 764 36 764 72 764 l 135 764 l 135 85 l 93 85 b 36 42 71 85 36 85 b 93 0 36 0 72 0 l 642 0 b 697 57 688 0 697 13 z m 292 983 b 229 1046 292 1019 264 1046 b 167 983 194 1046 167 1019 b 229 921 167 949 194 921 b 292 983 264 921 292 949 z m 563 983 b 500 1046 563 1019 535 1046 b 438 983 465 1046 438 1019 b 500 921 438 949 465 921 b 563 983 535 921 563 949 z "},"Ì":{"ha":729,"x_min":0,"x_max":0,"o":"m 619 42 b 563 85 619 85 583 85 l 413 85 l 413 764 l 563 764 b 619 806 583 764 619 764 b 563 849 619 849 583 849 l 167 849 b 110 807 146 849 110 849 b 167 764 110 764 146 764 l 317 764 l 317 85 l 167 85 b 110 43 146 85 110 85 b 167 0 110 0 146 0 l 563 0 b 619 42 583 0 619 0 z m 511 990 b 476 1031 511 1015 496 1022 l 292 1114 b 265 1121 276 1121 265 1121 b 217 1072 238 1121 217 1100 b 256 1024 217 1057 222 1039 l 440 942 b 465 935 449 938 456 935 b 511 990 501 935 511 979 z "},"Í":{"ha":729,"x_min":0,"x_max":0,"o":"m 619 42 b 563 85 619 85 583 85 l 413 85 l 413 764 l 563 764 b 619 806 583 764 619 764 b 563 849 619 849 583 849 l 167 849 b 110 807 146 849 110 849 b 167 764 110 764 146 764 l 317 764 l 317 85 l 167 85 b 110 43 146 85 110 85 b 167 0 110 0 146 0 l 563 0 b 619 42 583 0 619 0 z m 513 1072 b 464 1121 513 1100 492 1121 b 438 1114 464 1121 453 1121 l 253 1031 b 218 990 233 1022 218 1015 b 264 935 218 979 228 935 b 289 942 274 935 281 938 l 474 1024 b 513 1072 507 1039 513 1057 z "},"Î":{"ha":729,"x_min":0,"x_max":0,"o":"m 619 42 b 563 85 619 85 583 85 l 413 85 l 413 764 l 563 764 b 619 806 583 764 619 764 b 563 849 619 849 583 849 l 167 849 b 110 807 146 849 110 849 b 167 764 110 764 146 764 l 317 764 l 317 85 l 167 85 b 110 43 146 85 110 85 b 167 0 110 0 146 0 l 563 0 b 619 42 583 0 619 0 z m 543 1001 l 379 1061 b 353 1061 371 1064 361 1064 l 189 1001 b 214 924 139 983 164 908 l 365 969 l 517 924 b 543 1001 567 908 592 983 z "},"Ï":{"ha":729,"x_min":0,"x_max":0,"o":"m 619 42 b 563 85 619 85 583 85 l 413 85 l 413 764 l 563 764 b 619 806 583 764 619 764 b 563 849 619 849 583 849 l 167 849 b 110 807 146 849 110 849 b 167 764 110 764 146 764 l 317 764 l 317 85 l 167 85 b 110 43 146 85 110 85 b 167 0 110 0 146 0 l 563 0 b 619 42 583 0 619 0 z m 292 983 b 229 1046 292 1019 264 1046 b 167 983 194 1046 167 1019 b 229 921 167 949 194 921 b 292 983 264 921 292 949 z m 563 983 b 500 1046 563 1019 535 1046 b 438 983 465 1046 438 1019 b 500 921 438 949 465 921 b 563 983 535 921 563 949 z "},"Ð":{"ha":729,"x_min":0,"x_max":0,"o":"m 674 418 b 369 849 674 640 554 849 l 83 849 b 26 806 61 849 26 849 b 83 764 26 764 63 764 l 114 764 l 114 468 l 75 468 b 32 425 51 468 32 449 b 75 382 32 400 51 382 l 114 382 l 114 85 l 83 85 b 26 42 61 85 26 85 b 83 0 26 0 63 0 l 369 0 b 674 418 551 0 674 194 z m 578 418 b 343 85 578 256 497 85 l 210 85 l 210 382 l 292 382 b 335 425 315 382 335 400 b 292 468 335 449 315 468 l 210 468 l 210 764 l 343 764 b 578 418 500 764 578 579 z "},"Ñ":{"ha":729,"x_min":0,"x_max":0,"o":"m 689 806 b 633 849 689 849 656 849 l 486 849 b 431 806 464 849 431 849 b 486 764 431 764 465 764 l 521 764 l 521 104 l 519 104 l 264 799 b 189 849 247 844 226 849 l 94 849 b 39 807 74 849 39 849 b 94 764 39 764 72 764 l 129 764 l 129 85 l 94 85 b 39 43 74 85 39 85 b 94 0 39 0 72 0 l 242 0 b 297 42 263 0 297 0 b 242 85 297 85 264 85 l 207 85 l 207 744 l 208 744 l 464 50 b 540 0 482 1 504 0 b 599 57 582 0 599 4 l 599 764 l 633 764 b 689 806 654 764 689 764 z m 608 1043 b 565 1088 608 1065 588 1088 b 532 1072 550 1088 542 1081 b 435 1011 490 1033 454 1011 b 392 1040 421 1011 410 1024 b 299 1088 374 1058 346 1088 b 190 1042 261 1088 222 1065 b 122 965 163 1021 122 990 b 165 921 122 943 143 921 b 199 936 181 921 189 928 b 296 997 240 975 276 997 b 339 968 310 997 321 985 b 432 921 357 950 385 921 b 540 967 469 921 508 943 b 608 1043 568 988 608 1018 z "},"Ò":{"ha":729,"x_min":0,"x_max":0,"o":"m 650 424 b 364 864 650 825 621 864 b 78 424 107 864 78 826 b 364 -15 78 22 107 -15 b 650 424 619 -15 650 22 z m 554 436 b 539 176 554 350 554 251 b 364 69 524 99 488 69 b 190 168 242 69 207 99 b 174 436 174 239 174 360 b 189 681 174 522 174 617 b 364 779 207 763 250 779 b 538 690 468 779 517 767 b 554 436 554 625 554 521 z m 511 990 b 476 1031 511 1015 496 1022 l 292 1114 b 265 1121 276 1121 265 1121 b 217 1072 238 1121 217 1100 b 256 1024 217 1057 222 1039 l 440 942 b 465 935 449 938 456 935 b 511 990 501 935 511 979 z "},"Ó":{"ha":729,"x_min":0,"x_max":0,"o":"m 650 424 b 364 864 650 825 621 864 b 78 424 107 864 78 826 b 364 -15 78 22 107 -15 b 650 424 619 -15 650 22 z m 554 436 b 539 176 554 350 554 251 b 364 69 524 99 488 69 b 190 168 242 69 207 99 b 174 436 174 239 174 360 b 189 681 174 522 174 617 b 364 779 207 763 250 779 b 538 690 468 779 517 767 b 554 436 554 625 554 521 z m 513 1072 b 464 1121 513 1100 492 1121 b 438 1114 464 1121 453 1121 l 253 1031 b 218 990 233 1022 218 1015 b 264 935 218 979 228 935 b 289 942 274 935 281 938 l 474 1024 b 513 1072 507 1039 513 1057 z "},"Ô":{"ha":729,"x_min":0,"x_max":0,"o":"m 650 424 b 364 864 650 825 621 864 b 78 424 107 864 78 826 b 364 -15 78 22 107 -15 b 650 424 619 -15 650 22 z m 554 436 b 539 176 554 350 554 251 b 364 69 524 99 488 69 b 190 168 242 69 207 99 b 174 436 174 239 174 360 b 189 681 174 522 174 617 b 364 779 207 763 250 779 b 538 690 468 779 517 767 b 554 436 554 625 554 521 z m 543 1001 l 379 1061 b 353 1061 371 1064 361 1064 l 189 1001 b 214 924 139 983 164 908 l 365 969 l 517 924 b 543 1001 567 908 592 983 z "},"Õ":{"ha":729,"x_min":0,"x_max":0,"o":"m 650 424 b 364 864 650 825 621 864 b 78 424 107 864 78 826 b 364 -15 78 22 107 -15 b 650 424 619 -15 650 22 z m 554 436 b 539 176 554 350 554 251 b 364 69 524 99 488 69 b 190 168 242 69 207 99 b 174 436 174 239 174 360 b 189 681 174 522 174 617 b 364 779 207 763 250 779 b 538 690 468 779 517 767 b 554 436 554 625 554 521 z m 608 1043 b 565 1088 608 1065 588 1088 b 532 1072 550 1088 542 1081 b 435 1011 490 1033 454 1011 b 392 1040 421 1011 410 1024 b 299 1088 374 1058 346 1088 b 190 1042 261 1088 222 1065 b 122 965 163 1021 122 990 b 165 921 122 943 143 921 b 199 936 181 921 189 928 b 296 997 240 975 276 997 b 339 968 310 997 321 985 b 432 921 357 950 385 921 b 540 967 469 921 508 943 b 608 1043 568 988 608 1018 z "},"Ö":{"ha":729,"x_min":0,"x_max":0,"o":"m 650 424 b 364 864 650 825 621 864 b 78 424 107 864 78 826 b 364 -15 78 22 107 -15 b 650 424 619 -15 650 22 z m 554 436 b 539 176 554 350 554 251 b 364 69 524 99 488 69 b 190 168 242 69 207 99 b 174 436 174 239 174 360 b 189 681 174 522 174 617 b 364 779 207 763 250 779 b 538 690 468 779 517 767 b 554 436 554 625 554 521 z m 292 983 b 229 1046 292 1019 264 1046 b 167 983 194 1046 167 1019 b 229 921 167 949 194 921 b 292 983 264 921 292 949 z m 563 983 b 500 1046 563 1019 535 1046 b 438 983 465 1046 438 1019 b 500 921 438 949 465 921 b 563 983 535 921 563 949 z "},"×":{"ha":729,"x_min":0,"x_max":0,"o":"m 585 204 b 574 285 619 239 585 272 l 432 425 l 572 564 b 583 644 583 576 618 611 b 503 633 550 679 515 644 l 364 493 l 224 635 b 143 646 211 646 178 681 b 154 565 108 611 143 578 l 296 425 l 156 286 b 144 206 144 274 110 239 b 225 217 178 171 213 206 l 364 357 l 504 215 b 585 204 517 204 550 169 z "},"Ø":{"ha":729,"x_min":0,"x_max":0,"o":"m 650 424 b 544 843 650 708 635 804 b 568 925 568 914 568 925 b 524 967 568 964 524 967 b 482 925 494 967 488 943 l 461 861 b 364 864 425 864 396 864 b 78 424 107 864 78 826 b 85 204 78 361 78 271 b 183 6 96 96 114 36 b 160 -76 160 -65 160 -76 b 204 -118 160 -115 204 -118 b 246 -76 233 -118 240 -94 l 267 -12 b 364 -15 303 -15 332 -15 b 650 424 619 -15 650 22 z m 572 425 b 554 163 572 340 572 229 b 364 69 531 79 474 69 b 310 71 328 69 325 69 b 294 74 303 71 294 74 l 514 750 b 572 425 543 728 572 707 z m 433 775 l 214 99 b 156 424 185 121 156 142 b 174 686 156 508 156 619 b 364 779 197 769 254 779 b 418 778 400 779 403 779 b 433 775 425 778 433 775 z "},"Ù":{"ha":729,"x_min":0,"x_max":0,"o":"m 722 807 b 665 849 722 849 686 849 l 486 849 b 429 807 465 849 429 849 b 486 764 429 764 465 764 l 528 764 l 528 290 b 364 69 528 142 436 69 b 200 290 290 69 200 142 l 200 764 l 242 764 b 299 807 263 764 299 764 b 242 849 299 849 263 849 l 63 849 b 6 807 42 849 6 849 b 63 764 6 764 42 764 l 104 764 l 104 283 b 364 -15 104 113 225 -15 b 624 283 503 -15 624 113 l 624 764 l 665 764 b 722 807 688 764 722 764 z m 511 990 b 476 1031 511 1015 496 1022 l 292 1114 b 265 1121 276 1121 265 1121 b 217 1072 238 1121 217 1100 b 256 1024 217 1057 222 1039 l 440 942 b 465 935 449 938 456 935 b 511 990 501 935 511 979 z "},"Ú":{"ha":729,"x_min":0,"x_max":0,"o":"m 722 807 b 665 849 722 849 686 849 l 486 849 b 429 807 465 849 429 849 b 486 764 429 764 465 764 l 528 764 l 528 290 b 364 69 528 142 436 69 b 200 290 290 69 200 142 l 200 764 l 242 764 b 299 807 263 764 299 764 b 242 849 299 849 263 849 l 63 849 b 6 807 42 849 6 849 b 63 764 6 764 42 764 l 104 764 l 104 283 b 364 -15 104 113 225 -15 b 624 283 503 -15 624 113 l 624 764 l 665 764 b 722 807 688 764 722 764 z m 513 1072 b 464 1121 513 1100 492 1121 b 438 1114 464 1121 453 1121 l 253 1031 b 218 990 233 1022 218 1015 b 264 935 218 979 228 935 b 289 942 274 935 281 938 l 474 1024 b 513 1072 507 1039 513 1057 z "},"Û":{"ha":729,"x_min":0,"x_max":0,"o":"m 722 807 b 665 849 722 849 686 849 l 486 849 b 429 807 465 849 429 849 b 486 764 429 764 465 764 l 528 764 l 528 290 b 364 69 528 142 436 69 b 200 290 290 69 200 142 l 200 764 l 242 764 b 299 807 263 764 299 764 b 242 849 299 849 263 849 l 63 849 b 6 807 42 849 6 849 b 63 764 6 764 42 764 l 104 764 l 104 283 b 364 -15 104 113 225 -15 b 624 283 503 -15 624 113 l 624 764 l 665 764 b 722 807 688 764 722 764 z m 543 1001 l 379 1061 b 353 1061 371 1064 361 1064 l 189 1001 b 214 924 139 983 164 908 l 365 969 l 517 924 b 543 1001 567 908 592 983 z "},"Ü":{"ha":729,"x_min":0,"x_max":0,"o":"m 722 807 b 665 849 722 849 686 849 l 486 849 b 429 807 465 849 429 849 b 486 764 429 764 465 764 l 528 764 l 528 290 b 364 69 528 142 436 69 b 200 290 290 69 200 142 l 200 764 l 242 764 b 299 807 263 764 299 764 b 242 849 299 849 263 849 l 63 849 b 6 807 42 849 6 849 b 63 764 6 764 42 764 l 104 764 l 104 283 b 364 -15 104 113 225 -15 b 624 283 503 -15 624 113 l 624 764 l 665 764 b 722 807 688 764 722 764 z m 292 983 b 229 1046 292 1019 264 1046 b 167 983 194 1046 167 1019 b 229 921 167 949 194 921 b 292 983 264 921 292 949 z m 563 983 b 500 1046 563 1019 535 1046 b 438 983 465 1046 438 1019 b 500 921 438 949 465 921 b 563 983 535 921 563 949 z "},"Ý":{"ha":729,"x_min":0,"x_max":0,"o":"m 701 806 b 646 849 701 849 668 849 l 501 849 b 446 807 481 849 446 849 b 510 764 446 764 476 764 l 364 436 b 218 764 344 507 232 735 b 282 807 251 764 282 764 b 226 849 282 849 247 849 l 82 849 b 26 807 61 849 26 849 b 82 764 26 764 60 764 l 111 764 l 317 339 l 317 85 l 282 85 b 226 43 261 85 226 85 b 282 0 226 0 260 0 l 447 0 b 503 42 468 0 503 0 b 447 85 503 85 469 85 l 413 85 l 413 339 l 617 764 l 646 764 b 701 806 667 764 701 764 z m 513 1072 b 464 1121 513 1100 492 1121 b 438 1114 464 1121 453 1121 l 253 1031 b 218 990 233 1022 218 1015 b 264 935 218 979 228 935 b 289 942 274 935 281 938 l 474 1024 b 513 1072 507 1039 513 1057 z "},"Þ":{"ha":729,"x_min":0,"x_max":0,"o":"m 653 425 b 390 679 653 554 550 679 l 217 679 l 217 764 l 251 764 b 307 806 272 764 307 764 b 251 849 307 849 274 849 l 86 849 b 31 806 64 849 31 849 b 86 764 31 764 65 764 l 121 764 l 121 85 l 86 85 b 31 42 64 85 31 85 b 86 0 31 0 65 0 l 251 0 b 307 42 272 0 307 0 b 251 85 307 85 274 85 l 217 85 l 217 171 l 390 171 b 653 425 551 171 653 296 z m 557 425 b 364 256 557 351 497 256 l 217 256 l 217 594 l 364 594 b 557 425 497 594 557 499 z "},"ß":{"ha":729,"x_min":0,"x_max":0,"o":"m 688 243 b 532 549 688 311 667 454 b 647 706 628 600 647 664 b 401 857 647 796 535 857 b 154 696 313 857 154 825 l 154 599 l 79 599 b 24 556 57 599 24 599 b 79 514 24 514 58 514 l 154 514 l 154 85 l 79 85 b 24 42 57 85 24 85 b 79 0 24 0 58 0 l 194 0 b 250 57 240 0 250 13 l 250 686 b 297 753 250 714 250 732 b 400 772 329 767 364 772 b 551 704 486 772 551 738 b 369 599 551 674 511 603 b 331 556 353 597 331 588 b 364 514 331 521 364 514 b 592 243 551 503 592 319 b 433 76 592 136 507 76 b 403 82 424 76 411 78 b 393 132 403 115 403 118 b 349 154 383 144 367 154 b 292 96 319 154 292 133 b 433 -8 292 44 339 -8 b 688 243 561 -8 688 90 z "},"à":{"ha":729,"x_min":0,"x_max":0,"o":"m 728 43 b 672 85 728 85 693 85 b 589 96 614 85 600 92 l 589 396 b 314 611 589 494 514 611 b 113 510 254 611 113 611 b 175 446 113 468 142 446 b 236 510 196 446 235 458 b 265 525 236 521 238 522 b 315 526 285 526 303 526 b 493 385 421 526 493 483 b 76 178 247 381 76 311 b 306 -8 76 82 164 -8 b 508 44 357 -8 443 1 b 658 0 539 1 606 0 b 728 43 697 0 728 0 z m 493 186 b 439 100 493 154 493 125 b 315 76 389 76 326 76 b 172 178 229 76 172 124 b 493 303 172 246 292 297 z m 511 733 b 476 774 511 758 496 765 l 292 857 b 265 864 276 864 265 864 b 217 815 238 864 217 843 b 256 767 217 800 222 782 l 440 685 b 465 678 449 681 456 678 b 511 733 501 678 511 722 z "},"á":{"ha":729,"x_min":0,"x_max":0,"o":"m 728 43 b 672 85 728 85 693 85 b 589 96 614 85 600 92 l 589 396 b 314 611 589 494 514 611 b 113 510 254 611 113 611 b 175 446 113 468 142 446 b 236 510 196 446 235 458 b 265 525 236 521 238 522 b 315 526 285 526 303 526 b 493 385 421 526 493 483 b 76 178 247 381 76 311 b 306 -8 76 82 164 -8 b 508 44 357 -8 443 1 b 658 0 539 1 606 0 b 728 43 697 0 728 0 z m 493 186 b 439 100 493 154 493 125 b 315 76 389 76 326 76 b 172 178 229 76 172 124 b 493 303 172 246 292 297 z m 513 815 b 464 864 513 843 492 864 b 438 857 464 864 453 864 l 253 774 b 218 733 233 765 218 758 b 264 678 218 722 228 678 b 289 685 274 678 281 681 l 474 767 b 513 815 507 782 513 800 z "},"â":{"ha":729,"x_min":0,"x_max":0,"o":"m 728 43 b 672 85 728 85 693 85 b 589 96 614 85 600 92 l 589 396 b 314 611 589 494 514 611 b 113 510 254 611 113 611 b 175 446 113 468 142 446 b 236 510 196 446 235 458 b 265 525 236 521 238 522 b 315 526 285 526 303 526 b 493 385 421 526 493 483 b 76 178 247 381 76 311 b 306 -8 76 82 164 -8 b 508 44 357 -8 443 1 b 658 0 539 1 606 0 b 728 43 697 0 728 0 z m 493 186 b 439 100 493 154 493 125 b 315 76 389 76 326 76 b 172 178 229 76 172 124 b 493 303 172 246 292 297 z m 551 753 l 385 858 b 343 858 372 867 356 867 l 179 754 b 222 685 133 725 176 657 l 365 771 l 508 685 b 551 753 554 657 597 724 z "},"ã":{"ha":729,"x_min":0,"x_max":0,"o":"m 728 43 b 672 85 728 85 693 85 b 589 96 614 85 600 92 l 589 396 b 314 611 589 494 514 611 b 113 510 254 611 113 611 b 175 446 113 468 142 446 b 236 510 196 446 235 458 b 265 525 236 521 238 522 b 315 526 285 526 303 526 b 493 385 421 526 493 483 b 76 178 247 381 76 311 b 306 -8 76 82 164 -8 b 508 44 357 -8 443 1 b 658 0 539 1 606 0 b 728 43 697 0 728 0 z m 493 186 b 439 100 493 154 493 125 b 315 76 389 76 326 76 b 172 178 229 76 172 124 b 493 303 172 246 292 297 z m 608 810 b 565 854 608 832 588 854 b 532 839 550 854 542 847 b 435 778 490 800 454 778 b 392 807 421 778 410 790 b 299 854 374 825 346 854 b 190 808 261 854 222 832 b 122 732 163 788 122 757 b 165 688 122 710 143 688 b 199 703 181 688 189 694 b 296 764 240 742 276 764 b 339 735 310 764 321 751 b 432 688 357 717 385 688 b 540 733 469 688 508 710 b 608 810 568 754 608 785 z "},"ä":{"ha":729,"x_min":0,"x_max":0,"o":"m 728 43 b 672 85 728 85 693 85 b 589 96 614 85 600 92 l 589 396 b 314 611 589 494 514 611 b 113 510 254 611 113 611 b 175 446 113 468 142 446 b 236 510 196 446 235 458 b 265 525 236 521 238 522 b 315 526 285 526 303 526 b 493 385 421 526 493 483 b 76 178 247 381 76 311 b 306 -8 76 82 164 -8 b 508 44 357 -8 443 1 b 658 0 539 1 606 0 b 728 43 697 0 728 0 z m 493 186 b 439 100 493 154 493 125 b 315 76 389 76 326 76 b 172 178 229 76 172 124 b 493 303 172 246 292 297 z m 313 771 b 250 833 313 807 285 833 b 188 771 215 833 188 807 b 250 708 188 736 215 708 b 313 771 285 708 313 736 z m 542 771 b 479 833 542 807 514 833 b 417 771 444 833 417 807 b 479 708 417 736 444 708 b 542 771 514 708 542 736 z "},"å":{"ha":729,"x_min":0,"x_max":0,"o":"m 728 43 b 672 85 728 85 693 85 b 589 96 614 85 600 92 l 589 396 b 314 611 589 494 514 611 b 113 510 254 611 113 611 b 175 446 113 468 142 446 b 236 510 196 446 235 458 b 265 525 236 521 238 522 b 315 526 285 526 303 526 b 493 385 421 526 493 483 b 76 178 247 381 76 311 b 306 -8 76 82 164 -8 b 508 44 357 -8 443 1 b 658 0 539 1 606 0 b 728 43 697 0 728 0 z m 493 186 b 439 100 493 154 493 125 b 315 76 389 76 326 76 b 172 178 229 76 172 124 b 493 303 172 246 292 297 z m 431 783 b 365 736 431 757 397 736 b 300 783 333 736 300 757 b 365 831 300 810 333 831 b 431 783 397 831 431 810 z m 500 783 b 365 883 500 835 443 883 b 231 783 288 883 231 835 b 365 683 231 732 288 683 b 500 783 443 683 500 732 z "},"æ":{"ha":729,"x_min":0,"x_max":0,"o":"m 700 151 b 661 190 700 172 683 190 b 622 156 631 190 625 164 b 547 76 608 101 578 76 b 406 265 486 76 417 147 l 644 265 b 700 324 694 265 700 281 b 526 611 700 508 626 611 b 378 511 478 611 419 583 b 218 611 344 571 293 611 b 56 510 90 611 56 556 b 118 446 56 468 85 446 b 179 508 129 446 175 450 b 178 521 179 513 178 517 b 214 526 178 526 197 526 b 325 390 282 526 325 478 l 325 344 b 46 164 169 343 46 279 b 204 -8 46 82 104 -8 b 383 88 274 -8 347 26 b 540 -8 393 74 450 -8 b 700 151 658 -8 700 124 z m 621 349 l 406 349 b 526 526 414 438 467 526 b 621 349 568 526 614 482 z m 325 263 b 324 186 324 247 324 226 b 293 106 324 160 324 131 b 213 76 261 79 222 76 b 124 165 156 76 124 124 b 325 263 124 225 215 258 z "},"ç":{"ha":729,"x_min":0,"x_max":0,"o":"m 647 151 b 599 190 647 190 607 190 b 553 160 576 190 563 188 b 415 76 544 142 518 76 b 197 300 297 76 197 174 b 424 526 197 367 236 526 b 507 514 453 526 507 526 b 568 446 508 465 535 446 b 631 510 601 446 631 469 b 424 611 631 611 486 611 b 101 300 185 611 101 422 b 379 -7 101 142 218 7 l 379 -33 b 424 -92 379 -61 379 -89 b 517 -147 485 -94 517 -119 b 326 -203 517 -203 379 -203 b 243 -246 274 -203 243 -203 b 286 -289 243 -278 265 -289 b 613 -147 418 -289 613 -289 b 475 -12 613 -93 574 -32 l 475 -1 b 647 151 611 25 647 131 z "},"è":{"ha":729,"x_min":0,"x_max":0,"o":"m 644 151 b 596 190 644 190 604 190 b 550 160 571 190 560 186 b 406 76 519 89 444 76 b 175 265 301 76 197 146 l 589 265 b 644 317 618 265 644 265 b 375 611 644 475 556 611 b 76 301 210 611 76 472 b 396 -8 76 132 217 -8 b 644 151 579 -8 644 117 z m 546 349 l 176 349 b 375 526 196 450 278 526 b 546 349 447 526 533 492 z m 511 733 b 476 774 511 758 496 765 l 292 857 b 265 864 276 864 265 864 b 217 815 238 864 217 843 b 256 767 217 800 222 782 l 440 685 b 465 678 449 681 456 678 b 511 733 501 678 511 722 z "},"é":{"ha":729,"x_min":0,"x_max":0,"o":"m 644 151 b 596 190 644 190 604 190 b 550 160 571 190 560 186 b 406 76 519 89 444 76 b 175 265 301 76 197 146 l 589 265 b 644 317 618 265 644 265 b 375 611 644 475 556 611 b 76 301 210 611 76 472 b 396 -8 76 132 217 -8 b 644 151 579 -8 644 117 z m 546 349 l 176 349 b 375 526 196 450 278 526 b 546 349 447 526 533 492 z m 513 815 b 464 864 513 843 492 864 b 438 857 464 864 453 864 l 253 774 b 218 733 233 765 218 758 b 264 678 218 722 228 678 b 289 685 274 678 281 681 l 474 767 b 513 815 507 782 513 800 z "},"ê":{"ha":729,"x_min":0,"x_max":0,"o":"m 644 151 b 596 190 644 190 604 190 b 550 160 571 190 560 186 b 406 76 519 89 444 76 b 175 265 301 76 197 146 l 589 265 b 644 317 618 265 644 265 b 375 611 644 475 556 611 b 76 301 210 611 76 472 b 396 -8 76 132 217 -8 b 644 151 579 -8 644 117 z m 546 349 l 176 349 b 375 526 196 450 278 526 b 546 349 447 526 533 492 z m 551 753 l 385 858 b 343 858 372 867 356 867 l 179 754 b 222 685 133 725 176 657 l 365 771 l 508 685 b 551 753 554 657 597 724 z "},"ë":{"ha":729,"x_min":0,"x_max":0,"o":"m 644 151 b 596 190 644 190 604 190 b 550 160 571 190 560 186 b 406 76 519 89 444 76 b 175 265 301 76 197 146 l 589 265 b 644 317 618 265 644 265 b 375 611 644 475 556 611 b 76 301 210 611 76 472 b 396 -8 76 132 217 -8 b 644 151 579 -8 644 117 z m 546 349 l 176 349 b 375 526 196 450 278 526 b 546 349 447 526 533 492 z m 313 771 b 250 833 313 807 285 833 b 188 771 215 833 188 807 b 250 708 188 736 215 708 b 313 771 285 708 313 736 z m 542 771 b 479 833 542 807 514 833 b 417 771 444 833 417 807 b 479 708 417 736 444 708 b 542 771 514 708 542 736 z "},"ì":{"ha":729,"x_min":0,"x_max":0,"o":"m 632 42 b 575 85 632 85 596 85 l 429 85 l 429 542 b 374 599 429 585 421 599 l 176 599 b 119 557 156 599 119 599 b 176 514 119 514 156 514 l 333 514 l 333 85 l 165 85 b 108 42 143 85 108 85 b 165 0 108 0 144 0 l 575 0 b 632 42 596 0 632 0 z m 511 733 b 476 774 511 758 496 765 l 292 857 b 265 864 276 864 265 864 b 217 815 238 864 217 843 b 256 767 217 800 222 782 l 440 685 b 465 678 449 681 456 678 b 511 733 501 678 511 722 z "},"í":{"ha":729,"x_min":0,"x_max":0,"o":"m 632 42 b 575 85 632 85 596 85 l 429 85 l 429 542 b 374 599 429 585 421 599 l 176 599 b 119 557 156 599 119 599 b 176 514 119 514 156 514 l 333 514 l 333 85 l 165 85 b 108 42 143 85 108 85 b 165 0 108 0 144 0 l 575 0 b 632 42 596 0 632 0 z m 513 815 b 464 864 513 843 492 864 b 438 857 464 864 453 864 l 253 774 b 218 733 233 765 218 758 b 264 678 218 722 228 678 b 289 685 274 678 281 681 l 474 767 b 513 815 507 782 513 800 z "},"î":{"ha":729,"x_min":0,"x_max":0,"o":"m 632 42 b 575 85 632 85 596 85 l 429 85 l 429 542 b 374 599 429 585 421 599 l 176 599 b 119 557 156 599 119 599 b 176 514 119 514 156 514 l 333 514 l 333 85 l 165 85 b 108 42 143 85 108 85 b 165 0 108 0 144 0 l 575 0 b 632 42 596 0 632 0 z m 551 753 l 385 858 b 343 858 372 867 356 867 l 179 754 b 222 685 133 725 176 657 l 365 771 l 508 685 b 551 753 554 657 597 724 z "},"ï":{"ha":729,"x_min":0,"x_max":0,"o":"m 632 42 b 575 85 632 85 596 85 l 429 85 l 429 542 b 374 599 429 585 421 599 l 176 599 b 119 557 156 599 119 599 b 176 514 119 514 156 514 l 333 514 l 333 85 l 165 85 b 108 42 143 85 108 85 b 165 0 108 0 144 0 l 575 0 b 632 42 596 0 632 0 z m 313 771 b 250 833 313 807 285 833 b 188 771 215 833 188 807 b 250 708 188 736 215 708 b 313 771 285 708 313 736 z m 542 771 b 479 833 542 807 514 833 b 417 771 444 833 417 807 b 479 708 417 736 444 708 b 542 771 514 708 542 736 z "},"ð":{"ha":729,"x_min":0,"x_max":0,"o":"m 649 300 b 532 756 649 471 615 647 l 563 786 b 574 815 569 793 574 804 b 531 858 574 840 554 858 b 500 846 519 858 508 854 l 471 815 b 328 858 431 843 383 858 b 285 815 304 858 285 839 b 328 772 285 792 304 772 b 411 753 360 772 388 765 l 388 729 b 375 699 381 721 375 711 b 418 656 375 675 394 656 b 450 669 431 656 442 661 l 475 696 b 531 551 501 657 519 608 b 364 611 483 589 426 611 b 79 300 208 611 79 474 b 364 -8 79 124 211 -8 b 564 81 440 -8 511 25 b 649 300 619 139 649 218 z m 553 310 b 364 76 553 181 467 76 b 175 310 261 76 175 181 b 364 526 175 436 265 526 b 553 310 464 526 553 436 z "},"ñ":{"ha":729,"x_min":0,"x_max":0,"o":"m 711 42 b 654 85 711 85 676 85 l 593 85 l 593 407 b 413 607 593 547 522 607 b 231 533 319 607 257 560 b 175 599 231 578 231 599 l 74 599 b 17 556 51 599 17 599 b 72 514 17 514 53 514 l 135 514 l 135 85 l 74 85 b 17 42 51 85 17 85 b 72 0 17 0 53 0 l 293 0 b 349 42 313 0 349 0 b 292 85 349 85 314 85 l 231 85 l 231 331 b 404 522 231 469 333 522 b 497 400 478 522 497 483 l 497 85 l 443 85 b 386 42 421 85 386 85 b 443 0 386 0 424 0 l 656 0 b 711 42 675 0 711 0 z m 608 810 b 565 854 608 832 588 854 b 532 839 550 854 542 847 b 435 778 490 800 454 778 b 392 807 421 778 410 790 b 299 854 374 825 346 854 b 190 808 261 854 222 832 b 122 732 163 788 122 757 b 165 688 122 710 143 688 b 199 703 181 688 189 694 b 296 764 240 742 276 764 b 339 735 310 764 321 751 b 432 688 357 717 385 688 b 540 733 469 688 508 710 b 608 810 568 754 608 785 z "},"ò":{"ha":729,"x_min":0,"x_max":0,"o":"m 649 300 b 364 611 649 474 519 611 b 79 300 208 611 79 474 b 364 -8 79 124 211 -8 b 649 300 517 -8 649 125 z m 553 310 b 364 76 553 181 467 76 b 175 310 261 76 175 181 b 364 526 175 436 265 526 b 553 310 464 526 553 436 z m 511 733 b 476 774 511 758 496 765 l 292 857 b 265 864 276 864 265 864 b 217 815 238 864 217 843 b 256 767 217 800 222 782 l 440 685 b 465 678 449 681 456 678 b 511 733 501 678 511 722 z "},"ó":{"ha":729,"x_min":0,"x_max":0,"o":"m 649 300 b 364 611 649 474 519 611 b 79 300 208 611 79 474 b 364 -8 79 124 211 -8 b 649 300 517 -8 649 125 z m 553 310 b 364 76 553 181 467 76 b 175 310 261 76 175 181 b 364 526 175 436 265 526 b 553 310 464 526 553 436 z m 513 815 b 464 864 513 843 492 864 b 438 857 464 864 453 864 l 253 774 b 218 733 233 765 218 758 b 264 678 218 722 228 678 b 289 685 274 678 281 681 l 474 767 b 513 815 507 782 513 800 z "},"ô":{"ha":729,"x_min":0,"x_max":0,"o":"m 649 300 b 364 611 649 474 519 611 b 79 300 208 611 79 474 b 364 -8 79 124 211 -8 b 649 300 517 -8 649 125 z m 553 310 b 364 76 553 181 467 76 b 175 310 261 76 175 181 b 364 526 175 436 265 526 b 553 310 464 526 553 436 z m 551 753 l 385 858 b 343 858 372 867 356 867 l 179 754 b 222 685 133 725 176 657 l 365 771 l 508 685 b 551 753 554 657 597 724 z "},"õ":{"ha":729,"x_min":0,"x_max":0,"o":"m 649 300 b 364 611 649 474 519 611 b 79 300 208 611 79 474 b 364 -8 79 124 211 -8 b 649 300 517 -8 649 125 z m 553 310 b 364 76 553 181 467 76 b 175 310 261 76 175 181 b 364 526 175 436 265 526 b 553 310 464 526 553 436 z m 608 810 b 565 854 608 832 588 854 b 532 839 550 854 542 847 b 435 778 490 800 454 778 b 392 807 421 778 410 790 b 299 854 374 825 346 854 b 190 808 261 854 222 832 b 122 732 163 788 122 757 b 165 688 122 710 143 688 b 199 703 181 688 189 694 b 296 764 240 742 276 764 b 339 735 310 764 321 751 b 432 688 357 717 385 688 b 540 733 469 688 508 710 b 608 810 568 754 608 785 z "},"ö":{"ha":729,"x_min":0,"x_max":0,"o":"m 649 300 b 364 611 649 474 519 611 b 79 300 208 611 79 474 b 364 -8 79 124 211 -8 b 649 300 517 -8 649 125 z m 553 310 b 364 76 553 181 467 76 b 175 310 261 76 175 181 b 364 526 175 436 265 526 b 553 310 464 526 553 436 z m 313 771 b 250 833 313 807 285 833 b 188 771 215 833 188 807 b 250 708 188 736 215 708 b 313 771 285 708 313 736 z m 542 771 b 479 833 542 807 514 833 b 417 771 444 833 417 807 b 479 708 417 736 444 708 b 542 771 514 708 542 736 z "},"÷":{"ha":729,"x_min":0,"x_max":0,"o":"m 675 425 b 604 474 675 474 624 474 l 124 474 b 53 425 104 474 53 474 b 115 376 53 376 99 376 l 613 376 b 675 425 629 376 675 376 z m 450 718 b 364 806 450 769 408 806 b 276 719 311 806 276 763 b 363 632 276 668 318 632 b 450 718 415 632 450 675 z m 450 129 b 364 217 450 181 408 217 b 276 131 311 217 276 174 b 363 43 276 79 318 43 b 450 129 415 43 450 86 z "},"ø":{"ha":729,"x_min":0,"x_max":0,"o":"m 668 751 b 624 793 668 779 640 793 b 586 767 601 793 593 779 l 482 586 b 364 611 458 596 419 611 b 63 300 196 611 63 469 b 175 58 63 219 93 129 l 83 -100 b 60 -153 74 -117 60 -142 b 104 -194 60 -181 88 -194 b 142 -168 126 -194 136 -179 l 249 15 b 364 -8 296 -6 339 -8 b 665 300 528 -8 665 128 b 554 542 665 393 622 479 l 658 722 b 668 751 668 739 668 747 z m 588 300 b 364 76 588 175 486 76 b 292 88 326 76 318 79 l 511 469 b 588 300 569 418 588 350 z m 439 514 l 217 131 b 140 300 156 188 140 251 b 364 526 140 425 242 526 b 439 514 403 526 411 524 z "},"ù":{"ha":729,"x_min":0,"x_max":0,"o":"m 711 43 b 656 85 711 85 675 85 l 593 85 l 593 542 b 538 599 593 585 585 599 l 436 599 b 379 556 414 599 379 599 b 435 514 379 514 415 514 l 497 514 l 497 218 b 340 76 497 93 385 76 b 231 167 231 76 231 122 l 231 542 b 175 599 231 585 222 599 l 74 599 b 17 556 51 599 17 599 b 72 514 17 514 53 514 l 135 514 l 135 158 b 332 -8 135 25 231 -8 b 497 44 389 -8 446 6 b 553 0 499 0 528 0 l 654 0 b 711 43 676 0 711 0 z m 511 733 b 476 774 511 758 496 765 l 292 857 b 265 864 276 864 265 864 b 217 815 238 864 217 843 b 256 767 217 800 222 782 l 440 685 b 465 678 449 681 456 678 b 511 733 501 678 511 722 z "},"ú":{"ha":729,"x_min":0,"x_max":0,"o":"m 711 43 b 656 85 711 85 675 85 l 593 85 l 593 542 b 538 599 593 585 585 599 l 436 599 b 379 556 414 599 379 599 b 435 514 379 514 415 514 l 497 514 l 497 218 b 340 76 497 93 385 76 b 231 167 231 76 231 122 l 231 542 b 175 599 231 585 222 599 l 74 599 b 17 556 51 599 17 599 b 72 514 17 514 53 514 l 135 514 l 135 158 b 332 -8 135 25 231 -8 b 497 44 389 -8 446 6 b 553 0 499 0 528 0 l 654 0 b 711 43 676 0 711 0 z m 513 815 b 464 864 513 843 492 864 b 438 857 464 864 453 864 l 253 774 b 218 733 233 765 218 758 b 264 678 218 722 228 678 b 289 685 274 678 281 681 l 474 767 b 513 815 507 782 513 800 z "},"û":{"ha":729,"x_min":0,"x_max":0,"o":"m 711 43 b 656 85 711 85 675 85 l 593 85 l 593 542 b 538 599 593 585 585 599 l 436 599 b 379 556 414 599 379 599 b 435 514 379 514 415 514 l 497 514 l 497 218 b 340 76 497 93 385 76 b 231 167 231 76 231 122 l 231 542 b 175 599 231 585 222 599 l 74 599 b 17 556 51 599 17 599 b 72 514 17 514 53 514 l 135 514 l 135 158 b 332 -8 135 25 231 -8 b 497 44 389 -8 446 6 b 553 0 499 0 528 0 l 654 0 b 711 43 676 0 711 0 z m 551 753 l 385 858 b 343 858 372 867 356 867 l 179 754 b 222 685 133 725 176 657 l 365 771 l 508 685 b 551 753 554 657 597 724 z "},"ü":{"ha":729,"x_min":0,"x_max":0,"o":"m 711 43 b 656 85 711 85 675 85 l 593 85 l 593 542 b 538 599 593 585 585 599 l 436 599 b 379 556 414 599 379 599 b 435 514 379 514 415 514 l 497 514 l 497 218 b 340 76 497 93 385 76 b 231 167 231 76 231 122 l 231 542 b 175 599 231 585 222 599 l 74 599 b 17 556 51 599 17 599 b 72 514 17 514 53 514 l 135 514 l 135 158 b 332 -8 135 25 231 -8 b 497 44 389 -8 446 6 b 553 0 499 0 528 0 l 654 0 b 711 43 676 0 711 0 z m 313 771 b 250 833 313 807 285 833 b 188 771 215 833 188 807 b 250 708 188 736 215 708 b 313 771 285 708 313 736 z m 542 771 b 479 833 542 807 514 833 b 417 771 444 833 417 807 b 479 708 417 736 444 708 b 542 771 514 708 542 736 z "},"ý":{"ha":729,"x_min":0,"x_max":0,"o":"m 694 556 b 639 599 694 599 661 599 l 476 599 b 421 557 456 599 421 599 b 476 514 421 514 454 514 l 515 514 l 415 218 b 379 99 397 167 389 142 l 378 99 b 349 181 371 125 358 154 l 219 514 l 254 514 b 310 556 275 514 310 514 b 254 599 310 599 276 599 l 92 599 b 36 556 69 599 36 599 b 92 514 36 514 71 514 l 135 514 l 332 18 b 338 0 338 4 338 0 b 285 -151 338 0 303 -117 b 174 -232 244 -228 194 -231 b 181 -201 174 -232 181 -219 b 121 -142 181 -167 156 -142 b 60 -203 83 -142 60 -167 b 175 -317 60 -261 107 -317 b 382 -118 314 -317 376 -133 l 597 514 l 639 514 b 694 556 660 514 694 514 z m 513 815 b 464 864 513 843 492 864 b 438 857 464 864 453 864 l 253 774 b 218 733 233 765 218 758 b 264 678 218 722 228 678 b 289 685 274 678 281 681 l 474 767 b 513 815 507 782 513 800 z "},"þ":{"ha":729,"x_min":0,"x_max":0,"o":"m 678 300 b 407 607 678 471 554 607 b 231 539 340 607 278 582 l 231 792 b 175 849 231 835 222 849 l 74 849 b 17 806 51 849 17 849 b 72 764 17 764 53 764 l 135 764 l 135 -224 l 74 -224 b 17 -267 51 -224 17 -224 b 72 -308 17 -308 53 -308 l 293 -308 b 349 -267 313 -308 349 -308 b 292 -224 349 -224 314 -224 l 231 -224 l 231 63 b 392 -8 288 4 347 -8 b 678 300 543 -8 678 124 z m 582 300 b 388 76 582 167 485 76 b 231 265 279 76 231 199 l 231 367 b 399 522 231 449 311 522 b 582 300 501 522 582 421 z "},"ÿ":{"ha":729,"x_min":0,"x_max":0,"o":"m 694 556 b 639 599 694 599 661 599 l 476 599 b 421 557 456 599 421 599 b 476 514 421 514 454 514 l 515 514 l 415 218 b 379 99 397 167 389 142 l 378 99 b 349 181 371 125 358 154 l 219 514 l 254 514 b 310 556 275 514 310 514 b 254 599 310 599 276 599 l 92 599 b 36 556 69 599 36 599 b 92 514 36 514 71 514 l 135 514 l 332 18 b 338 0 338 4 338 0 b 285 -151 338 0 303 -117 b 174 -232 244 -228 194 -231 b 181 -201 174 -232 181 -219 b 121 -142 181 -167 156 -142 b 60 -203 83 -142 60 -167 b 175 -317 60 -261 107 -317 b 382 -118 314 -317 376 -133 l 597 514 l 639 514 b 694 556 660 514 694 514 z m 313 771 b 250 833 313 807 285 833 b 188 771 215 833 188 807 b 250 708 188 736 215 708 b 313 771 285 708 313 736 z m 542 771 b 479 833 542 807 514 833 b 417 771 444 833 417 807 b 479 708 417 736 444 708 b 542 771 514 708 542 736 z "},"Ā":{"ha":729,"x_min":0,"x_max":0,"o":"m 690 42 b 667 81 690 60 683 74 b 607 85 658 85 628 85 l 439 811 b 364 865 426 864 407 865 b 289 813 324 865 301 865 l 121 85 b 61 82 101 85 69 85 b 38 42 46 74 38 60 b 97 0 38 0 74 0 l 239 0 b 297 42 264 0 297 0 b 219 85 297 85 269 85 l 251 229 l 476 229 l 508 85 b 431 42 458 85 431 85 b 489 0 431 0 464 0 l 631 0 b 690 42 654 0 690 0 z m 456 314 l 272 314 l 364 750 z m 628 992 b 572 1036 628 1036 596 1036 l 158 1036 b 103 993 136 1036 103 1036 b 160 949 103 949 136 949 l 572 949 b 628 992 594 949 628 949 z "},"ā":{"ha":729,"x_min":0,"x_max":0,"o":"m 728 43 b 672 85 728 85 693 85 b 589 96 614 85 600 92 l 589 396 b 314 611 589 494 514 611 b 113 510 254 611 113 611 b 175 446 113 468 142 446 b 236 510 196 446 235 458 b 265 525 236 521 238 522 b 315 526 285 526 303 526 b 493 385 421 526 493 483 b 76 178 247 381 76 311 b 306 -8 76 82 164 -8 b 508 44 357 -8 443 1 b 658 0 539 1 606 0 b 728 43 697 0 728 0 z m 493 186 b 439 100 493 154 493 125 b 315 76 389 76 326 76 b 172 178 229 76 172 124 b 493 303 172 246 292 297 z m 628 771 b 572 815 628 815 596 815 l 158 815 b 103 772 136 815 103 815 b 160 728 103 728 136 728 l 572 728 b 628 771 594 728 628 728 z "},"Ă":{"ha":729,"x_min":0,"x_max":0,"o":"m 690 42 b 667 81 690 60 683 74 b 607 85 658 85 628 85 l 439 811 b 364 865 426 864 407 865 b 289 813 324 865 301 865 l 121 85 b 61 82 101 85 69 85 b 38 42 46 74 38 60 b 97 0 38 0 74 0 l 239 0 b 297 42 264 0 297 0 b 219 85 297 85 269 85 l 251 229 l 476 229 l 508 85 b 431 42 458 85 431 85 b 489 0 431 0 464 0 l 631 0 b 690 42 654 0 690 0 z m 456 314 l 272 314 l 364 750 z m 610 1049 b 567 1092 610 1075 594 1092 b 525 1051 533 1092 528 1068 b 365 1024 518 1024 424 1024 b 206 1051 306 1024 213 1024 b 164 1092 203 1068 197 1092 b 121 1049 138 1092 121 1075 b 365 935 121 935 274 935 b 610 1049 457 935 610 935 z "},"ă":{"ha":729,"x_min":0,"x_max":0,"o":"m 728 43 b 672 85 728 85 693 85 b 589 96 614 85 600 92 l 589 396 b 314 611 589 494 514 611 b 113 510 254 611 113 611 b 175 446 113 468 142 446 b 236 510 196 446 235 458 b 265 525 236 521 238 522 b 315 526 285 526 303 526 b 493 385 421 526 493 483 b 76 178 247 381 76 311 b 306 -8 76 82 164 -8 b 508 44 357 -8 443 1 b 658 0 539 1 606 0 b 728 43 697 0 728 0 z m 493 186 b 439 100 493 154 493 125 b 315 76 389 76 326 76 b 172 178 229 76 172 124 b 493 303 172 246 292 297 z m 610 807 b 567 850 610 833 594 850 b 525 810 533 850 528 826 b 365 782 518 782 424 782 b 206 810 306 782 213 782 b 164 850 203 826 197 850 b 121 807 138 850 121 833 b 365 693 121 693 274 693 b 610 807 457 693 610 693 z "},"Ą":{"ha":729,"x_min":0,"x_max":0,"o":"m 690 42 b 667 81 690 60 683 74 b 607 85 658 85 628 85 l 439 811 b 364 865 426 864 407 865 b 289 813 324 865 301 865 l 121 85 b 61 82 101 85 69 85 b 38 42 46 74 38 60 b 97 0 38 0 74 0 l 239 0 b 297 42 264 0 297 0 b 219 85 297 85 269 85 l 251 229 l 476 229 l 508 85 b 431 42 458 85 431 85 b 489 0 431 0 464 0 b 399 -150 435 -35 399 -85 b 536 -282 399 -210 449 -282 b 675 -200 589 -282 642 -246 b 668 -149 685 -187 679 -158 b 617 -156 656 -142 625 -147 b 542 -207 601 -178 569 -207 b 481 -153 517 -207 481 -186 b 601 0 481 -93 528 -43 b 631 0 631 0 622 0 b 690 42 654 0 690 0 z m 456 314 l 272 314 l 364 750 z "},"ą":{"ha":729,"x_min":0,"x_max":0,"o":"m 728 43 b 672 85 728 85 693 85 b 589 96 614 85 600 92 l 589 396 b 314 611 589 494 514 611 b 113 510 254 611 113 611 b 175 446 113 468 142 446 b 236 510 196 446 235 458 b 265 525 236 521 238 522 b 315 526 285 526 303 526 b 493 385 421 526 493 483 b 76 178 247 381 76 311 b 306 -8 76 82 164 -8 b 508 44 357 -8 443 1 b 554 13 519 29 536 18 b 449 -150 500 -22 449 -85 b 586 -282 449 -210 499 -282 b 725 -200 639 -282 692 -246 b 718 -149 735 -187 729 -158 b 667 -156 706 -142 675 -147 b 592 -207 651 -178 619 -207 b 531 -153 567 -207 531 -186 b 658 0 531 -93 585 -43 b 728 43 697 0 728 0 z m 493 186 b 439 100 493 154 493 125 b 315 76 389 76 326 76 b 172 178 229 76 172 124 b 493 303 172 246 292 297 z "},"Ć":{"ha":729,"x_min":0,"x_max":0,"o":"m 672 233 b 624 279 672 279 639 279 b 576 239 611 279 579 279 b 397 69 567 103 454 69 b 151 425 271 69 151 217 b 396 779 151 632 272 779 b 575 603 479 779 556 715 b 624 557 579 579 582 557 b 672 614 672 557 672 586 l 672 807 b 631 864 672 829 672 864 b 592 840 606 864 599 850 b 571 797 589 835 589 832 b 390 864 525 836 461 864 b 56 425 211 864 56 678 b 392 -15 56 171 211 -15 b 672 233 553 -15 672 108 z m 550 1072 b 501 1121 550 1100 529 1121 b 475 1114 501 1121 490 1121 l 290 1031 b 256 990 271 1022 256 1015 b 301 935 256 979 265 935 b 326 942 311 935 318 938 l 511 1024 b 550 1072 544 1039 550 1057 z "},"ć":{"ha":729,"x_min":0,"x_max":0,"o":"m 647 151 b 599 190 647 190 607 190 b 553 160 576 190 563 188 b 415 76 544 142 518 76 b 197 300 297 76 197 174 b 424 526 197 367 236 526 b 507 514 453 526 507 526 b 568 446 508 465 535 446 b 631 510 601 446 631 469 b 424 611 631 611 486 611 b 101 300 185 611 101 422 b 407 -8 101 133 232 -8 b 647 151 600 -8 647 128 z m 550 815 b 501 864 550 843 529 864 b 475 857 501 864 490 864 l 290 774 b 256 733 271 765 256 758 b 301 678 256 722 265 678 b 326 685 311 678 318 681 l 511 767 b 550 815 544 782 550 800 z "},"Ĉ":{"ha":729,"x_min":0,"x_max":0,"o":"m 672 233 b 624 279 672 279 639 279 b 576 239 611 279 579 279 b 397 69 567 103 454 69 b 151 425 271 69 151 217 b 396 779 151 632 272 779 b 575 603 479 779 556 715 b 624 557 579 579 582 557 b 672 614 672 557 672 586 l 672 807 b 631 864 672 829 672 864 b 592 840 606 864 599 850 b 571 797 589 835 589 832 b 390 864 525 836 461 864 b 56 425 211 864 56 678 b 392 -15 56 171 211 -15 b 672 233 553 -15 672 108 z m 581 1001 l 417 1061 b 390 1061 408 1064 399 1064 l 226 1001 b 251 924 176 983 201 908 l 403 969 l 554 924 b 581 1001 604 908 629 983 z "},"ĉ":{"ha":729,"x_min":0,"x_max":0,"o":"m 647 151 b 599 190 647 190 607 190 b 553 160 576 190 563 188 b 415 76 544 142 518 76 b 197 300 297 76 197 174 b 424 526 197 367 236 526 b 507 514 453 526 507 526 b 568 446 508 465 535 446 b 631 510 601 446 631 469 b 424 611 631 611 486 611 b 101 300 185 611 101 422 b 407 -8 101 133 232 -8 b 647 151 600 -8 647 128 z m 589 753 l 422 858 b 381 858 410 867 393 867 l 217 754 b 260 685 171 725 214 657 l 403 771 l 546 685 b 589 753 592 657 635 724 z "},"Ċ":{"ha":729,"x_min":0,"x_max":0,"o":"m 672 233 b 624 279 672 279 639 279 b 576 239 611 279 579 279 b 397 69 567 103 454 69 b 151 425 271 69 151 217 b 396 779 151 632 272 779 b 575 603 479 779 556 715 b 624 557 579 579 582 557 b 672 614 672 557 672 586 l 672 807 b 631 864 672 829 672 864 b 592 840 606 864 599 850 b 571 797 589 835 589 832 b 390 864 525 836 461 864 b 56 425 211 864 56 678 b 392 -15 56 171 211 -15 b 672 233 553 -15 672 108 z m 472 1006 b 403 1075 472 1044 442 1075 b 333 1006 364 1075 333 1044 b 403 936 333 967 364 936 b 472 1006 442 936 472 967 z "},"ċ":{"ha":729,"x_min":0,"x_max":0,"o":"m 647 151 b 599 190 647 190 607 190 b 553 160 576 190 563 188 b 415 76 544 142 518 76 b 197 300 297 76 197 174 b 424 526 197 367 236 526 b 507 514 453 526 507 526 b 568 446 508 465 535 446 b 631 510 601 446 631 469 b 424 611 631 611 486 611 b 101 300 185 611 101 422 b 407 -8 101 133 232 -8 b 647 151 600 -8 647 128 z m 472 771 b 403 840 472 810 442 840 b 333 771 364 840 333 810 b 403 701 333 732 364 701 b 472 771 442 701 472 732 z "},"Č":{"ha":729,"x_min":0,"x_max":0,"o":"m 672 233 b 624 279 672 279 639 279 b 576 239 611 279 579 279 b 397 69 567 103 454 69 b 151 425 271 69 151 217 b 396 779 151 632 272 779 b 575 603 479 779 556 715 b 624 557 579 579 582 557 b 672 614 672 557 672 586 l 672 807 b 631 864 672 829 672 864 b 592 840 606 864 599 850 b 571 797 589 835 589 832 b 390 864 525 836 461 864 b 56 425 211 864 56 678 b 392 -15 56 171 211 -15 b 672 233 553 -15 672 108 z m 579 983 b 554 1061 629 1001 604 1076 l 403 1015 l 251 1061 b 225 983 201 1076 176 1001 l 389 924 b 415 924 397 921 407 921 z "},"č":{"ha":729,"x_min":0,"x_max":0,"o":"m 647 151 b 599 190 647 190 607 190 b 553 160 576 190 563 188 b 415 76 544 142 518 76 b 197 300 297 76 197 174 b 424 526 197 367 236 526 b 507 514 453 526 507 526 b 568 446 508 465 535 446 b 631 510 601 446 631 469 b 424 611 631 611 486 611 b 101 300 185 611 101 422 b 407 -8 101 133 232 -8 b 647 151 600 -8 647 128 z m 589 788 b 546 857 635 817 592 885 l 403 771 l 260 857 b 217 789 214 885 171 818 l 383 683 b 425 683 396 675 413 675 z "},"Ď":{"ha":729,"x_min":0,"x_max":0,"o":"m 674 418 b 369 849 674 640 554 849 l 83 849 b 26 806 61 849 26 849 b 83 764 26 764 63 764 l 114 764 l 114 85 l 83 85 b 26 42 61 85 26 85 b 83 0 26 0 63 0 l 369 0 b 674 418 551 0 674 194 z m 578 418 b 343 85 578 256 497 85 l 210 85 l 210 764 l 343 764 b 578 418 500 764 578 579 z m 454 983 b 429 1061 504 1001 479 1076 l 278 1015 l 126 1061 b 100 983 76 1076 51 1001 l 264 924 b 290 924 272 921 282 921 z "},"ď":{"ha":729,"x_min":0,"x_max":0,"o":"m 711 43 b 656 85 711 85 675 85 l 593 85 l 593 792 b 538 849 593 835 585 849 l 436 849 b 379 806 414 849 379 849 b 435 764 379 764 415 764 l 497 764 l 497 544 b 335 607 451 585 394 607 b 50 299 183 607 50 475 b 322 -8 50 126 175 -8 b 497 69 400 -8 458 29 b 553 0 497 19 497 0 l 654 0 b 711 43 676 0 711 0 z m 497 269 b 328 76 497 192 435 76 b 146 299 229 76 146 175 b 340 522 146 432 243 522 b 497 368 429 522 497 444 z m 821 744 b 735 849 821 808 781 849 b 668 785 693 849 668 818 b 733 718 668 744 699 718 b 754 722 739 718 747 719 b 676 636 739 657 689 640 b 647 607 667 633 647 628 b 681 574 647 592 664 574 b 821 744 714 574 821 631 z "},"Đ":{"ha":729,"x_min":0,"x_max":0,"o":"m 674 418 b 369 849 674 640 554 849 l 83 849 b 26 806 61 849 26 849 b 83 764 26 764 63 764 l 114 764 l 114 468 l 75 468 b 32 425 51 468 32 449 b 75 382 32 400 51 382 l 114 382 l 114 85 l 83 85 b 26 42 61 85 26 85 b 83 0 26 0 63 0 l 369 0 b 674 418 551 0 674 194 z m 578 418 b 343 85 578 256 497 85 l 210 85 l 210 382 l 292 382 b 335 425 315 382 335 400 b 292 468 335 449 315 468 l 210 468 l 210 764 l 343 764 b 578 418 500 764 578 579 z "},"đ":{"ha":729,"x_min":0,"x_max":0,"o":"m 711 43 b 656 85 711 85 675 85 l 593 85 l 593 638 l 663 638 b 706 681 686 638 706 657 b 663 724 706 704 686 724 l 593 724 l 593 792 b 538 849 593 835 585 849 l 436 849 b 379 806 414 849 379 849 b 435 764 379 764 415 764 l 497 764 l 497 724 l 292 724 b 249 681 268 724 249 704 b 292 638 249 657 268 638 l 497 638 l 497 544 b 335 607 451 585 394 607 b 50 299 183 607 50 475 b 322 -8 50 126 175 -8 b 497 69 400 -8 458 29 b 553 0 497 19 497 0 l 654 0 b 711 43 676 0 711 0 z m 497 269 b 328 76 497 192 435 76 b 146 299 229 76 146 175 b 340 522 146 432 243 522 b 497 368 429 522 497 444 z "},"Ē":{"ha":729,"x_min":0,"x_max":0,"o":"m 697 57 l 697 181 b 650 238 697 207 697 238 b 601 181 601 238 601 208 l 601 85 l 231 85 l 231 397 l 413 397 b 461 318 413 340 413 318 b 508 375 508 318 508 349 l 508 504 b 461 561 508 531 508 561 b 413 482 413 561 413 539 l 231 482 l 231 764 l 571 764 l 571 690 b 618 633 571 664 571 633 b 667 690 667 633 667 663 l 667 792 b 611 849 667 835 658 849 l 93 849 b 36 807 72 849 36 849 b 93 764 36 764 72 764 l 135 764 l 135 85 l 93 85 b 36 42 71 85 36 85 b 93 0 36 0 72 0 l 642 0 b 697 57 688 0 697 13 z m 628 992 b 572 1036 628 1036 596 1036 l 158 1036 b 103 993 136 1036 103 1036 b 160 949 103 949 136 949 l 572 949 b 628 992 594 949 628 949 z "},"ē":{"ha":729,"x_min":0,"x_max":0,"o":"m 644 151 b 596 190 644 190 604 190 b 550 160 571 190 560 186 b 406 76 519 89 444 76 b 175 265 301 76 197 146 l 589 265 b 644 317 618 265 644 265 b 375 611 644 475 556 611 b 76 301 210 611 76 472 b 396 -8 76 132 217 -8 b 644 151 579 -8 644 117 z m 546 349 l 176 349 b 375 526 196 450 278 526 b 546 349 447 526 533 492 z m 628 771 b 572 815 628 815 596 815 l 158 815 b 103 772 136 815 103 815 b 160 728 103 728 136 728 l 572 728 b 628 771 594 728 628 728 z "},"Ĕ":{"ha":729,"x_min":0,"x_max":0,"o":"m 697 57 l 697 181 b 650 238 697 207 697 238 b 601 181 601 238 601 208 l 601 85 l 231 85 l 231 397 l 413 397 b 461 318 413 340 413 318 b 508 375 508 318 508 349 l 508 504 b 461 561 508 531 508 561 b 413 482 413 561 413 539 l 231 482 l 231 764 l 571 764 l 571 690 b 618 633 571 664 571 633 b 667 690 667 633 667 663 l 667 792 b 611 849 667 835 658 849 l 93 849 b 36 807 72 849 36 849 b 93 764 36 764 72 764 l 135 764 l 135 85 l 93 85 b 36 42 71 85 36 85 b 93 0 36 0 72 0 l 642 0 b 697 57 688 0 697 13 z m 610 1049 b 567 1092 610 1075 594 1092 b 525 1051 533 1092 528 1068 b 365 1024 518 1024 424 1024 b 206 1051 306 1024 213 1024 b 164 1092 203 1068 197 1092 b 121 1049 138 1092 121 1075 b 365 935 121 935 274 935 b 610 1049 457 935 610 935 z "},"ĕ":{"ha":729,"x_min":0,"x_max":0,"o":"m 644 151 b 596 190 644 190 604 190 b 550 160 571 190 560 186 b 406 76 519 89 444 76 b 175 265 301 76 197 146 l 589 265 b 644 317 618 265 644 265 b 375 611 644 475 556 611 b 76 301 210 611 76 472 b 396 -8 76 132 217 -8 b 644 151 579 -8 644 117 z m 546 349 l 176 349 b 375 526 196 450 278 526 b 546 349 447 526 533 492 z m 610 807 b 567 850 610 833 594 850 b 525 810 533 850 528 826 b 365 782 518 782 424 782 b 206 810 306 782 213 782 b 164 850 203 826 197 850 b 121 807 138 850 121 833 b 365 693 121 693 274 693 b 610 807 457 693 610 693 z "},"Ė":{"ha":729,"x_min":0,"x_max":0,"o":"m 697 57 l 697 181 b 650 238 697 207 697 238 b 601 181 601 238 601 208 l 601 85 l 231 85 l 231 397 l 413 397 b 461 318 413 340 413 318 b 508 375 508 318 508 349 l 508 504 b 461 561 508 531 508 561 b 413 482 413 561 413 539 l 231 482 l 231 764 l 571 764 l 571 690 b 618 633 571 664 571 633 b 667 690 667 633 667 663 l 667 792 b 611 849 667 835 658 849 l 93 849 b 36 807 72 849 36 849 b 93 764 36 764 72 764 l 135 764 l 135 85 l 93 85 b 36 42 71 85 36 85 b 93 0 36 0 72 0 l 642 0 b 697 57 688 0 697 13 z m 435 1006 b 365 1075 435 1044 404 1075 b 296 1006 326 1075 296 1044 b 365 936 296 967 326 936 b 435 1006 404 936 435 967 z "},"ė":{"ha":729,"x_min":0,"x_max":0,"o":"m 644 151 b 596 190 644 190 604 190 b 550 160 571 190 560 186 b 406 76 519 89 444 76 b 175 265 301 76 197 146 l 589 265 b 644 317 618 265 644 265 b 375 611 644 475 556 611 b 76 301 210 611 76 472 b 396 -8 76 132 217 -8 b 644 151 579 -8 644 117 z m 546 349 l 176 349 b 375 526 196 450 278 526 b 546 349 447 526 533 492 z m 435 771 b 365 840 435 810 404 840 b 296 771 326 840 296 810 b 365 701 296 732 326 701 b 435 771 404 701 435 732 z "},"Ę":{"ha":729,"x_min":0,"x_max":0,"o":"m 697 57 l 697 181 b 650 238 697 207 697 238 b 601 181 601 238 601 208 l 601 85 l 231 85 l 231 397 l 413 397 b 461 318 413 340 413 318 b 508 375 508 318 508 349 l 508 504 b 461 561 508 531 508 561 b 413 482 413 561 413 539 l 231 482 l 231 764 l 571 764 l 571 690 b 618 633 571 664 571 633 b 667 690 667 633 667 663 l 667 792 b 611 849 667 835 658 849 l 93 849 b 36 807 72 849 36 849 b 93 764 36 764 72 764 l 135 764 l 135 85 l 93 85 b 36 42 71 85 36 85 b 93 0 36 0 72 0 l 489 0 b 399 -150 435 -35 399 -85 b 536 -282 399 -210 449 -282 b 675 -200 589 -282 642 -246 b 668 -149 685 -187 679 -158 b 617 -156 656 -142 625 -147 b 542 -207 601 -178 569 -207 b 481 -153 517 -207 481 -186 b 601 0 481 -93 528 -43 l 642 0 b 697 57 688 0 697 13 z "},"ę":{"ha":729,"x_min":0,"x_max":0,"o":"m 644 151 b 596 190 644 190 604 190 b 550 160 571 190 560 186 b 406 76 519 89 444 76 b 175 265 301 76 197 146 l 589 265 b 644 317 618 265 644 265 b 375 611 644 475 556 611 b 76 301 210 611 76 472 b 367 -7 76 142 201 7 b 288 -150 313 -42 288 -85 b 425 -282 288 -210 338 -282 b 564 -200 478 -282 531 -246 b 557 -149 574 -187 568 -158 b 506 -156 544 -142 514 -147 b 431 -207 490 -178 458 -207 b 369 -153 406 -207 369 -186 b 490 6 369 -93 417 -37 b 644 151 603 39 644 124 z m 546 349 l 176 349 b 375 526 196 450 278 526 b 546 349 447 526 533 492 z "},"Ě":{"ha":729,"x_min":0,"x_max":0,"o":"m 697 57 l 697 181 b 650 238 697 207 697 238 b 601 181 601 238 601 208 l 601 85 l 231 85 l 231 397 l 413 397 b 461 318 413 340 413 318 b 508 375 508 318 508 349 l 508 504 b 461 561 508 531 508 561 b 413 482 413 561 413 539 l 231 482 l 231 764 l 571 764 l 571 690 b 618 633 571 664 571 633 b 667 690 667 633 667 663 l 667 792 b 611 849 667 835 658 849 l 93 849 b 36 807 72 849 36 849 b 93 764 36 764 72 764 l 135 764 l 135 85 l 93 85 b 36 42 71 85 36 85 b 93 0 36 0 72 0 l 642 0 b 697 57 688 0 697 13 z m 542 983 b 517 1061 592 1001 567 1076 l 365 1015 l 214 1061 b 188 983 164 1076 139 1001 l 351 924 b 378 924 360 921 369 921 z "},"ě":{"ha":729,"x_min":0,"x_max":0,"o":"m 644 151 b 596 190 644 190 604 190 b 550 160 571 190 560 186 b 406 76 519 89 444 76 b 175 265 301 76 197 146 l 589 265 b 644 317 618 265 644 265 b 375 611 644 475 556 611 b 76 301 210 611 76 472 b 396 -8 76 132 217 -8 b 644 151 579 -8 644 117 z m 546 349 l 176 349 b 375 526 196 450 278 526 b 546 349 447 526 533 492 z m 551 788 b 508 857 597 817 554 885 l 365 771 l 222 857 b 179 789 176 885 133 818 l 346 683 b 388 683 358 675 375 675 z "},"Ĝ":{"ha":729,"x_min":0,"x_max":0,"o":"m 689 333 b 632 375 689 375 653 375 l 467 375 b 411 333 446 375 411 375 b 467 290 411 290 444 290 l 525 290 b 367 69 508 135 440 69 b 149 424 254 69 149 219 b 368 779 149 636 260 779 b 528 597 417 779 504 747 b 575 557 531 574 539 557 b 624 614 624 557 624 586 l 624 807 b 582 864 624 829 624 864 b 525 801 553 864 546 849 b 363 864 476 843 421 864 b 53 425 196 864 53 676 b 363 -15 53 169 197 -15 b 528 58 442 -15 500 26 b 576 0 528 28 528 0 b 624 57 624 0 624 31 l 624 290 b 689 333 657 290 689 290 z m 543 1001 l 379 1061 b 353 1061 371 1064 361 1064 l 189 1001 b 214 924 139 983 164 908 l 365 969 l 517 924 b 543 1001 567 908 592 983 z "},"ĝ":{"ha":729,"x_min":0,"x_max":0,"o":"m 707 539 b 606 614 707 571 681 614 b 458 565 590 614 522 613 b 324 607 436 581 388 607 b 94 385 193 607 94 503 b 139 253 94 325 118 279 b 111 158 124 231 111 200 b 143 58 111 110 131 75 b 40 -114 40 -4 40 -99 b 364 -318 40 -233 186 -318 b 688 -114 542 -318 688 -232 b 592 44 688 -62 663 7 b 390 85 574 54 515 85 l 293 85 b 253 88 282 85 264 85 b 207 107 232 88 224 88 b 190 157 192 126 190 157 b 199 196 190 163 193 182 b 324 161 203 193 256 161 b 553 385 451 161 553 261 b 517 506 553 426 540 467 b 597 529 546 522 579 528 b 651 482 606 492 638 482 b 707 539 675 482 707 499 z m 457 385 b 324 244 457 306 396 244 b 190 383 249 244 190 310 b 324 524 190 463 251 524 b 457 385 399 524 457 458 z m 607 -114 b 364 -235 607 -175 503 -235 b 121 -114 225 -235 121 -175 b 178 -17 121 -89 133 -44 b 326 6 213 6 225 6 b 607 -114 450 6 607 6 z m 501 753 l 335 858 b 293 858 322 867 306 867 l 129 754 b 172 685 83 725 126 657 l 315 771 l 458 685 b 501 753 504 657 547 724 z "},"Ğ":{"ha":729,"x_min":0,"x_max":0,"o":"m 689 333 b 632 375 689 375 653 375 l 467 375 b 411 333 446 375 411 375 b 467 290 411 290 444 290 l 525 290 b 367 69 508 135 440 69 b 149 424 254 69 149 219 b 368 779 149 636 260 779 b 528 597 417 779 504 747 b 575 557 531 574 539 557 b 624 614 624 557 624 586 l 624 807 b 582 864 624 829 624 864 b 525 801 553 864 546 849 b 363 864 476 843 421 864 b 53 425 196 864 53 676 b 363 -15 53 169 197 -15 b 528 58 442 -15 500 26 b 576 0 528 28 528 0 b 624 57 624 0 624 31 l 624 290 b 689 333 657 290 689 290 z m 610 1049 b 567 1092 610 1075 594 1092 b 525 1051 533 1092 528 1068 b 365 1024 518 1024 424 1024 b 206 1051 306 1024 213 1024 b 164 1092 203 1068 197 1092 b 121 1049 138 1092 121 1075 b 365 935 121 935 274 935 b 610 1049 457 935 610 935 z "},"ğ":{"ha":729,"x_min":0,"x_max":0,"o":"m 707 539 b 606 614 707 571 681 614 b 458 565 590 614 522 613 b 324 607 436 581 388 607 b 94 385 193 607 94 503 b 139 253 94 325 118 279 b 111 158 124 231 111 200 b 143 58 111 110 131 75 b 40 -114 40 -4 40 -99 b 364 -318 40 -233 186 -318 b 688 -114 542 -318 688 -232 b 592 44 688 -62 663 7 b 390 85 574 54 515 85 l 293 85 b 253 88 282 85 264 85 b 207 107 232 88 224 88 b 190 157 192 126 190 157 b 199 196 190 163 193 182 b 324 161 203 193 256 161 b 553 385 451 161 553 261 b 517 506 553 426 540 467 b 597 529 546 522 579 528 b 651 482 606 492 638 482 b 707 539 675 482 707 499 z m 457 385 b 324 244 457 306 396 244 b 190 383 249 244 190 310 b 324 524 190 463 251 524 b 457 385 399 524 457 458 z m 607 -114 b 364 -235 607 -175 503 -235 b 121 -114 225 -235 121 -175 b 178 -17 121 -89 133 -44 b 326 6 213 6 225 6 b 607 -114 450 6 607 6 z m 560 807 b 517 850 560 833 544 850 b 475 810 483 850 478 826 b 315 782 468 782 374 782 b 156 810 256 782 163 782 b 114 850 153 826 147 850 b 71 807 88 850 71 833 b 315 693 71 693 224 693 b 560 807 407 693 560 693 z "},"Ġ":{"ha":729,"x_min":0,"x_max":0,"o":"m 689 333 b 632 375 689 375 653 375 l 467 375 b 411 333 446 375 411 375 b 467 290 411 290 444 290 l 525 290 b 367 69 508 135 440 69 b 149 424 254 69 149 219 b 368 779 149 636 260 779 b 528 597 417 779 504 747 b 575 557 531 574 539 557 b 624 614 624 557 624 586 l 624 807 b 582 864 624 829 624 864 b 525 801 553 864 546 849 b 363 864 476 843 421 864 b 53 425 196 864 53 676 b 363 -15 53 169 197 -15 b 528 58 442 -15 500 26 b 576 0 528 28 528 0 b 624 57 624 0 624 31 l 624 290 b 689 333 657 290 689 290 z m 435 1006 b 365 1075 435 1044 404 1075 b 296 1006 326 1075 296 1044 b 365 936 296 967 326 936 b 435 1006 404 936 435 967 z "},"ġ":{"ha":729,"x_min":0,"x_max":0,"o":"m 707 539 b 606 614 707 571 681 614 b 458 565 590 614 522 613 b 324 607 436 581 388 607 b 94 385 193 607 94 503 b 139 253 94 325 118 279 b 111 158 124 231 111 200 b 143 58 111 110 131 75 b 40 -114 40 -4 40 -99 b 364 -318 40 -233 186 -318 b 688 -114 542 -318 688 -232 b 592 44 688 -62 663 7 b 390 85 574 54 515 85 l 293 85 b 253 88 282 85 264 85 b 207 107 232 88 224 88 b 190 157 192 126 190 157 b 199 196 190 163 193 182 b 324 161 203 193 256 161 b 553 385 451 161 553 261 b 517 506 553 426 540 467 b 597 529 546 522 579 528 b 651 482 606 492 638 482 b 707 539 675 482 707 499 z m 457 385 b 324 244 457 306 396 244 b 190 383 249 244 190 310 b 324 524 190 463 251 524 b 457 385 399 524 457 458 z m 607 -114 b 364 -235 607 -175 503 -235 b 121 -114 225 -235 121 -175 b 178 -17 121 -89 133 -44 b 326 6 213 6 225 6 b 607 -114 450 6 607 6 z m 385 771 b 315 840 385 810 354 840 b 246 771 276 840 246 810 b 315 701 246 732 276 701 b 385 771 354 701 385 732 z "},"Ģ":{"ha":729,"x_min":0,"x_max":0,"o":"m 689 333 b 632 375 689 375 653 375 l 467 375 b 411 333 446 375 411 375 b 467 290 411 290 444 290 l 525 290 b 367 69 508 135 440 69 b 149 424 254 69 149 219 b 368 779 149 636 260 779 b 528 597 417 779 504 747 b 575 557 531 574 539 557 b 624 614 624 557 624 586 l 624 807 b 582 864 624 829 624 864 b 525 801 553 864 546 849 b 363 864 476 843 421 864 b 53 425 196 864 53 676 b 363 -15 53 169 197 -15 b 528 58 442 -15 500 26 b 576 0 528 28 528 0 b 624 57 624 0 624 31 l 624 290 b 689 333 657 290 689 290 z m 451 -150 b 365 -46 451 -86 411 -46 b 299 -110 324 -46 299 -76 b 364 -176 299 -150 329 -176 b 385 -172 369 -176 378 -175 b 307 -258 369 -237 319 -254 b 278 -287 297 -261 278 -267 b 311 -321 278 -303 294 -321 b 451 -150 344 -321 451 -264 z "},"ģ":{"ha":729,"x_min":0,"x_max":0,"o":"m 401 890 b 368 924 401 906 385 924 b 228 753 335 924 228 867 b 314 649 228 689 268 649 b 381 713 356 649 381 679 b 315 779 381 753 350 779 b 294 775 310 779 301 778 b 372 861 310 840 360 857 b 401 890 382 864 401 869 z m 707 539 b 606 614 707 571 681 614 b 458 565 590 614 522 613 b 324 607 436 581 388 607 b 94 385 193 607 94 503 b 139 253 94 325 118 279 b 111 158 124 231 111 200 b 143 58 111 110 131 75 b 40 -114 40 -4 40 -99 b 364 -318 40 -233 186 -318 b 688 -114 542 -318 688 -232 b 592 44 688 -62 663 7 b 390 85 574 54 515 85 l 293 85 b 253 88 282 85 264 85 b 207 107 232 88 224 88 b 190 157 192 126 190 157 b 199 196 190 163 193 182 b 324 161 203 193 256 161 b 553 385 451 161 553 261 b 517 506 553 426 540 467 b 597 529 546 522 579 528 b 651 482 606 492 638 482 b 707 539 675 482 707 499 z m 457 385 b 324 244 457 306 396 244 b 190 383 249 244 190 310 b 324 524 190 463 251 524 b 457 385 399 524 457 458 z m 607 -114 b 364 -235 607 -175 503 -235 b 121 -114 225 -235 121 -175 b 178 -17 121 -89 133 -44 b 326 6 213 6 225 6 b 607 -114 450 6 607 6 z "},"Ĥ":{"ha":729,"x_min":0,"x_max":0,"o":"m 697 42 b 642 85 697 85 664 85 l 607 85 l 607 764 l 642 764 b 697 806 663 764 697 764 b 642 849 697 849 664 849 l 476 849 b 421 807 456 849 421 849 b 476 764 421 764 454 764 l 511 764 l 511 483 l 217 483 l 217 764 l 251 764 b 307 806 272 764 307 764 b 251 849 307 849 274 849 l 86 849 b 31 806 64 849 31 849 b 86 764 31 764 65 764 l 121 764 l 121 85 l 86 85 b 31 42 64 85 31 85 b 86 0 31 0 65 0 l 251 0 b 307 42 272 0 307 0 b 251 85 307 85 274 85 l 217 85 l 217 399 l 511 399 l 511 85 l 476 85 b 421 43 456 85 421 85 b 476 0 421 0 454 0 l 642 0 b 697 42 663 0 697 0 z m 543 1001 l 379 1061 b 353 1061 371 1064 361 1064 l 189 1001 b 214 924 139 983 164 908 l 365 969 l 517 924 b 543 1001 567 908 592 983 z "},"ĥ":{"ha":729,"x_min":0,"x_max":0,"o":"m 711 42 b 654 85 711 85 676 85 l 593 85 l 593 407 b 413 607 593 547 522 607 b 231 533 319 607 257 560 l 231 792 b 175 849 231 835 222 849 l 74 849 b 17 806 51 849 17 849 b 72 764 17 764 53 764 l 135 764 l 135 85 l 74 85 b 17 42 51 85 17 85 b 72 0 17 0 53 0 l 293 0 b 349 42 313 0 349 0 b 292 85 349 85 314 85 l 231 85 l 231 331 b 404 522 231 469 333 522 b 497 400 478 522 497 483 l 497 85 l 443 85 b 386 42 421 85 386 85 b 443 0 386 0 424 0 l 656 0 b 711 42 675 0 711 0 z m 543 1001 l 379 1061 b 353 1061 371 1064 361 1064 l 189 1001 b 214 924 139 983 164 908 l 365 969 l 517 924 b 543 1001 567 908 592 983 z "},"Ħ":{"ha":729,"x_min":0,"x_max":0,"o":"m 697 42 b 642 85 697 85 664 85 l 607 85 l 607 593 l 649 593 b 692 636 672 593 692 613 b 649 679 692 660 672 679 l 607 679 l 607 764 l 642 764 b 697 806 663 764 697 764 b 642 849 697 849 664 849 l 476 849 b 421 807 456 849 421 849 b 476 764 421 764 454 764 l 511 764 l 511 679 l 217 679 l 217 764 l 251 764 b 307 806 272 764 307 764 b 251 849 307 849 274 849 l 86 849 b 31 806 64 849 31 849 b 86 764 31 764 65 764 l 121 764 l 121 679 l 79 679 b 36 636 56 679 36 660 b 79 593 36 613 56 593 l 121 593 l 121 85 l 86 85 b 31 42 64 85 31 85 b 86 0 31 0 65 0 l 251 0 b 307 42 272 0 307 0 b 251 85 307 85 274 85 l 217 85 l 217 399 l 511 399 l 511 85 l 476 85 b 421 43 456 85 421 85 b 476 0 421 0 454 0 l 642 0 b 697 42 663 0 697 0 z m 511 483 l 217 483 l 217 593 l 511 593 z "},"ħ":{"ha":729,"x_min":0,"x_max":0,"o":"m 711 42 b 654 85 711 85 676 85 l 593 85 l 593 407 b 413 607 593 547 522 607 b 231 533 319 607 257 560 l 231 638 l 365 638 b 408 681 389 638 408 657 b 365 724 408 704 389 724 l 231 724 l 231 792 b 175 849 231 835 222 849 l 74 849 b 17 806 51 849 17 849 b 72 764 17 764 53 764 l 135 764 l 135 724 l 65 724 b 22 681 42 724 22 704 b 65 638 22 657 42 638 l 135 638 l 135 85 l 74 85 b 17 42 51 85 17 85 b 72 0 17 0 53 0 l 293 0 b 349 42 313 0 349 0 b 292 85 349 85 314 85 l 231 85 l 231 331 b 404 522 231 469 333 522 b 497 400 478 522 497 483 l 497 85 l 443 85 b 386 42 421 85 386 85 b 443 0 386 0 424 0 l 656 0 b 711 42 675 0 711 0 z "},"Ĩ":{"ha":729,"x_min":0,"x_max":0,"o":"m 619 42 b 563 85 619 85 583 85 l 413 85 l 413 764 l 563 764 b 619 806 583 764 619 764 b 563 849 619 849 583 849 l 167 849 b 110 807 146 849 110 849 b 167 764 110 764 146 764 l 317 764 l 317 85 l 167 85 b 110 43 146 85 110 85 b 167 0 110 0 146 0 l 563 0 b 619 42 583 0 619 0 z m 608 1043 b 565 1088 608 1065 588 1088 b 532 1072 550 1088 542 1081 b 435 1011 490 1033 454 1011 b 392 1040 421 1011 410 1024 b 299 1088 374 1058 346 1088 b 190 1042 261 1088 222 1065 b 122 965 163 1021 122 990 b 165 921 122 943 143 921 b 199 936 181 921 189 928 b 296 997 240 975 276 997 b 339 968 310 997 321 985 b 432 921 357 950 385 921 b 540 967 469 921 508 943 b 608 1043 568 988 608 1018 z "},"ĩ":{"ha":729,"x_min":0,"x_max":0,"o":"m 632 42 b 575 85 632 85 596 85 l 429 85 l 429 542 b 374 599 429 585 421 599 l 176 599 b 119 557 156 599 119 599 b 176 514 119 514 156 514 l 333 514 l 333 85 l 165 85 b 108 42 143 85 108 85 b 165 0 108 0 144 0 l 575 0 b 632 42 596 0 632 0 z m 608 810 b 565 854 608 832 588 854 b 532 839 550 854 542 847 b 435 778 490 800 454 778 b 392 807 421 778 410 790 b 299 854 374 825 346 854 b 190 808 261 854 222 832 b 122 732 163 788 122 757 b 165 688 122 710 143 688 b 199 703 181 688 189 694 b 296 764 240 742 276 764 b 339 735 310 764 321 751 b 432 688 357 717 385 688 b 540 733 469 688 508 710 b 608 810 568 754 608 785 z "},"Ī":{"ha":729,"x_min":0,"x_max":0,"o":"m 619 42 b 563 85 619 85 583 85 l 413 85 l 413 764 l 563 764 b 619 806 583 764 619 764 b 563 849 619 849 583 849 l 167 849 b 110 807 146 849 110 849 b 167 764 110 764 146 764 l 317 764 l 317 85 l 167 85 b 110 43 146 85 110 85 b 167 0 110 0 146 0 l 563 0 b 619 42 583 0 619 0 z m 628 992 b 572 1036 628 1036 596 1036 l 158 1036 b 103 993 136 1036 103 1036 b 160 949 103 949 136 949 l 572 949 b 628 992 594 949 628 949 z "},"ī":{"ha":729,"x_min":0,"x_max":0,"o":"m 632 42 b 575 85 632 85 596 85 l 429 85 l 429 542 b 374 599 429 585 421 599 l 176 599 b 119 557 156 599 119 599 b 176 514 119 514 156 514 l 333 514 l 333 85 l 165 85 b 108 42 143 85 108 85 b 165 0 108 0 144 0 l 575 0 b 632 42 596 0 632 0 z m 628 771 b 572 815 628 815 596 815 l 158 815 b 103 772 136 815 103 815 b 160 728 103 728 136 728 l 572 728 b 628 771 594 728 628 728 z "},"Ĭ":{"ha":729,"x_min":0,"x_max":0,"o":"m 619 42 b 563 85 619 85 583 85 l 413 85 l 413 764 l 563 764 b 619 806 583 764 619 764 b 563 849 619 849 583 849 l 167 849 b 110 807 146 849 110 849 b 167 764 110 764 146 764 l 317 764 l 317 85 l 167 85 b 110 43 146 85 110 85 b 167 0 110 0 146 0 l 563 0 b 619 42 583 0 619 0 z m 610 1049 b 567 1092 610 1075 594 1092 b 525 1051 533 1092 528 1068 b 365 1024 518 1024 424 1024 b 206 1051 306 1024 213 1024 b 164 1092 203 1068 197 1092 b 121 1049 138 1092 121 1075 b 365 935 121 935 274 935 b 610 1049 457 935 610 935 z "},"ĭ":{"ha":729,"x_min":0,"x_max":0,"o":"m 632 42 b 575 85 632 85 596 85 l 429 85 l 429 542 b 374 599 429 585 421 599 l 176 599 b 119 557 156 599 119 599 b 176 514 119 514 156 514 l 333 514 l 333 85 l 165 85 b 108 42 143 85 108 85 b 165 0 108 0 144 0 l 575 0 b 632 42 596 0 632 0 z m 610 807 b 567 850 610 833 594 850 b 525 810 533 850 528 826 b 365 782 518 782 424 782 b 206 810 306 782 213 782 b 164 850 203 826 197 850 b 121 807 138 850 121 833 b 365 693 121 693 274 693 b 610 807 457 693 610 693 z "},"Į":{"ha":729,"x_min":0,"x_max":0,"o":"m 619 42 b 563 85 619 85 583 85 l 413 85 l 413 764 l 563 764 b 619 806 583 764 619 764 b 563 849 619 849 583 849 l 167 849 b 110 807 146 849 110 849 b 167 764 110 764 146 764 l 317 764 l 317 85 l 167 85 b 110 43 146 85 110 85 b 167 0 110 0 146 0 l 329 0 b 240 -150 282 -36 240 -92 b 378 -282 240 -210 290 -282 b 517 -200 431 -282 483 -246 b 510 -149 526 -187 521 -158 b 458 -156 497 -142 467 -147 b 383 -207 443 -178 411 -207 b 322 -153 358 -207 322 -186 b 413 0 322 -87 358 -31 l 563 0 b 619 42 583 0 619 0 z "},"į":{"ha":729,"x_min":0,"x_max":0,"o":"m 429 781 b 360 850 429 819 399 850 b 290 781 321 850 290 819 b 360 711 290 742 321 711 b 429 781 399 711 429 742 z m 632 42 b 575 85 632 85 596 85 l 429 85 l 429 542 b 374 599 429 585 421 599 l 176 599 b 119 557 156 599 119 599 b 176 514 119 514 156 514 l 333 514 l 333 85 l 165 85 b 108 42 143 85 108 85 b 165 0 108 0 144 0 l 311 0 b 224 -150 264 -36 224 -92 b 361 -282 224 -210 274 -282 b 500 -200 414 -282 467 -246 b 493 -149 510 -187 504 -158 b 442 -156 481 -142 450 -147 b 367 -207 426 -178 394 -207 b 306 -153 342 -207 306 -186 b 396 0 306 -87 342 -31 l 575 0 b 632 42 596 0 632 0 z "},"İ":{"ha":729,"x_min":0,"x_max":0,"o":"m 619 42 b 563 85 619 85 583 85 l 413 85 l 413 764 l 563 764 b 619 806 583 764 619 764 b 563 849 619 849 583 849 l 167 849 b 110 807 146 849 110 849 b 167 764 110 764 146 764 l 317 764 l 317 85 l 167 85 b 110 43 146 85 110 85 b 167 0 110 0 146 0 l 563 0 b 619 42 583 0 619 0 z m 435 1006 b 365 1075 435 1044 404 1075 b 296 1006 326 1075 296 1044 b 365 936 296 967 326 936 b 435 1006 404 936 435 967 z "},"ı":{"ha":729,"x_min":0,"x_max":0,"o":"m 632 42 b 575 85 632 85 596 85 l 429 85 l 429 542 b 374 599 429 585 421 599 l 176 599 b 119 557 156 599 119 599 b 176 514 119 514 156 514 l 333 514 l 333 85 l 165 85 b 108 42 143 85 108 85 b 165 0 108 0 144 0 l 575 0 b 632 42 596 0 632 0 z "},"Ĵ":{"ha":729,"x_min":0,"x_max":0,"o":"m 664 807 b 607 849 664 849 628 849 l 356 849 b 299 807 335 849 299 849 b 356 764 299 764 335 764 l 469 764 l 469 194 b 329 69 469 76 356 69 b 211 106 318 69 251 69 b 222 142 217 113 222 119 b 161 203 222 175 196 203 b 99 138 129 203 99 182 b 329 -15 99 50 190 -15 b 565 186 453 -15 565 60 l 565 764 l 607 764 b 664 807 629 764 664 764 z m 661 1001 l 497 1061 b 471 1061 489 1064 479 1064 l 307 1001 b 332 924 257 983 282 908 l 483 969 l 635 924 b 661 1001 685 908 710 983 z "},"ĵ":{"ha":729,"x_min":0,"x_max":0,"o":"m 511 -61 l 511 542 b 456 599 511 585 503 599 l 236 599 b 179 556 214 599 179 599 b 235 514 179 514 214 514 l 415 514 l 415 -54 b 379 -179 415 -78 415 -131 b 267 -232 342 -232 299 -232 b 189 -226 226 -232 210 -229 b 190 -210 190 -222 190 -219 b 129 -147 190 -171 158 -147 b 67 -211 97 -147 67 -171 b 260 -317 67 -317 203 -317 b 511 -61 461 -317 511 -150 z m 629 753 l 463 858 b 421 858 450 867 433 867 l 257 754 b 300 685 211 725 254 657 l 443 771 l 586 685 b 629 753 632 657 675 724 z "},"Ķ":{"ha":729,"x_min":0,"x_max":0,"o":"m 688 42 b 615 85 688 85 656 85 b 606 101 613 90 607 99 l 383 497 l 594 764 b 674 807 644 764 674 764 b 617 849 674 849 636 849 l 494 849 b 438 806 474 849 438 849 b 494 764 438 764 475 764 l 201 394 l 201 764 l 232 764 b 289 806 253 764 289 764 b 232 849 289 849 254 849 l 93 849 b 36 807 72 849 36 849 b 93 764 36 764 71 764 l 124 764 l 124 85 l 93 85 b 36 43 72 85 36 85 b 93 0 36 0 71 0 l 232 0 b 289 42 253 0 289 0 b 232 85 289 85 254 85 l 201 85 l 201 269 l 331 432 l 525 85 b 469 43 506 85 469 85 b 526 0 469 0 504 0 l 631 0 b 688 42 651 0 688 0 z m 451 -150 b 365 -46 451 -86 411 -46 b 299 -110 324 -46 299 -76 b 364 -176 299 -150 329 -176 b 385 -172 369 -176 378 -175 b 307 -258 369 -237 319 -254 b 278 -287 297 -261 278 -267 b 311 -321 278 -303 294 -321 b 451 -150 344 -321 451 -264 z "},"ķ":{"ha":729,"x_min":0,"x_max":0,"o":"m 706 42 b 649 85 706 85 669 85 l 606 85 l 399 354 l 569 514 l 618 514 b 675 556 639 514 675 514 b 618 599 675 599 639 599 l 404 599 b 349 556 382 599 349 599 b 404 514 349 514 383 514 l 456 514 l 231 303 l 231 792 b 175 849 231 835 222 849 l 85 849 b 29 807 64 849 29 849 b 85 764 29 764 63 764 l 153 764 l 153 85 l 85 85 b 29 43 64 85 29 85 b 85 0 29 0 63 0 l 299 0 b 354 42 319 0 354 0 b 299 85 354 85 321 85 l 231 85 l 231 197 l 342 300 l 507 85 b 429 42 457 85 429 85 b 485 0 429 0 464 0 l 649 0 b 706 42 669 0 706 0 z m 451 -150 b 365 -46 451 -86 411 -46 b 299 -110 324 -46 299 -76 b 364 -176 299 -150 329 -176 b 385 -172 369 -176 378 -175 b 307 -258 369 -237 319 -254 b 278 -287 297 -261 278 -267 b 311 -321 278 -303 294 -321 b 451 -150 344 -321 451 -264 z "},"Ĺ":{"ha":729,"x_min":0,"x_max":0,"o":"m 678 57 l 678 181 b 631 238 678 208 678 238 b 582 181 582 238 582 210 l 582 85 l 247 85 l 247 764 l 325 764 b 382 806 344 764 382 764 b 325 849 382 849 346 849 l 100 849 b 44 806 78 849 44 849 b 100 764 44 764 79 764 l 151 764 l 151 85 l 100 85 b 44 42 78 85 44 85 b 100 0 44 0 79 0 l 622 0 b 678 57 668 0 678 13 z m 347 1072 b 299 1121 347 1100 326 1121 b 272 1114 299 1121 288 1121 l 88 1031 b 53 990 68 1022 53 1015 b 99 935 53 979 63 935 b 124 942 108 935 115 938 l 308 1024 b 347 1072 342 1039 347 1057 z "},"ĺ":{"ha":729,"x_min":0,"x_max":0,"o":"m 649 42 b 593 85 649 85 615 85 l 413 85 l 413 792 b 357 849 413 835 404 849 l 138 849 b 81 806 115 849 81 849 b 136 764 81 764 117 764 l 317 764 l 317 85 l 138 85 b 81 42 115 85 81 85 b 136 0 81 0 117 0 l 593 0 b 649 42 614 0 649 0 z m 513 1072 b 464 1121 513 1100 492 1121 b 438 1114 464 1121 453 1121 l 253 1031 b 218 990 233 1022 218 1015 b 264 935 218 979 228 935 b 289 942 274 935 281 938 l 474 1024 b 513 1072 507 1039 513 1057 z "},"Ļ":{"ha":729,"x_min":0,"x_max":0,"o":"m 678 57 l 678 181 b 631 238 678 208 678 238 b 582 181 582 238 582 210 l 582 85 l 247 85 l 247 764 l 325 764 b 382 806 344 764 382 764 b 325 849 382 849 346 849 l 100 849 b 44 806 78 849 44 849 b 100 764 44 764 79 764 l 151 764 l 151 85 l 100 85 b 44 42 78 85 44 85 b 100 0 44 0 79 0 l 622 0 b 678 57 668 0 678 13 z m 451 -150 b 365 -46 451 -86 411 -46 b 299 -110 324 -46 299 -76 b 364 -176 299 -150 329 -176 b 385 -172 369 -176 378 -175 b 307 -258 369 -237 319 -254 b 278 -287 297 -261 278 -267 b 311 -321 278 -303 294 -321 b 451 -150 344 -321 451 -264 z "},"ļ":{"ha":729,"x_min":0,"x_max":0,"o":"m 649 42 b 593 85 649 85 615 85 l 413 85 l 413 792 b 357 849 413 835 404 849 l 138 849 b 81 806 115 849 81 849 b 136 764 81 764 117 764 l 317 764 l 317 85 l 138 85 b 81 42 115 85 81 85 b 136 0 81 0 117 0 l 593 0 b 649 42 614 0 649 0 z m 451 -150 b 365 -46 451 -86 411 -46 b 299 -110 324 -46 299 -76 b 364 -176 299 -150 329 -176 b 385 -172 369 -176 378 -175 b 307 -258 369 -237 319 -254 b 278 -287 297 -261 278 -267 b 311 -321 278 -303 294 -321 b 451 -150 344 -321 451 -264 z "},"Ľ":{"ha":729,"x_min":0,"x_max":0,"o":"m 678 57 l 678 181 b 631 238 678 208 678 238 b 582 181 582 238 582 210 l 582 85 l 247 85 l 247 764 l 325 764 b 382 806 344 764 382 764 b 325 849 382 849 346 849 l 100 849 b 44 806 78 849 44 849 b 100 764 44 764 79 764 l 151 764 l 151 85 l 100 85 b 44 42 78 85 44 85 b 100 0 44 0 79 0 l 622 0 b 678 57 668 0 678 13 z m 636 744 b 550 849 636 808 596 849 b 483 785 508 849 483 818 b 549 718 483 744 514 718 b 569 722 554 718 563 719 b 492 636 554 657 504 640 b 463 607 482 633 463 628 b 496 574 463 592 479 574 b 636 744 529 574 636 631 z "},"ľ":{"ha":729,"x_min":0,"x_max":0,"o":"m 649 42 b 593 85 649 85 615 85 l 413 85 l 413 792 b 357 849 413 835 404 849 l 138 849 b 81 806 115 849 81 849 b 136 764 81 764 117 764 l 317 764 l 317 85 l 138 85 b 81 42 115 85 81 85 b 136 0 81 0 117 0 l 593 0 b 649 42 614 0 649 0 z m 640 744 b 554 849 640 808 600 849 b 488 785 513 849 488 818 b 553 718 488 744 518 718 b 574 722 558 718 567 719 b 496 636 558 657 508 640 b 467 607 486 633 467 628 b 500 574 467 592 483 574 b 640 744 533 574 640 631 z "},"Ŀ":{"ha":729,"x_min":0,"x_max":0,"o":"m 678 57 l 678 181 b 631 238 678 208 678 238 b 582 181 582 238 582 210 l 582 85 l 247 85 l 247 764 l 325 764 b 382 806 344 764 382 764 b 325 849 382 849 346 849 l 100 849 b 44 806 78 849 44 849 b 100 764 44 764 79 764 l 151 764 l 151 85 l 100 85 b 44 42 78 85 44 85 b 100 0 44 0 79 0 l 622 0 b 678 57 668 0 678 13 z m 633 440 b 564 510 633 479 603 510 b 494 440 525 510 494 479 b 564 371 494 401 525 371 b 633 440 603 371 633 401 z "},"ŀ":{"ha":729,"x_min":0,"x_max":0,"o":"m 649 42 b 593 85 649 85 615 85 l 413 85 l 413 792 b 357 849 413 835 404 849 l 138 849 b 81 806 115 849 81 849 b 136 764 81 764 117 764 l 317 764 l 317 85 l 138 85 b 81 42 115 85 81 85 b 136 0 81 0 117 0 l 593 0 b 649 42 614 0 649 0 z m 799 440 b 729 510 799 479 768 510 b 660 440 690 510 660 479 b 729 371 660 401 690 371 b 799 440 768 371 799 401 z "},"Ł":{"ha":729,"x_min":0,"x_max":0,"o":"m 678 57 l 678 181 b 631 238 678 208 678 238 b 582 181 582 238 582 210 l 582 85 l 247 85 l 247 429 l 528 618 b 538 675 546 631 551 656 l 538 676 b 482 688 525 694 500 700 l 247 528 l 247 764 l 325 764 b 382 806 344 764 382 764 b 325 849 382 849 346 849 l 100 849 b 44 806 78 849 44 849 b 100 764 44 764 79 764 l 151 764 l 151 463 l 57 397 b 46 340 39 385 33 360 l 47 340 b 103 331 58 322 83 317 l 151 364 l 151 85 l 100 85 b 44 42 78 85 44 85 b 100 0 44 0 79 0 l 622 0 b 678 57 668 0 678 13 z "},"ł":{"ha":729,"x_min":0,"x_max":0,"o":"m 649 42 b 593 85 649 85 615 85 l 413 85 l 413 492 l 600 618 b 610 675 618 631 624 656 l 610 676 b 554 688 597 694 572 700 l 413 592 l 413 792 b 357 849 413 835 404 849 l 138 849 b 81 806 115 849 81 849 b 136 764 81 764 117 764 l 317 764 l 317 525 l 129 397 b 118 340 111 385 106 360 l 119 340 b 175 331 131 322 154 317 l 317 426 l 317 85 l 138 85 b 81 42 115 85 81 85 b 136 0 81 0 117 0 l 593 0 b 649 42 614 0 649 0 z "},"Ń":{"ha":729,"x_min":0,"x_max":0,"o":"m 689 806 b 633 849 689 849 656 849 l 486 849 b 431 806 464 849 431 849 b 486 764 431 764 465 764 l 521 764 l 521 104 l 519 104 l 264 799 b 189 849 247 844 226 849 l 94 849 b 39 807 74 849 39 849 b 94 764 39 764 72 764 l 129 764 l 129 85 l 94 85 b 39 43 74 85 39 85 b 94 0 39 0 72 0 l 242 0 b 297 42 263 0 297 0 b 242 85 297 85 264 85 l 207 85 l 207 744 l 208 744 l 464 50 b 540 0 482 1 504 0 b 599 57 582 0 599 4 l 599 764 l 633 764 b 689 806 654 764 689 764 z m 513 1072 b 464 1121 513 1100 492 1121 b 438 1114 464 1121 453 1121 l 253 1031 b 218 990 233 1022 218 1015 b 264 935 218 979 228 935 b 289 942 274 935 281 938 l 474 1024 b 513 1072 507 1039 513 1057 z "},"ń":{"ha":729,"x_min":0,"x_max":0,"o":"m 711 42 b 654 85 711 85 676 85 l 593 85 l 593 407 b 413 607 593 547 522 607 b 231 533 319 607 257 560 b 175 599 231 578 231 599 l 74 599 b 17 556 51 599 17 599 b 72 514 17 514 53 514 l 135 514 l 135 85 l 74 85 b 17 42 51 85 17 85 b 72 0 17 0 53 0 l 293 0 b 349 42 313 0 349 0 b 292 85 349 85 314 85 l 231 85 l 231 331 b 404 522 231 469 333 522 b 497 400 478 522 497 483 l 497 85 l 443 85 b 386 42 421 85 386 85 b 443 0 386 0 424 0 l 656 0 b 711 42 675 0 711 0 z m 513 815 b 464 864 513 843 492 864 b 438 857 464 864 453 864 l 253 774 b 218 733 233 765 218 758 b 264 678 218 722 228 678 b 289 685 274 678 281 681 l 474 767 b 513 815 507 782 513 800 z "},"Ņ":{"ha":729,"x_min":0,"x_max":0,"o":"m 689 806 b 633 849 689 849 656 849 l 486 849 b 431 806 464 849 431 849 b 486 764 431 764 465 764 l 521 764 l 521 104 l 519 104 l 264 799 b 189 849 247 844 226 849 l 94 849 b 39 807 74 849 39 849 b 94 764 39 764 72 764 l 129 764 l 129 85 l 94 85 b 39 43 74 85 39 85 b 94 0 39 0 72 0 l 242 0 b 297 42 263 0 297 0 b 242 85 297 85 264 85 l 207 85 l 207 744 l 208 744 l 464 50 b 540 0 482 1 504 0 b 599 57 582 0 599 4 l 599 764 l 633 764 b 689 806 654 764 689 764 z m 451 -150 b 365 -46 451 -86 411 -46 b 299 -110 324 -46 299 -76 b 364 -176 299 -150 329 -176 b 385 -172 369 -176 378 -175 b 307 -258 369 -237 319 -254 b 278 -287 297 -261 278 -267 b 311 -321 278 -303 294 -321 b 451 -150 344 -321 451 -264 z "},"ņ":{"ha":729,"x_min":0,"x_max":0,"o":"m 711 42 b 654 85 711 85 676 85 l 593 85 l 593 407 b 413 607 593 547 522 607 b 231 533 319 607 257 560 b 175 599 231 578 231 599 l 74 599 b 17 556 51 599 17 599 b 72 514 17 514 53 514 l 135 514 l 135 85 l 74 85 b 17 42 51 85 17 85 b 72 0 17 0 53 0 l 293 0 b 349 42 313 0 349 0 b 292 85 349 85 314 85 l 231 85 l 231 331 b 404 522 231 469 333 522 b 497 400 478 522 497 483 l 497 85 l 443 85 b 386 42 421 85 386 85 b 443 0 386 0 424 0 l 656 0 b 711 42 675 0 711 0 z m 451 -150 b 365 -46 451 -86 411 -46 b 299 -110 324 -46 299 -76 b 364 -176 299 -150 329 -176 b 385 -172 369 -176 378 -175 b 307 -258 369 -237 319 -254 b 278 -287 297 -261 278 -267 b 311 -321 278 -303 294 -321 b 451 -150 344 -321 451 -264 z "},"Ň":{"ha":729,"x_min":0,"x_max":0,"o":"m 689 806 b 633 849 689 849 656 849 l 486 849 b 431 806 464 849 431 849 b 486 764 431 764 465 764 l 521 764 l 521 104 l 519 104 l 264 799 b 189 849 247 844 226 849 l 94 849 b 39 807 74 849 39 849 b 94 764 39 764 72 764 l 129 764 l 129 85 l 94 85 b 39 43 74 85 39 85 b 94 0 39 0 72 0 l 242 0 b 297 42 263 0 297 0 b 242 85 297 85 264 85 l 207 85 l 207 744 l 208 744 l 464 50 b 540 0 482 1 504 0 b 599 57 582 0 599 4 l 599 764 l 633 764 b 689 806 654 764 689 764 z m 542 983 b 517 1061 592 1001 567 1076 l 365 1015 l 214 1061 b 188 983 164 1076 139 1001 l 351 924 b 378 924 360 921 369 921 z "},"ň":{"ha":729,"x_min":0,"x_max":0,"o":"m 711 42 b 654 85 711 85 676 85 l 593 85 l 593 407 b 413 607 593 547 522 607 b 231 533 319 607 257 560 b 175 599 231 578 231 599 l 74 599 b 17 556 51 599 17 599 b 72 514 17 514 53 514 l 135 514 l 135 85 l 74 85 b 17 42 51 85 17 85 b 72 0 17 0 53 0 l 293 0 b 349 42 313 0 349 0 b 292 85 349 85 314 85 l 231 85 l 231 331 b 404 522 231 469 333 522 b 497 400 478 522 497 483 l 497 85 l 443 85 b 386 42 421 85 386 85 b 443 0 386 0 424 0 l 656 0 b 711 42 675 0 711 0 z m 551 788 b 508 857 597 817 554 885 l 365 771 l 222 857 b 179 789 176 885 133 818 l 346 683 b 388 683 358 675 375 675 z "},"Ŋ":{"ha":729,"x_min":0,"x_max":0,"o":"m 681 425 b 401 864 681 643 593 864 b 231 794 335 864 276 838 b 175 849 231 835 221 849 l 74 849 b 17 806 51 849 17 849 b 72 764 17 764 53 764 l 135 764 l 135 85 l 74 85 b 17 42 51 85 17 85 b 72 0 17 0 53 0 l 293 0 b 349 42 313 0 349 0 b 292 85 349 85 314 85 l 231 85 l 231 594 b 401 767 242 689 310 767 b 583 425 543 767 583 590 b 524 94 583 294 583 138 b 486 107 514 103 500 107 b 425 46 453 107 425 79 b 486 -15 425 13 453 -15 b 681 425 664 -15 681 217 z "},"ŋ":{"ha":729,"x_min":0,"x_max":0,"o":"m 642 85 l 642 407 b 461 607 642 547 571 607 b 279 533 368 607 306 560 b 224 599 279 578 279 599 l 122 599 b 65 556 100 599 65 599 b 121 514 65 514 101 514 l 183 514 l 183 85 l 122 85 b 65 42 100 85 65 85 b 121 0 65 0 101 0 l 342 0 b 397 42 361 0 397 0 b 340 85 397 85 363 85 l 279 85 l 279 331 b 453 522 279 469 382 522 b 546 400 526 522 546 483 l 546 85 b 450 -226 546 -56 546 -226 b 401 -275 422 -226 401 -249 b 450 -324 401 -303 422 -324 b 608 -192 533 -324 581 -271 b 642 85 635 -114 642 -12 z "},"Ō":{"ha":729,"x_min":0,"x_max":0,"o":"m 650 424 b 364 864 650 825 621 864 b 78 424 107 864 78 826 b 364 -15 78 22 107 -15 b 650 424 619 -15 650 22 z m 554 436 b 539 176 554 350 554 251 b 364 69 524 99 488 69 b 190 168 242 69 207 99 b 174 436 174 239 174 360 b 189 681 174 522 174 617 b 364 779 207 763 250 779 b 538 690 468 779 517 767 b 554 436 554 625 554 521 z m 628 992 b 572 1036 628 1036 596 1036 l 158 1036 b 103 993 136 1036 103 1036 b 160 949 103 949 136 949 l 572 949 b 628 992 594 949 628 949 z "},"ō":{"ha":729,"x_min":0,"x_max":0,"o":"m 649 300 b 364 611 649 474 519 611 b 79 300 208 611 79 474 b 364 -8 79 124 211 -8 b 649 300 517 -8 649 125 z m 553 310 b 364 76 553 181 467 76 b 175 310 261 76 175 181 b 364 526 175 436 265 526 b 553 310 464 526 553 436 z m 628 771 b 572 815 628 815 596 815 l 158 815 b 103 772 136 815 103 815 b 160 728 103 728 136 728 l 572 728 b 628 771 594 728 628 728 z "},"Ŏ":{"ha":729,"x_min":0,"x_max":0,"o":"m 650 424 b 364 864 650 825 621 864 b 78 424 107 864 78 826 b 364 -15 78 22 107 -15 b 650 424 619 -15 650 22 z m 554 436 b 539 176 554 350 554 251 b 364 69 524 99 488 69 b 190 168 242 69 207 99 b 174 436 174 239 174 360 b 189 681 174 522 174 617 b 364 779 207 763 250 779 b 538 690 468 779 517 767 b 554 436 554 625 554 521 z m 610 1049 b 567 1092 610 1075 594 1092 b 525 1051 533 1092 528 1068 b 365 1024 518 1024 424 1024 b 206 1051 306 1024 213 1024 b 164 1092 203 1068 197 1092 b 121 1049 138 1092 121 1075 b 365 935 121 935 274 935 b 610 1049 457 935 610 935 z "},"ŏ":{"ha":729,"x_min":0,"x_max":0,"o":"m 649 300 b 364 611 649 474 519 611 b 79 300 208 611 79 474 b 364 -8 79 124 211 -8 b 649 300 517 -8 649 125 z m 553 310 b 364 76 553 181 467 76 b 175 310 261 76 175 181 b 364 526 175 436 265 526 b 553 310 464 526 553 436 z m 610 807 b 567 850 610 833 594 850 b 525 810 533 850 528 826 b 365 782 518 782 424 782 b 206 810 306 782 213 782 b 164 850 203 826 197 850 b 121 807 138 850 121 833 b 365 693 121 693 274 693 b 610 807 457 693 610 693 z "},"Ő":{"ha":729,"x_min":0,"x_max":0,"o":"m 650 424 b 364 864 650 825 621 864 b 78 424 107 864 78 826 b 364 -15 78 22 107 -15 b 650 424 619 -15 650 22 z m 554 436 b 539 176 554 350 554 251 b 364 69 524 99 488 69 b 190 168 242 69 207 99 b 174 436 174 239 174 360 b 189 681 174 522 174 617 b 364 779 207 763 250 779 b 538 690 468 779 517 767 b 554 436 554 625 554 521 z m 321 1113 b 251 1117 303 1133 272 1135 l 144 1019 b 140 951 125 1001 122 971 b 210 947 158 931 189 929 l 317 1044 b 321 1113 336 1063 339 1093 z m 590 1113 b 521 1117 572 1133 542 1135 l 414 1019 b 410 951 394 1001 392 971 b 479 947 428 931 458 929 l 586 1044 b 590 1113 606 1063 608 1093 z "},"ő":{"ha":729,"x_min":0,"x_max":0,"o":"m 649 300 b 364 611 649 474 519 611 b 79 300 208 611 79 474 b 364 -8 79 124 211 -8 b 649 300 517 -8 649 125 z m 553 310 b 364 76 553 181 467 76 b 175 310 261 76 175 181 b 364 526 175 436 265 526 b 553 310 464 526 553 436 z m 321 851 b 251 856 303 872 272 874 l 144 758 b 140 690 125 740 122 710 b 210 686 158 669 189 668 l 317 783 b 321 851 336 801 339 832 z m 590 851 b 521 856 572 872 542 874 l 414 758 b 410 690 394 740 392 710 b 479 686 428 669 458 668 l 586 783 b 590 851 606 801 608 832 z "},"Œ":{"ha":729,"x_min":0,"x_max":0,"o":"m 697 57 l 697 181 b 658 238 697 200 697 238 b 619 181 619 238 619 200 l 619 85 l 442 85 l 442 397 l 611 397 b 667 439 632 397 667 397 b 611 482 667 482 633 482 l 442 482 l 442 764 l 610 764 l 610 690 b 649 633 610 671 610 633 b 688 690 688 633 688 671 l 688 792 b 632 849 688 835 679 849 l 413 849 b 347 856 396 849 381 849 b 268 864 307 864 292 864 b 61 746 139 864 82 836 b 40 425 44 672 40 600 b 60 113 40 313 40 200 b 268 -15 78 28 115 -15 b 353 -6 296 -15 306 -15 b 413 0 381 0 400 0 l 642 0 b 697 57 688 0 697 13 z m 364 239 b 276 69 364 96 342 69 b 118 436 118 69 118 154 b 274 779 118 704 118 779 b 364 610 340 779 364 758 z "},"œ":{"ha":729,"x_min":0,"x_max":0,"o":"m 701 150 b 663 190 701 175 682 190 b 624 156 632 190 625 163 b 558 76 613 106 589 76 b 431 265 499 76 440 158 l 646 265 b 701 324 694 265 701 281 b 539 611 701 508 633 611 b 389 490 467 611 418 550 b 228 611 368 531 315 611 b 26 301 118 611 26 481 b 228 -8 26 122 118 -8 b 390 115 310 -8 364 63 b 553 -8 415 64 469 -8 b 701 150 665 -8 701 125 z m 622 349 l 432 349 b 539 526 442 447 492 526 b 622 349 571 526 615 489 z m 351 310 b 228 76 351 176 289 76 b 104 310 167 76 104 176 b 228 526 104 442 168 526 b 351 310 288 526 351 440 z "},"Ŕ":{"ha":729,"x_min":0,"x_max":0,"o":"m 725 129 b 676 174 725 174 692 174 b 629 132 663 174 631 174 b 603 69 629 121 626 69 b 564 207 564 69 564 133 b 551 338 564 294 564 306 b 483 422 535 378 503 407 b 601 615 575 474 601 558 b 332 849 601 735 496 849 l 86 849 b 31 806 64 849 31 849 b 86 764 31 764 65 764 l 121 764 l 121 85 l 86 85 b 31 42 64 85 31 85 b 86 0 31 0 65 0 l 251 0 b 307 42 272 0 307 0 b 251 85 307 85 274 85 l 217 85 l 217 382 l 325 382 b 438 343 351 382 393 382 b 468 225 468 314 468 283 b 494 49 468 135 468 93 b 604 -15 518 7 557 -15 b 725 129 692 -15 725 76 z m 506 615 b 317 467 506 547 443 467 l 217 467 l 217 764 l 317 764 b 506 615 444 764 506 682 z m 513 1072 b 464 1121 513 1100 492 1121 b 438 1114 464 1121 453 1121 l 253 1031 b 218 990 233 1022 218 1015 b 264 935 218 979 228 935 b 289 942 274 935 281 938 l 474 1024 b 513 1072 507 1039 513 1057 z "},"ŕ":{"ha":729,"x_min":0,"x_max":0,"o":"m 676 521 b 544 607 676 549 660 607 b 308 494 474 607 385 582 l 308 542 b 253 599 308 585 300 599 l 100 599 b 44 557 79 599 44 599 b 100 514 44 514 78 514 l 213 514 l 213 85 l 100 85 b 44 43 79 85 44 85 b 100 0 44 0 78 0 l 463 0 b 519 42 483 0 519 0 b 463 85 519 85 483 85 l 308 85 l 308 258 b 558 522 308 389 390 522 b 618 461 560 489 583 461 b 676 521 649 461 676 483 z m 513 815 b 464 864 513 843 492 864 b 438 857 464 864 453 864 l 253 774 b 218 733 233 765 218 758 b 264 678 218 722 228 678 b 289 685 274 678 281 681 l 474 767 b 513 815 507 782 513 800 z "},"Ŗ":{"ha":729,"x_min":0,"x_max":0,"o":"m 725 129 b 676 174 725 174 692 174 b 629 132 663 174 631 174 b 603 69 629 121 626 69 b 564 207 564 69 564 133 b 551 338 564 294 564 306 b 483 422 535 378 503 407 b 601 615 575 474 601 558 b 332 849 601 735 496 849 l 86 849 b 31 806 64 849 31 849 b 86 764 31 764 65 764 l 121 764 l 121 85 l 86 85 b 31 42 64 85 31 85 b 86 0 31 0 65 0 l 251 0 b 307 42 272 0 307 0 b 251 85 307 85 274 85 l 217 85 l 217 382 l 325 382 b 438 343 351 382 393 382 b 468 225 468 314 468 283 b 494 49 468 135 468 93 b 604 -15 518 7 557 -15 b 725 129 692 -15 725 76 z m 506 615 b 317 467 506 547 443 467 l 217 467 l 217 764 l 317 764 b 506 615 444 764 506 682 z m 451 -150 b 365 -46 451 -86 411 -46 b 299 -110 324 -46 299 -76 b 364 -176 299 -150 329 -176 b 385 -172 369 -176 378 -175 b 307 -258 369 -237 319 -254 b 278 -287 297 -261 278 -267 b 311 -321 278 -303 294 -321 b 451 -150 344 -321 451 -264 z "},"ŗ":{"ha":729,"x_min":0,"x_max":0,"o":"m 676 521 b 544 607 676 549 660 607 b 308 494 474 607 385 582 l 308 542 b 253 599 308 585 300 599 l 100 599 b 44 557 79 599 44 599 b 100 514 44 514 78 514 l 213 514 l 213 85 l 100 85 b 44 43 79 85 44 85 b 100 0 44 0 78 0 l 463 0 b 519 42 483 0 519 0 b 463 85 519 85 483 85 l 308 85 l 308 258 b 558 522 308 389 390 522 b 618 461 560 489 583 461 b 676 521 649 461 676 483 z m 347 -150 b 261 -46 347 -86 307 -46 b 194 -110 219 -46 194 -76 b 260 -176 194 -150 225 -176 b 281 -172 265 -176 274 -175 b 203 -258 265 -237 215 -254 b 174 -287 193 -261 174 -267 b 207 -321 174 -303 190 -321 b 347 -150 240 -321 347 -264 z "},"Ř":{"ha":729,"x_min":0,"x_max":0,"o":"m 725 129 b 676 174 725 174 692 174 b 629 132 663 174 631 174 b 603 69 629 121 626 69 b 564 207 564 69 564 133 b 551 338 564 294 564 306 b 483 422 535 378 503 407 b 601 615 575 474 601 558 b 332 849 601 735 496 849 l 86 849 b 31 806 64 849 31 849 b 86 764 31 764 65 764 l 121 764 l 121 85 l 86 85 b 31 42 64 85 31 85 b 86 0 31 0 65 0 l 251 0 b 307 42 272 0 307 0 b 251 85 307 85 274 85 l 217 85 l 217 382 l 325 382 b 438 343 351 382 393 382 b 468 225 468 314 468 283 b 494 49 468 135 468 93 b 604 -15 518 7 557 -15 b 725 129 692 -15 725 76 z m 506 615 b 317 467 506 547 443 467 l 217 467 l 217 764 l 317 764 b 506 615 444 764 506 682 z m 542 983 b 517 1061 592 1001 567 1076 l 365 1015 l 214 1061 b 188 983 164 1076 139 1001 l 351 924 b 378 924 360 921 369 921 z "},"ř":{"ha":729,"x_min":0,"x_max":0,"o":"m 676 521 b 544 607 676 549 660 607 b 308 494 474 607 385 582 l 308 542 b 253 599 308 585 300 599 l 100 599 b 44 557 79 599 44 599 b 100 514 44 514 78 514 l 213 514 l 213 85 l 100 85 b 44 43 79 85 44 85 b 100 0 44 0 78 0 l 463 0 b 519 42 483 0 519 0 b 463 85 519 85 483 85 l 308 85 l 308 258 b 558 522 308 389 390 522 b 618 461 560 489 583 461 b 676 521 649 461 676 483 z m 551 788 b 508 857 597 817 554 885 l 365 771 l 222 857 b 179 789 176 885 133 818 l 346 683 b 388 683 358 675 375 675 z "},"Ś":{"ha":729,"x_min":0,"x_max":0,"o":"m 656 231 b 589 396 656 319 606 378 b 386 486 532 451 494 461 l 274 511 b 163 642 215 528 163 576 b 329 779 163 713 231 779 b 522 606 493 779 514 649 b 569 567 526 575 542 567 b 618 624 618 567 618 596 l 618 807 b 576 864 618 829 618 864 b 525 799 543 864 536 840 b 331 864 468 847 393 864 b 72 636 176 864 72 754 b 251 418 72 543 136 451 l 411 381 b 565 224 450 372 565 344 b 396 69 565 151 506 69 b 233 113 357 69 289 75 b 168 233 175 150 169 208 b 121 282 167 257 165 282 b 72 225 72 282 72 253 l 72 42 b 114 -15 72 19 72 -15 b 165 49 144 -15 153 4 b 394 -15 221 7 306 -15 b 656 231 556 -15 656 107 z m 513 1072 b 464 1121 513 1100 492 1121 b 438 1114 464 1121 453 1121 l 253 1031 b 218 990 233 1022 218 1015 b 264 935 218 979 228 935 b 289 942 274 935 281 938 l 474 1024 b 513 1072 507 1039 513 1057 z "},"ś":{"ha":729,"x_min":0,"x_max":0,"o":"m 638 174 b 414 354 638 318 458 347 l 319 371 b 185 447 279 376 185 393 b 361 526 185 483 229 526 b 500 449 476 526 496 485 b 547 401 501 425 504 401 b 596 458 596 401 596 431 l 596 554 b 554 611 596 576 596 611 b 513 582 521 611 515 592 b 364 611 451 611 390 611 b 100 447 132 611 100 497 b 374 276 100 319 246 296 b 553 174 442 265 553 247 b 375 76 553 122 501 76 b 197 200 310 76 232 92 b 149 240 190 225 185 240 b 100 183 100 240 100 211 l 100 49 b 142 -8 100 26 100 -8 b 193 44 154 -8 176 -7 b 374 -8 261 -6 335 -8 b 638 174 593 -8 638 107 z m 513 815 b 464 864 513 843 492 864 b 438 857 464 864 453 864 l 253 774 b 218 733 233 765 218 758 b 264 678 218 722 228 678 b 289 685 274 678 281 681 l 474 767 b 513 815 507 782 513 800 z "},"Ŝ":{"ha":729,"x_min":0,"x_max":0,"o":"m 656 231 b 589 396 656 319 606 378 b 386 486 532 451 494 461 l 274 511 b 163 642 215 528 163 576 b 329 779 163 713 231 779 b 522 606 493 779 514 649 b 569 567 526 575 542 567 b 618 624 618 567 618 596 l 618 807 b 576 864 618 829 618 864 b 525 799 543 864 536 840 b 331 864 468 847 393 864 b 72 636 176 864 72 754 b 251 418 72 543 136 451 l 411 381 b 565 224 450 372 565 344 b 396 69 565 151 506 69 b 233 113 357 69 289 75 b 168 233 175 150 169 208 b 121 282 167 257 165 282 b 72 225 72 282 72 253 l 72 42 b 114 -15 72 19 72 -15 b 165 49 144 -15 153 4 b 394 -15 221 7 306 -15 b 656 231 556 -15 656 107 z m 543 1001 l 379 1061 b 353 1061 371 1064 361 1064 l 189 1001 b 214 924 139 983 164 908 l 365 969 l 517 924 b 543 1001 567 908 592 983 z "},"ŝ":{"ha":729,"x_min":0,"x_max":0,"o":"m 638 174 b 414 354 638 318 458 347 l 319 371 b 185 447 279 376 185 393 b 361 526 185 483 229 526 b 500 449 476 526 496 485 b 547 401 501 425 504 401 b 596 458 596 401 596 431 l 596 554 b 554 611 596 576 596 611 b 513 582 521 611 515 592 b 364 611 451 611 390 611 b 100 447 132 611 100 497 b 374 276 100 319 246 296 b 553 174 442 265 553 247 b 375 76 553 122 501 76 b 197 200 310 76 232 92 b 149 240 190 225 185 240 b 100 183 100 240 100 211 l 100 49 b 142 -8 100 26 100 -8 b 193 44 154 -8 176 -7 b 374 -8 261 -6 335 -8 b 638 174 593 -8 638 107 z m 551 753 l 385 858 b 343 858 372 867 356 867 l 179 754 b 222 685 133 725 176 657 l 365 771 l 508 685 b 551 753 554 657 597 724 z "},"Ş":{"ha":729,"x_min":0,"x_max":0,"o":"m 656 231 b 589 396 656 319 606 378 b 386 486 532 451 494 461 l 274 511 b 163 642 215 528 163 576 b 329 779 163 713 231 779 b 522 606 493 779 514 649 b 569 567 526 575 542 567 b 618 624 618 567 618 596 l 618 807 b 576 864 618 829 618 864 b 525 799 543 864 536 840 b 331 864 468 847 393 864 b 72 636 176 864 72 754 b 251 418 72 543 136 451 l 411 381 b 565 224 450 372 565 344 b 396 69 565 151 506 69 b 233 113 357 69 289 75 b 168 233 175 150 169 208 b 121 282 167 257 165 282 b 72 225 72 282 72 253 l 72 42 b 114 -15 72 19 72 -15 b 165 49 144 -15 153 4 b 343 -12 210 15 274 -6 l 343 -49 b 388 -107 343 -76 343 -104 b 481 -162 449 -110 481 -135 b 290 -218 481 -218 343 -218 b 207 -261 238 -218 207 -218 b 250 -304 207 -293 229 -304 b 576 -162 382 -304 576 -304 b 439 -28 576 -108 538 -47 l 439 -12 b 656 231 574 8 656 118 z "},"ş":{"ha":729,"x_min":0,"x_max":0,"o":"m 638 174 b 414 354 638 318 458 347 l 319 371 b 185 447 279 376 185 393 b 361 526 185 483 229 526 b 500 449 476 526 496 485 b 547 401 501 425 504 401 b 596 458 596 401 596 431 l 596 554 b 554 611 596 576 596 611 b 513 582 521 611 515 592 b 364 611 451 611 390 611 b 100 447 132 611 100 497 b 374 276 100 319 246 296 b 553 174 442 265 553 247 b 375 76 553 122 501 76 b 197 200 310 76 232 92 b 149 240 190 225 185 240 b 100 183 100 240 100 211 l 100 49 b 142 -8 100 26 100 -8 b 193 44 154 -8 176 -7 b 343 -7 246 6 303 -4 l 343 -33 b 388 -92 343 -61 343 -89 b 481 -147 449 -94 481 -119 b 290 -203 481 -203 343 -203 b 207 -246 238 -203 207 -203 b 250 -289 207 -278 229 -289 b 576 -147 382 -289 576 -289 b 439 -12 576 -93 538 -32 l 439 -4 b 638 174 603 17 638 114 z "},"Š":{"ha":729,"x_min":0,"x_max":0,"o":"m 656 231 b 589 396 656 319 606 378 b 386 486 532 451 494 461 l 274 511 b 163 642 215 528 163 576 b 329 779 163 713 231 779 b 522 606 493 779 514 649 b 569 567 526 575 542 567 b 618 624 618 567 618 596 l 618 807 b 576 864 618 829 618 864 b 525 799 543 864 536 840 b 331 864 468 847 393 864 b 72 636 176 864 72 754 b 251 418 72 543 136 451 l 411 381 b 565 224 450 372 565 344 b 396 69 565 151 506 69 b 233 113 357 69 289 75 b 168 233 175 150 169 208 b 121 282 167 257 165 282 b 72 225 72 282 72 253 l 72 42 b 114 -15 72 19 72 -15 b 165 49 144 -15 153 4 b 394 -15 221 7 306 -15 b 656 231 556 -15 656 107 z m 542 983 b 517 1061 592 1001 567 1076 l 365 1015 l 214 1061 b 188 983 164 1076 139 1001 l 351 924 b 378 924 360 921 369 921 z "},"š":{"ha":729,"x_min":0,"x_max":0,"o":"m 638 174 b 414 354 638 318 458 347 l 319 371 b 185 447 279 376 185 393 b 361 526 185 483 229 526 b 500 449 476 526 496 485 b 547 401 501 425 504 401 b 596 458 596 401 596 431 l 596 554 b 554 611 596 576 596 611 b 513 582 521 611 515 592 b 364 611 451 611 390 611 b 100 447 132 611 100 497 b 374 276 100 319 246 296 b 553 174 442 265 553 247 b 375 76 553 122 501 76 b 197 200 310 76 232 92 b 149 240 190 225 185 240 b 100 183 100 240 100 211 l 100 49 b 142 -8 100 26 100 -8 b 193 44 154 -8 176 -7 b 374 -8 261 -6 335 -8 b 638 174 593 -8 638 107 z m 551 788 b 508 857 597 817 554 885 l 365 771 l 222 857 b 179 789 176 885 133 818 l 346 683 b 388 683 358 675 375 675 z "},"Ţ":{"ha":729,"x_min":0,"x_max":0,"o":"m 692 690 l 692 792 b 636 849 692 835 683 849 l 93 849 b 36 792 47 849 36 838 l 36 690 b 83 633 36 664 36 633 b 132 690 132 633 132 663 l 132 764 l 317 764 l 317 85 l 244 85 b 189 43 224 85 189 85 b 244 0 189 0 222 0 l 317 0 l 317 -37 b 361 -96 317 -65 317 -93 b 454 -151 422 -99 454 -124 b 264 -207 454 -207 317 -207 b 181 -250 211 -207 181 -207 b 224 -293 181 -282 203 -293 b 550 -151 356 -293 550 -293 b 413 -17 550 -97 511 -36 l 411 0 l 485 0 b 540 42 506 0 540 0 b 485 85 540 85 507 85 l 413 85 l 413 764 l 596 764 l 596 690 b 643 633 596 664 596 633 b 692 690 692 633 692 663 z "},"ţ":{"ha":729,"x_min":0,"x_max":0,"o":"m 624 175 b 575 229 624 200 624 229 b 528 176 529 229 528 200 b 415 76 526 90 447 76 b 308 183 308 76 308 149 l 308 514 l 536 514 b 592 556 557 514 592 514 b 536 599 592 599 558 599 l 308 599 l 308 713 b 261 769 308 739 308 769 b 213 713 213 769 213 740 l 213 599 l 92 599 b 35 556 69 599 35 599 b 90 514 35 514 69 514 l 213 514 l 213 175 b 363 -4 213 63 281 8 l 363 -37 b 407 -96 363 -65 363 -93 b 500 -151 468 -99 500 -124 b 310 -207 500 -207 363 -207 b 226 -250 257 -207 226 -207 b 269 -293 226 -282 249 -293 b 596 -151 401 -293 596 -293 b 458 -17 596 -97 557 -36 l 458 -4 b 624 175 544 13 624 71 z "},"Ť":{"ha":729,"x_min":0,"x_max":0,"o":"m 692 690 l 692 792 b 636 849 692 835 683 849 l 93 849 b 36 792 47 849 36 838 l 36 690 b 83 633 36 664 36 633 b 132 690 132 633 132 663 l 132 764 l 317 764 l 317 85 l 244 85 b 189 43 224 85 189 85 b 244 0 189 0 222 0 l 485 0 b 540 42 506 0 540 0 b 485 85 540 85 507 85 l 413 85 l 413 764 l 596 764 l 596 690 b 643 633 596 664 596 633 b 692 690 692 633 692 663 z m 542 983 b 517 1061 592 1001 567 1076 l 365 1015 l 214 1061 b 188 983 164 1076 139 1001 l 351 924 b 378 924 360 921 369 921 z "},"ť":{"ha":729,"x_min":0,"x_max":0,"o":"m 624 175 b 575 229 624 200 624 229 b 528 176 529 229 528 200 b 415 76 526 90 447 76 b 308 183 308 76 308 149 l 308 514 l 536 514 b 592 556 557 514 592 514 b 536 599 592 599 558 599 l 308 599 l 308 713 b 261 769 308 739 308 769 b 213 713 213 769 213 740 l 213 599 l 92 599 b 35 556 69 599 35 599 b 90 514 35 514 69 514 l 213 514 l 213 175 b 408 -8 213 42 307 -8 b 624 175 511 -8 624 51 z m 536 822 b 450 926 536 886 496 926 b 383 863 408 926 383 896 b 449 796 383 822 414 796 b 469 800 454 796 463 797 b 392 714 454 735 404 718 b 363 685 382 711 363 706 b 396 651 363 669 379 651 b 536 822 429 651 536 708 z "},"Ũ":{"ha":729,"x_min":0,"x_max":0,"o":"m 722 807 b 665 849 722 849 686 849 l 486 849 b 429 807 465 849 429 849 b 486 764 429 764 465 764 l 528 764 l 528 290 b 364 69 528 142 436 69 b 200 290 290 69 200 142 l 200 764 l 242 764 b 299 807 263 764 299 764 b 242 849 299 849 263 849 l 63 849 b 6 807 42 849 6 849 b 63 764 6 764 42 764 l 104 764 l 104 283 b 364 -15 104 113 225 -15 b 624 283 503 -15 624 113 l 624 764 l 665 764 b 722 807 688 764 722 764 z m 608 1043 b 565 1088 608 1065 588 1088 b 532 1072 550 1088 542 1081 b 435 1011 490 1033 454 1011 b 392 1040 421 1011 410 1024 b 299 1088 374 1058 346 1088 b 190 1042 261 1088 222 1065 b 122 965 163 1021 122 990 b 165 921 122 943 143 921 b 199 936 181 921 189 928 b 296 997 240 975 276 997 b 339 968 310 997 321 985 b 432 921 357 950 385 921 b 540 967 469 921 508 943 b 608 1043 568 988 608 1018 z "},"ũ":{"ha":729,"x_min":0,"x_max":0,"o":"m 711 43 b 656 85 711 85 675 85 l 593 85 l 593 542 b 538 599 593 585 585 599 l 436 599 b 379 556 414 599 379 599 b 435 514 379 514 415 514 l 497 514 l 497 218 b 340 76 497 93 385 76 b 231 167 231 76 231 122 l 231 542 b 175 599 231 585 222 599 l 74 599 b 17 556 51 599 17 599 b 72 514 17 514 53 514 l 135 514 l 135 158 b 332 -8 135 25 231 -8 b 497 44 389 -8 446 6 b 553 0 499 0 528 0 l 654 0 b 711 43 676 0 711 0 z m 608 810 b 565 854 608 832 588 854 b 532 839 550 854 542 847 b 435 778 490 800 454 778 b 392 807 421 778 410 790 b 299 854 374 825 346 854 b 190 808 261 854 222 832 b 122 732 163 788 122 757 b 165 688 122 710 143 688 b 199 703 181 688 189 694 b 296 764 240 742 276 764 b 339 735 310 764 321 751 b 432 688 357 717 385 688 b 540 733 469 688 508 710 b 608 810 568 754 608 785 z "},"Ū":{"ha":729,"x_min":0,"x_max":0,"o":"m 722 807 b 665 849 722 849 686 849 l 486 849 b 429 807 465 849 429 849 b 486 764 429 764 465 764 l 528 764 l 528 290 b 364 69 528 142 436 69 b 200 290 290 69 200 142 l 200 764 l 242 764 b 299 807 263 764 299 764 b 242 849 299 849 263 849 l 63 849 b 6 807 42 849 6 849 b 63 764 6 764 42 764 l 104 764 l 104 283 b 364 -15 104 113 225 -15 b 624 283 503 -15 624 113 l 624 764 l 665 764 b 722 807 688 764 722 764 z m 628 992 b 572 1036 628 1036 596 1036 l 158 1036 b 103 993 136 1036 103 1036 b 160 949 103 949 136 949 l 572 949 b 628 992 594 949 628 949 z "},"ū":{"ha":729,"x_min":0,"x_max":0,"o":"m 711 43 b 656 85 711 85 675 85 l 593 85 l 593 542 b 538 599 593 585 585 599 l 436 599 b 379 556 414 599 379 599 b 435 514 379 514 415 514 l 497 514 l 497 218 b 340 76 497 93 385 76 b 231 167 231 76 231 122 l 231 542 b 175 599 231 585 222 599 l 74 599 b 17 556 51 599 17 599 b 72 514 17 514 53 514 l 135 514 l 135 158 b 332 -8 135 25 231 -8 b 497 44 389 -8 446 6 b 553 0 499 0 528 0 l 654 0 b 711 43 676 0 711 0 z m 628 771 b 572 815 628 815 596 815 l 158 815 b 103 772 136 815 103 815 b 160 728 103 728 136 728 l 572 728 b 628 771 594 728 628 728 z "},"Ŭ":{"ha":729,"x_min":0,"x_max":0,"o":"m 722 807 b 665 849 722 849 686 849 l 486 849 b 429 807 465 849 429 849 b 486 764 429 764 465 764 l 528 764 l 528 290 b 364 69 528 142 436 69 b 200 290 290 69 200 142 l 200 764 l 242 764 b 299 807 263 764 299 764 b 242 849 299 849 263 849 l 63 849 b 6 807 42 849 6 849 b 63 764 6 764 42 764 l 104 764 l 104 283 b 364 -15 104 113 225 -15 b 624 283 503 -15 624 113 l 624 764 l 665 764 b 722 807 688 764 722 764 z m 610 1049 b 567 1092 610 1075 594 1092 b 525 1051 533 1092 528 1068 b 365 1024 518 1024 424 1024 b 206 1051 306 1024 213 1024 b 164 1092 203 1068 197 1092 b 121 1049 138 1092 121 1075 b 365 935 121 935 274 935 b 610 1049 457 935 610 935 z "},"ŭ":{"ha":729,"x_min":0,"x_max":0,"o":"m 711 43 b 656 85 711 85 675 85 l 593 85 l 593 542 b 538 599 593 585 585 599 l 436 599 b 379 556 414 599 379 599 b 435 514 379 514 415 514 l 497 514 l 497 218 b 340 76 497 93 385 76 b 231 167 231 76 231 122 l 231 542 b 175 599 231 585 222 599 l 74 599 b 17 556 51 599 17 599 b 72 514 17 514 53 514 l 135 514 l 135 158 b 332 -8 135 25 231 -8 b 497 44 389 -8 446 6 b 553 0 499 0 528 0 l 654 0 b 711 43 676 0 711 0 z m 610 807 b 567 850 610 833 594 850 b 525 810 533 850 528 826 b 365 782 518 782 424 782 b 206 810 306 782 213 782 b 164 850 203 826 197 850 b 121 807 138 850 121 833 b 365 693 121 693 274 693 b 610 807 457 693 610 693 z "},"Ů":{"ha":729,"x_min":0,"x_max":0,"o":"m 722 807 b 665 849 722 849 686 849 l 486 849 b 429 807 465 849 429 849 b 486 764 429 764 465 764 l 528 764 l 528 290 b 364 69 528 142 436 69 b 200 290 290 69 200 142 l 200 764 l 242 764 b 299 807 263 764 299 764 b 242 849 299 849 263 849 l 63 849 b 6 807 42 849 6 849 b 63 764 6 764 42 764 l 104 764 l 104 283 b 364 -15 104 113 225 -15 b 624 283 503 -15 624 113 l 624 764 l 665 764 b 722 807 688 764 722 764 z m 431 965 b 365 918 431 939 397 918 b 300 965 333 918 300 939 b 365 1013 300 992 333 1013 b 431 965 397 1013 431 992 z m 500 965 b 365 1065 500 1017 443 1065 b 231 965 288 1065 231 1017 b 365 865 231 914 288 865 b 500 965 443 865 500 914 z "},"ů":{"ha":729,"x_min":0,"x_max":0,"o":"m 711 43 b 656 85 711 85 675 85 l 593 85 l 593 542 b 538 599 593 585 585 599 l 436 599 b 379 556 414 599 379 599 b 435 514 379 514 415 514 l 497 514 l 497 218 b 340 76 497 93 385 76 b 231 167 231 76 231 122 l 231 542 b 175 599 231 585 222 599 l 74 599 b 17 556 51 599 17 599 b 72 514 17 514 53 514 l 135 514 l 135 158 b 332 -8 135 25 231 -8 b 497 44 389 -8 446 6 b 553 0 499 0 528 0 l 654 0 b 711 43 676 0 711 0 z m 431 783 b 365 736 431 757 397 736 b 300 783 333 736 300 757 b 365 831 300 810 333 831 b 431 783 397 831 431 810 z m 500 783 b 365 883 500 835 443 883 b 231 783 288 883 231 835 b 365 683 231 732 288 683 b 500 783 443 683 500 732 z "},"Ű":{"ha":729,"x_min":0,"x_max":0,"o":"m 722 807 b 665 849 722 849 686 849 l 486 849 b 429 807 465 849 429 849 b 486 764 429 764 465 764 l 528 764 l 528 290 b 364 69 528 142 436 69 b 200 290 290 69 200 142 l 200 764 l 242 764 b 299 807 263 764 299 764 b 242 849 299 849 263 849 l 63 849 b 6 807 42 849 6 849 b 63 764 6 764 42 764 l 104 764 l 104 283 b 364 -15 104 113 225 -15 b 624 283 503 -15 624 113 l 624 764 l 665 764 b 722 807 688 764 722 764 z m 321 1113 b 251 1117 303 1133 272 1135 l 144 1019 b 140 951 125 1001 122 971 b 210 947 158 931 189 929 l 317 1044 b 321 1113 336 1063 339 1093 z m 590 1113 b 521 1117 572 1133 542 1135 l 414 1019 b 410 951 394 1001 392 971 b 479 947 428 931 458 929 l 586 1044 b 590 1113 606 1063 608 1093 z "},"ű":{"ha":729,"x_min":0,"x_max":0,"o":"m 711 43 b 656 85 711 85 675 85 l 593 85 l 593 542 b 538 599 593 585 585 599 l 436 599 b 379 556 414 599 379 599 b 435 514 379 514 415 514 l 497 514 l 497 218 b 340 76 497 93 385 76 b 231 167 231 76 231 122 l 231 542 b 175 599 231 585 222 599 l 74 599 b 17 556 51 599 17 599 b 72 514 17 514 53 514 l 135 514 l 135 158 b 332 -8 135 25 231 -8 b 497 44 389 -8 446 6 b 553 0 499 0 528 0 l 654 0 b 711 43 676 0 711 0 z m 321 851 b 251 856 303 872 272 874 l 144 758 b 140 690 125 740 122 710 b 210 686 158 669 189 668 l 317 783 b 321 851 336 801 339 832 z m 590 851 b 521 856 572 872 542 874 l 414 758 b 410 690 394 740 392 710 b 479 686 428 669 458 668 l 586 783 b 590 851 606 801 608 832 z "},"Ų":{"ha":729,"x_min":0,"x_max":0,"o":"m 722 807 b 665 849 722 849 686 849 l 486 849 b 429 807 465 849 429 849 b 486 764 429 764 465 764 l 528 764 l 528 290 b 364 69 528 142 436 69 b 200 290 290 69 200 142 l 200 764 l 242 764 b 299 807 263 764 299 764 b 242 849 299 849 263 849 l 63 849 b 6 807 42 849 6 849 b 63 764 6 764 42 764 l 104 764 l 104 283 b 329 -12 104 126 206 7 b 257 -150 289 -49 257 -99 b 394 -282 257 -210 307 -282 b 533 -200 447 -282 500 -246 b 526 -149 543 -187 538 -158 b 475 -156 514 -142 483 -147 b 400 -207 460 -178 428 -207 b 339 -153 375 -207 339 -186 b 413 -10 339 -94 367 -42 b 624 283 529 15 624 133 l 624 764 l 665 764 b 722 807 688 764 722 764 z "},"ų":{"ha":729,"x_min":0,"x_max":0,"o":"m 733 -200 b 726 -149 743 -187 738 -158 b 675 -156 714 -142 683 -147 b 600 -207 660 -178 628 -207 b 539 -153 575 -207 539 -186 b 629 0 539 -87 575 -31 l 654 0 b 711 43 676 0 711 0 b 656 85 711 85 675 85 l 593 85 l 593 542 b 538 599 593 585 585 599 l 436 599 b 379 556 414 599 379 599 b 435 514 379 514 415 514 l 497 514 l 497 218 b 340 76 497 93 385 76 b 231 167 231 76 231 122 l 231 542 b 175 599 231 585 222 599 l 74 599 b 17 556 51 599 17 599 b 72 514 17 514 53 514 l 135 514 l 135 158 b 332 -8 135 25 231 -8 b 497 44 389 -8 446 6 b 546 0 499 4 522 0 b 457 -150 499 -36 457 -92 b 594 -282 457 -210 507 -282 b 733 -200 647 -282 700 -246 z "},"Ŵ":{"ha":729,"x_min":0,"x_max":0,"o":"m 713 806 b 656 849 713 849 676 849 l 546 849 b 490 806 524 849 490 849 b 546 764 490 764 525 764 l 581 764 l 519 301 b 497 106 508 217 499 144 l 496 106 b 421 478 488 194 422 469 b 364 510 408 510 376 510 b 308 479 350 510 322 510 b 232 106 304 469 239 192 l 231 106 b 219 214 231 113 229 139 l 147 764 l 182 764 b 238 806 203 764 238 764 b 182 849 238 849 204 849 l 72 849 b 15 806 51 849 15 849 b 67 764 15 764 54 764 l 68 764 l 168 38 b 225 -11 175 -11 208 -11 b 279 17 238 -11 265 -11 b 364 407 283 26 358 351 l 365 407 b 447 24 371 344 446 26 b 503 -11 457 -11 493 -11 b 560 38 519 -11 553 -11 l 660 764 b 713 806 675 764 713 764 z m 543 1001 l 379 1061 b 353 1061 371 1064 361 1064 l 189 1001 b 214 924 139 983 164 908 l 365 969 l 517 924 b 543 1001 567 908 592 983 z "},"ŵ":{"ha":729,"x_min":0,"x_max":0,"o":"m 706 557 b 647 599 706 599 672 599 l 488 599 b 429 557 463 599 429 599 b 488 514 429 514 461 514 l 556 514 l 486 100 l 485 100 b 444 257 479 136 461 200 b 367 360 419 344 415 360 b 311 329 353 360 326 360 b 246 100 307 319 251 128 l 244 100 l 172 514 l 240 514 b 299 556 265 514 299 514 b 240 599 299 599 267 599 l 81 599 b 22 557 56 599 22 599 b 93 514 22 514 51 514 l 176 47 b 242 -6 182 15 186 -6 b 326 92 297 -6 301 7 b 367 264 361 214 363 233 l 368 264 b 432 18 375 192 426 29 b 490 -6 449 -6 474 -6 b 551 47 542 -6 546 17 l 635 514 b 706 557 676 514 706 514 z m 551 753 l 385 858 b 343 858 372 867 356 867 l 179 754 b 222 685 133 725 176 657 l 365 771 l 508 685 b 551 753 554 657 597 724 z "},"Ŷ":{"ha":729,"x_min":0,"x_max":0,"o":"m 701 806 b 646 849 701 849 668 849 l 501 849 b 446 807 481 849 446 849 b 510 764 446 764 476 764 l 364 436 b 218 764 344 507 232 735 b 282 807 251 764 282 764 b 226 849 282 849 247 849 l 82 849 b 26 807 61 849 26 849 b 82 764 26 764 60 764 l 111 764 l 317 339 l 317 85 l 282 85 b 226 43 261 85 226 85 b 282 0 226 0 260 0 l 447 0 b 503 42 468 0 503 0 b 447 85 503 85 469 85 l 413 85 l 413 339 l 617 764 l 646 764 b 701 806 667 764 701 764 z m 543 1001 l 379 1061 b 353 1061 371 1064 361 1064 l 189 1001 b 214 924 139 983 164 908 l 365 969 l 517 924 b 543 1001 567 908 592 983 z "},"ŷ":{"ha":729,"x_min":0,"x_max":0,"o":"m 694 556 b 639 599 694 599 661 599 l 476 599 b 421 557 456 599 421 599 b 476 514 421 514 454 514 l 515 514 l 415 218 b 379 99 397 167 389 142 l 378 99 b 349 181 371 125 358 154 l 219 514 l 254 514 b 310 556 275 514 310 514 b 254 599 310 599 276 599 l 92 599 b 36 556 69 599 36 599 b 92 514 36 514 71 514 l 135 514 l 332 18 b 338 0 338 4 338 0 b 285 -151 338 0 303 -117 b 174 -232 244 -228 194 -231 b 181 -201 174 -232 181 -219 b 121 -142 181 -167 156 -142 b 60 -203 83 -142 60 -167 b 175 -317 60 -261 107 -317 b 382 -118 314 -317 376 -133 l 597 514 l 639 514 b 694 556 660 514 694 514 z m 551 753 l 385 858 b 343 858 372 867 356 867 l 179 754 b 222 685 133 725 176 657 l 365 771 l 508 685 b 551 753 554 657 597 724 z "},"Ÿ":{"ha":729,"x_min":0,"x_max":0,"o":"m 701 806 b 646 849 701 849 668 849 l 501 849 b 446 807 481 849 446 849 b 510 764 446 764 476 764 l 364 436 b 218 764 344 507 232 735 b 282 807 251 764 282 764 b 226 849 282 849 247 849 l 82 849 b 26 807 61 849 26 849 b 82 764 26 764 60 764 l 111 764 l 317 339 l 317 85 l 282 85 b 226 43 261 85 226 85 b 282 0 226 0 260 0 l 447 0 b 503 42 468 0 503 0 b 447 85 503 85 469 85 l 413 85 l 413 339 l 617 764 l 646 764 b 701 806 667 764 701 764 z m 292 983 b 229 1046 292 1019 264 1046 b 167 983 194 1046 167 1019 b 229 921 167 949 194 921 b 292 983 264 921 292 949 z m 563 983 b 500 1046 563 1019 535 1046 b 438 983 465 1046 438 1019 b 500 921 438 949 465 921 b 563 983 535 921 563 949 z "},"Ź":{"ha":729,"x_min":0,"x_max":0,"o":"m 668 57 l 668 185 b 621 242 668 211 668 242 b 572 185 572 242 572 213 l 572 85 l 190 85 l 647 758 b 661 801 661 779 661 788 b 604 849 661 849 631 849 l 140 849 b 83 792 94 849 83 838 l 83 690 b 131 633 83 664 83 633 b 179 690 179 633 179 663 l 179 764 l 538 764 l 81 90 b 67 47 67 69 67 61 b 124 0 67 0 97 0 l 613 0 b 668 57 658 0 668 13 z m 513 1072 b 464 1121 513 1100 492 1121 b 438 1114 464 1121 453 1121 l 253 1031 b 218 990 233 1022 218 1015 b 264 935 218 979 228 935 b 289 942 274 935 281 938 l 474 1024 b 513 1072 507 1039 513 1057 z "},"ź":{"ha":729,"x_min":0,"x_max":0,"o":"m 660 57 l 660 138 b 613 194 660 164 660 194 b 564 138 564 194 564 165 l 564 85 l 190 85 l 624 496 b 654 551 653 524 654 528 b 597 599 654 599 624 599 l 125 599 b 68 542 79 599 68 588 l 68 478 b 115 421 68 451 68 421 b 164 478 164 421 164 450 l 164 514 l 510 514 l 76 103 b 46 47 47 75 46 71 b 103 0 46 0 76 0 l 629 0 b 660 57 660 8 660 36 z m 513 815 b 464 864 513 843 492 864 b 438 857 464 864 453 864 l 253 774 b 218 733 233 765 218 758 b 264 678 218 722 228 678 b 289 685 274 678 281 681 l 474 767 b 513 815 507 782 513 800 z "},"Ż":{"ha":729,"x_min":0,"x_max":0,"o":"m 668 57 l 668 185 b 621 242 668 211 668 242 b 572 185 572 242 572 213 l 572 85 l 190 85 l 647 758 b 661 801 661 779 661 788 b 604 849 661 849 631 849 l 140 849 b 83 792 94 849 83 838 l 83 690 b 131 633 83 664 83 633 b 179 690 179 633 179 663 l 179 764 l 538 764 l 81 90 b 67 47 67 69 67 61 b 124 0 67 0 97 0 l 613 0 b 668 57 658 0 668 13 z m 435 1006 b 365 1075 435 1044 404 1075 b 296 1006 326 1075 296 1044 b 365 936 296 967 326 936 b 435 1006 404 936 435 967 z "},"ż":{"ha":729,"x_min":0,"x_max":0,"o":"m 660 57 l 660 138 b 613 194 660 164 660 194 b 564 138 564 194 564 165 l 564 85 l 190 85 l 624 496 b 654 551 653 524 654 528 b 597 599 654 599 624 599 l 125 599 b 68 542 79 599 68 588 l 68 478 b 115 421 68 451 68 421 b 164 478 164 421 164 450 l 164 514 l 510 514 l 76 103 b 46 47 47 75 46 71 b 103 0 46 0 76 0 l 629 0 b 660 57 660 8 660 36 z m 435 771 b 365 840 435 810 404 840 b 296 771 326 840 296 810 b 365 701 296 732 326 701 b 435 771 404 701 435 732 z "},"Ž":{"ha":729,"x_min":0,"x_max":0,"o":"m 668 57 l 668 185 b 621 242 668 211 668 242 b 572 185 572 242 572 213 l 572 85 l 190 85 l 647 758 b 661 801 661 779 661 788 b 604 849 661 849 631 849 l 140 849 b 83 792 94 849 83 838 l 83 690 b 131 633 83 664 83 633 b 179 690 179 633 179 663 l 179 764 l 538 764 l 81 90 b 67 47 67 69 67 61 b 124 0 67 0 97 0 l 613 0 b 668 57 658 0 668 13 z m 542 983 b 517 1061 592 1001 567 1076 l 365 1015 l 214 1061 b 188 983 164 1076 139 1001 l 351 924 b 378 924 360 921 369 921 z "},"ž":{"ha":729,"x_min":0,"x_max":0,"o":"m 660 57 l 660 138 b 613 194 660 164 660 194 b 564 138 564 194 564 165 l 564 85 l 190 85 l 624 496 b 654 551 653 524 654 528 b 597 599 654 599 624 599 l 125 599 b 68 542 79 599 68 588 l 68 478 b 115 421 68 451 68 421 b 164 478 164 421 164 450 l 164 514 l 510 514 l 76 103 b 46 47 47 75 46 71 b 103 0 46 0 76 0 l 629 0 b 660 57 660 8 660 36 z m 551 788 b 508 857 597 817 554 885 l 365 771 l 222 857 b 179 789 176 885 133 818 l 346 683 b 388 683 358 675 375 675 z "},"ſ":{"ha":729,"x_min":0,"x_max":0,"o":"m 607 774 b 474 857 607 857 496 857 b 256 672 363 857 256 793 l 256 599 l 117 599 b 60 556 94 599 60 599 b 115 514 60 514 94 514 l 256 514 l 256 85 l 115 85 b 58 43 94 85 58 85 b 115 0 58 0 94 0 l 492 0 b 549 42 513 0 549 0 b 492 85 549 85 513 85 l 351 85 l 351 664 b 486 772 351 772 444 772 b 547 713 486 767 499 713 b 607 774 575 713 607 735 z "},"Ǝ":{"ha":729,"x_min":0,"x_max":0,"o":"m 697 42 b 640 85 697 85 663 85 l 599 85 l 599 764 l 640 764 b 697 807 661 764 697 764 b 640 849 697 849 661 849 l 122 849 b 67 792 75 849 67 835 l 67 690 b 115 633 67 663 67 633 b 163 690 163 633 163 664 l 163 764 l 503 764 l 503 482 l 321 482 b 272 561 321 539 321 561 b 225 504 225 561 225 531 l 225 375 b 272 318 225 349 225 318 b 321 397 321 318 321 340 l 503 397 l 503 85 l 132 85 l 132 181 b 83 238 132 208 132 238 b 36 181 36 238 36 207 l 36 57 b 92 0 36 13 46 0 l 640 0 b 697 42 661 0 697 0 z "},"ƒ":{"ha":729,"x_min":0,"x_max":0,"o":"m 607 774 b 474 857 607 857 496 857 b 256 672 363 857 256 793 l 256 599 l 117 599 b 60 556 94 599 60 599 b 115 514 60 514 94 514 l 256 514 l 256 85 l 115 85 b 58 43 94 85 58 85 b 115 0 58 0 94 0 l 492 0 b 549 42 513 0 549 0 b 492 85 549 85 513 85 l 351 85 l 351 514 l 521 514 b 576 556 542 514 576 514 b 521 599 576 599 543 599 l 351 599 l 351 664 b 486 772 351 772 444 772 b 547 713 486 767 499 713 b 607 774 575 713 607 735 z "},"Ơ":{"ha":729,"x_min":0,"x_max":0,"o":"m 688 893 b 618 988 688 935 671 986 b 549 918 576 986 549 953 b 593 853 549 889 565 863 b 564 832 585 840 575 833 b 363 864 511 864 433 864 b 124 794 272 864 168 864 b 78 424 78 724 78 551 b 124 54 78 297 78 125 b 363 -15 168 -15 272 -15 b 603 54 454 -15 557 -15 b 649 424 649 125 649 297 b 618 761 649 535 649 679 b 688 893 663 786 688 839 z m 551 442 b 522 129 551 335 551 188 b 363 69 494 75 425 69 b 204 129 300 69 232 75 b 174 442 174 188 174 335 b 204 725 174 539 174 672 b 363 779 233 778 301 779 b 522 725 425 779 493 778 b 551 442 551 672 551 539 z "},"ơ":{"ha":729,"x_min":0,"x_max":0,"o":"m 647 299 b 571 510 647 376 621 451 b 642 643 615 533 642 588 b 572 736 642 685 626 736 b 503 667 531 735 503 703 b 547 603 503 639 519 613 b 515 581 539 589 528 581 b 494 574 508 581 500 578 b 363 610 454 597 410 610 b 163 518 286 610 214 575 b 79 299 107 458 79 381 b 163 82 79 218 108 140 b 363 -8 214 26 286 -8 b 564 82 440 -8 513 26 b 647 299 618 140 647 218 z m 551 311 b 496 146 551 251 533 192 b 363 78 463 104 415 78 b 231 146 311 78 264 104 b 175 311 193 192 175 251 b 231 463 175 367 194 421 b 363 525 264 500 313 525 b 496 463 414 525 463 500 b 551 311 532 421 551 367 z "},"Ư":{"ha":729,"x_min":0,"x_max":0,"o":"m 729 894 b 660 988 729 936 713 986 b 590 918 618 986 590 953 b 628 856 590 892 604 868 b 606 842 621 850 614 846 b 585 849 600 846 592 849 l 468 849 b 429 810 446 849 429 831 l 429 803 b 468 764 429 781 446 764 l 526 764 l 526 283 b 476 129 526 225 510 171 b 363 69 446 92 406 69 b 250 129 321 69 281 92 b 200 283 217 171 200 225 l 200 764 l 258 764 b 297 803 281 764 297 781 l 297 810 b 258 849 297 831 281 849 l 44 849 b 6 810 22 849 6 831 l 6 803 b 44 764 6 781 22 764 l 103 764 l 103 283 b 176 74 103 206 128 132 b 363 -15 224 19 292 -15 b 549 74 435 -15 501 19 b 624 283 599 132 624 206 l 624 758 b 729 894 683 776 729 829 z "},"ư":{"ha":729,"x_min":0,"x_max":0,"o":"m 711 39 l 711 46 b 671 85 711 68 693 85 l 593 85 l 593 507 b 707 644 657 525 707 575 b 638 736 707 685 690 736 b 568 667 596 736 568 703 b 604 606 568 642 582 618 b 576 590 597 600 588 594 b 554 597 571 594 563 597 l 418 597 b 379 558 396 597 379 581 l 379 551 b 418 513 379 531 396 513 l 496 513 l 496 203 b 344 78 496 133 429 78 b 251 97 300 78 272 82 b 229 153 238 107 229 126 l 229 558 b 190 597 229 581 213 597 l 54 597 b 15 558 33 597 15 581 l 15 551 b 54 513 15 531 33 513 l 133 513 l 133 153 b 189 29 133 104 150 58 b 338 -8 231 -1 279 -8 b 496 44 397 -8 453 11 l 496 39 b 536 0 496 18 514 0 l 671 0 b 711 39 693 0 711 18 z "},"ǝ":{"ha":729,"x_min":0,"x_max":0,"o":"m 644 301 b 325 611 644 471 504 611 b 76 451 142 611 76 486 b 125 413 76 413 117 413 b 171 443 150 413 161 417 b 315 526 201 514 276 526 b 546 338 419 526 524 457 l 132 338 b 76 286 103 338 76 338 b 346 -8 76 128 165 -8 b 644 301 511 -8 644 131 z m 544 254 b 346 76 525 153 443 76 b 175 254 274 76 188 111 z "},"Ǧ":{"ha":729,"x_min":0,"x_max":0,"o":"m 689 333 b 632 375 689 375 653 375 l 467 375 b 411 333 446 375 411 375 b 467 290 411 290 444 290 l 525 290 b 367 69 508 135 440 69 b 149 424 254 69 149 219 b 368 779 149 636 260 779 b 528 597 417 779 504 747 b 575 557 531 574 539 557 b 624 614 624 557 624 586 l 624 807 b 582 864 624 829 624 864 b 525 801 553 864 546 849 b 363 864 476 843 421 864 b 53 425 196 864 53 676 b 363 -15 53 169 197 -15 b 528 58 442 -15 500 26 b 576 0 528 28 528 0 b 624 57 624 0 624 31 l 624 290 b 689 333 657 290 689 290 z m 542 983 b 517 1061 592 1001 567 1076 l 365 1015 l 214 1061 b 188 983 164 1076 139 1001 l 351 924 b 378 924 360 921 369 921 z "},"ǧ":{"ha":729,"x_min":0,"x_max":0,"o":"m 707 539 b 606 614 707 571 681 614 b 458 565 590 614 522 613 b 324 607 436 581 388 607 b 94 385 193 607 94 503 b 139 253 94 325 118 279 b 111 158 124 231 111 200 b 143 58 111 110 131 75 b 40 -114 40 -4 40 -99 b 364 -318 40 -233 186 -318 b 688 -114 542 -318 688 -232 b 592 44 688 -62 663 7 b 390 85 574 54 515 85 l 293 85 b 253 88 282 85 264 85 b 207 107 232 88 224 88 b 190 157 192 126 190 157 b 199 196 190 163 193 182 b 324 161 203 193 256 161 b 553 385 451 161 553 261 b 517 506 553 426 540 467 b 597 529 546 522 579 528 b 651 482 606 492 638 482 b 707 539 675 482 707 499 z m 457 385 b 324 244 457 306 396 244 b 190 383 249 244 190 310 b 324 524 190 463 251 524 b 457 385 399 524 457 458 z m 607 -114 b 364 -235 607 -175 503 -235 b 121 -114 225 -235 121 -175 b 178 -17 121 -89 133 -44 b 326 6 213 6 225 6 b 607 -114 450 6 607 6 z m 501 788 b 458 857 547 817 504 885 l 315 771 l 172 857 b 129 789 126 885 83 818 l 296 683 b 338 683 308 675 325 675 z "},"Ǫ":{"ha":729,"x_min":0,"x_max":0,"o":"m 650 424 b 364 864 650 825 621 864 b 78 424 107 864 78 826 b 315 -15 78 49 103 -8 b 246 -150 276 -50 246 -100 b 383 -282 246 -210 296 -282 b 522 -200 436 -282 489 -246 b 515 -149 532 -187 526 -158 b 464 -156 503 -142 472 -147 b 389 -207 449 -178 417 -207 b 328 -153 364 -207 328 -186 b 394 -15 328 -97 354 -47 b 650 424 622 -11 650 39 z m 554 436 b 539 176 554 350 554 251 b 364 69 524 99 488 69 b 190 168 242 69 207 99 b 174 436 174 239 174 360 b 189 681 174 522 174 617 b 364 779 207 763 250 779 b 538 690 468 779 517 767 b 554 436 554 625 554 521 z "},"ǫ":{"ha":729,"x_min":0,"x_max":0,"o":"m 649 300 b 364 611 649 474 519 611 b 79 300 208 611 79 474 b 321 -4 79 140 188 18 b 239 -150 276 -40 239 -94 b 376 -282 239 -210 289 -282 b 515 -200 429 -282 482 -246 b 508 -149 525 -187 519 -158 b 457 -156 496 -142 465 -147 b 382 -207 442 -178 410 -207 b 321 -153 357 -207 321 -186 b 401 -6 321 -92 351 -37 b 649 300 538 14 649 139 z m 553 310 b 364 76 553 181 467 76 b 175 310 261 76 175 181 b 364 526 175 436 265 526 b 553 310 464 526 553 436 z "},"Ǵ":{"ha":729,"x_min":0,"x_max":0,"o":"m 689 333 b 632 375 689 375 653 375 l 467 375 b 411 333 446 375 411 375 b 467 290 411 290 444 290 l 525 290 b 367 69 508 135 440 69 b 149 424 254 69 149 219 b 368 779 149 636 260 779 b 528 597 417 779 504 747 b 575 557 531 574 539 557 b 624 614 624 557 624 586 l 624 807 b 582 864 624 829 624 864 b 525 801 553 864 546 849 b 363 864 476 843 421 864 b 53 425 196 864 53 676 b 363 -15 53 169 197 -15 b 528 58 442 -15 500 26 b 576 0 528 28 528 0 b 624 57 624 0 624 31 l 624 290 b 689 333 657 290 689 290 z m 513 1072 b 464 1121 513 1100 492 1121 b 438 1114 464 1121 453 1121 l 253 1031 b 218 990 233 1022 218 1015 b 264 935 218 979 228 935 b 289 942 274 935 281 938 l 474 1024 b 513 1072 507 1039 513 1057 z "},"ǵ":{"ha":729,"x_min":0,"x_max":0,"o":"m 707 539 b 606 614 707 571 681 614 b 458 565 590 614 522 613 b 324 607 436 581 388 607 b 94 385 193 607 94 503 b 139 253 94 325 118 279 b 111 158 124 231 111 200 b 143 58 111 110 131 75 b 40 -114 40 -4 40 -99 b 364 -318 40 -233 186 -318 b 688 -114 542 -318 688 -232 b 592 44 688 -62 663 7 b 390 85 574 54 515 85 l 293 85 b 253 88 282 85 264 85 b 207 107 232 88 224 88 b 190 157 192 126 190 157 b 199 196 190 163 193 182 b 324 161 203 193 256 161 b 553 385 451 161 553 261 b 517 506 553 426 540 467 b 597 529 546 522 579 528 b 651 482 606 492 638 482 b 707 539 675 482 707 499 z m 457 385 b 324 244 457 306 396 244 b 190 383 249 244 190 310 b 324 524 190 463 251 524 b 457 385 399 524 457 458 z m 607 -114 b 364 -235 607 -175 503 -235 b 121 -114 225 -235 121 -175 b 178 -17 121 -89 133 -44 b 326 6 213 6 225 6 b 607 -114 450 6 607 6 z m 463 815 b 414 864 463 843 442 864 b 388 857 414 864 403 864 l 203 774 b 168 733 183 765 168 758 b 214 678 168 722 178 678 b 239 685 224 678 231 681 l 424 767 b 463 815 457 782 463 800 z "},"Ǻ":{"ha":729,"x_min":0,"x_max":0,"o":"m 690 42 b 667 81 690 60 683 74 b 607 85 658 85 628 85 l 439 811 b 364 865 426 864 407 865 b 289 813 324 865 301 865 l 121 85 b 61 82 101 85 69 85 b 38 42 46 74 38 60 b 97 0 38 0 74 0 l 239 0 b 297 42 264 0 297 0 b 219 85 297 85 269 85 l 251 229 l 476 229 l 508 85 b 431 42 458 85 431 85 b 489 0 431 0 464 0 l 631 0 b 690 42 654 0 690 0 z m 456 314 l 272 314 l 364 750 z m 431 965 b 365 918 431 939 397 918 b 300 965 333 918 300 939 b 365 1013 300 992 333 1013 b 431 965 397 1013 431 992 z m 500 965 b 365 1065 500 1017 443 1065 b 231 965 288 1065 231 1017 b 365 865 231 914 288 865 b 500 965 443 865 500 914 z m 513 1231 b 464 1279 513 1258 492 1279 b 438 1272 464 1279 453 1279 l 253 1189 b 218 1149 233 1181 218 1174 b 264 1093 218 1138 228 1093 b 289 1100 274 1093 281 1096 l 474 1182 b 513 1231 507 1197 513 1215 z "},"ǻ":{"ha":729,"x_min":0,"x_max":0,"o":"m 728 43 b 672 85 728 85 693 85 b 589 96 614 85 600 92 l 589 396 b 314 611 589 494 514 611 b 113 510 254 611 113 611 b 175 446 113 468 142 446 b 236 510 196 446 235 458 b 265 525 236 521 238 522 b 315 526 285 526 303 526 b 493 385 421 526 493 483 b 76 178 247 381 76 311 b 306 -8 76 82 164 -8 b 508 44 357 -8 443 1 b 658 0 539 1 606 0 b 728 43 697 0 728 0 z m 493 186 b 439 100 493 154 493 125 b 315 76 389 76 326 76 b 172 178 229 76 172 124 b 493 303 172 246 292 297 z m 431 783 b 365 736 431 757 397 736 b 300 783 333 736 300 757 b 365 831 300 810 333 831 b 431 783 397 831 431 810 z m 500 783 b 365 883 500 835 443 883 b 231 783 288 883 231 835 b 365 683 231 732 288 683 b 500 783 443 683 500 732 z m 513 1049 b 464 1097 513 1076 492 1097 b 438 1090 464 1097 453 1097 l 253 1007 b 218 967 233 999 218 992 b 264 911 218 956 228 911 b 289 918 274 911 281 914 l 474 1000 b 513 1049 507 1015 513 1033 z "},"Ǽ":{"ha":729,"x_min":0,"x_max":0,"o":"m 693 57 l 693 181 b 654 238 693 200 693 238 b 615 181 615 238 615 200 l 615 85 l 444 85 l 444 397 l 604 397 b 660 439 625 397 660 397 b 604 482 660 482 626 482 l 444 482 l 444 764 l 604 764 l 604 690 b 643 633 604 671 604 633 b 682 690 682 633 682 671 l 682 792 b 626 849 682 835 674 849 l 236 849 b 181 807 215 849 181 849 b 236 764 181 764 214 764 l 99 85 b 32 42 63 85 32 85 b 88 0 32 0 67 0 l 186 0 b 242 42 207 0 242 0 b 178 85 242 85 210 85 l 213 254 l 367 254 l 367 85 b 311 43 347 85 311 85 b 368 0 311 0 346 0 l 638 0 b 693 57 683 0 693 13 z m 367 339 l 229 339 l 315 764 l 367 764 z m 513 1072 b 464 1121 513 1100 492 1121 b 438 1114 464 1121 453 1121 l 253 1031 b 218 990 233 1022 218 1015 b 264 935 218 979 228 935 b 289 942 274 935 281 938 l 474 1024 b 513 1072 507 1039 513 1057 z "},"ǽ":{"ha":729,"x_min":0,"x_max":0,"o":"m 700 151 b 661 190 700 172 683 190 b 622 156 631 190 625 164 b 547 76 608 101 578 76 b 406 265 486 76 417 147 l 644 265 b 700 324 694 265 700 281 b 526 611 700 508 626 611 b 378 511 478 611 419 583 b 218 611 344 571 293 611 b 56 510 90 611 56 556 b 118 446 56 468 85 446 b 179 508 129 446 175 450 b 178 521 179 513 178 517 b 214 526 178 526 197 526 b 325 390 282 526 325 478 l 325 344 b 46 164 169 343 46 279 b 204 -8 46 82 104 -8 b 383 88 274 -8 347 26 b 540 -8 393 74 450 -8 b 700 151 658 -8 700 124 z m 621 349 l 406 349 b 526 526 414 438 467 526 b 621 349 568 526 614 482 z m 325 263 b 324 186 324 247 324 226 b 293 106 324 160 324 131 b 213 76 261 79 222 76 b 124 165 156 76 124 124 b 325 263 124 225 215 258 z m 513 815 b 464 864 513 843 492 864 b 438 857 464 864 453 864 l 253 774 b 218 733 233 765 218 758 b 264 678 218 722 228 678 b 289 685 274 678 281 681 l 474 767 b 513 815 507 782 513 800 z "},"Ǿ":{"ha":729,"x_min":0,"x_max":0,"o":"m 650 424 b 544 843 650 708 635 804 b 568 925 568 914 568 925 b 524 967 568 964 524 967 b 482 925 494 967 488 943 l 461 861 b 364 864 425 864 396 864 b 78 424 107 864 78 826 b 85 204 78 361 78 271 b 183 6 96 96 114 36 b 160 -76 160 -65 160 -76 b 204 -118 160 -115 204 -118 b 246 -76 233 -118 240 -94 l 267 -12 b 364 -15 303 -15 332 -15 b 650 424 619 -15 650 22 z m 572 425 b 554 163 572 340 572 229 b 364 69 531 79 474 69 b 310 71 328 69 325 69 b 294 74 303 71 294 74 l 514 750 b 572 425 543 728 572 707 z m 433 775 l 214 99 b 156 424 185 121 156 142 b 174 686 156 508 156 619 b 364 779 197 769 254 779 b 418 778 400 779 403 779 b 433 775 425 778 433 775 z m 494 1072 b 446 1121 494 1100 474 1121 b 419 1114 446 1121 435 1121 l 235 1031 b 200 990 215 1022 200 1015 b 246 935 200 979 210 935 b 271 942 256 935 263 938 l 456 1024 b 494 1072 489 1039 494 1057 z "},"ǿ":{"ha":729,"x_min":0,"x_max":0,"o":"m 668 751 b 624 793 668 779 640 793 b 586 767 601 793 593 779 l 482 586 b 364 611 458 596 419 611 b 63 300 196 611 63 469 b 175 58 63 219 93 129 l 83 -100 b 60 -153 74 -117 60 -142 b 104 -194 60 -181 88 -194 b 142 -168 126 -194 136 -179 l 249 15 b 364 -8 296 -6 339 -8 b 665 300 528 -8 665 128 b 554 542 665 393 622 479 l 658 722 b 668 751 668 739 668 747 z m 588 300 b 364 76 588 175 486 76 b 292 88 326 76 318 79 l 511 469 b 588 300 569 418 588 350 z m 439 514 l 217 131 b 140 300 156 188 140 251 b 364 526 140 425 242 526 b 439 514 403 526 411 524 z m 506 815 b 457 864 506 843 485 864 b 431 857 457 864 446 864 l 246 774 b 211 733 226 765 211 758 b 257 678 211 722 221 678 b 282 685 267 678 274 681 l 467 767 b 506 815 500 782 506 800 z "},"Ȁ":{"ha":729,"x_min":0,"x_max":0,"o":"m 690 42 b 667 81 690 60 683 74 b 607 85 658 85 628 85 l 439 811 b 364 865 426 864 407 865 b 289 813 324 865 301 865 l 121 85 b 61 82 101 85 69 85 b 38 42 46 74 38 60 b 97 0 38 0 74 0 l 239 0 b 297 42 264 0 297 0 b 219 85 297 85 269 85 l 251 229 l 476 229 l 508 85 b 431 42 458 85 431 85 b 489 0 431 0 464 0 l 631 0 b 690 42 654 0 690 0 z m 456 314 l 272 314 l 364 750 z m 549 951 b 544 1019 567 971 564 1001 l 438 1117 b 368 1113 417 1135 386 1133 b 372 1044 350 1093 353 1063 l 479 947 b 549 951 500 929 531 931 z m 279 951 b 275 1019 297 971 294 1001 l 168 1117 b 99 1113 147 1135 117 1133 b 103 1044 81 1093 83 1063 l 210 947 b 279 951 231 929 261 931 z "},"ȁ":{"ha":729,"x_min":0,"x_max":0,"o":"m 728 43 b 672 85 728 85 693 85 b 589 96 614 85 600 92 l 589 396 b 314 611 589 494 514 611 b 113 510 254 611 113 611 b 175 446 113 468 142 446 b 236 510 196 446 235 458 b 265 525 236 521 238 522 b 315 526 285 526 303 526 b 493 385 421 526 493 483 b 76 178 247 381 76 311 b 306 -8 76 82 164 -8 b 508 44 357 -8 443 1 b 658 0 539 1 606 0 b 728 43 697 0 728 0 z m 493 186 b 439 100 493 154 493 125 b 315 76 389 76 326 76 b 172 178 229 76 172 124 b 493 303 172 246 292 297 z m 589 690 b 585 758 607 710 604 740 l 478 856 b 408 851 457 874 426 872 b 413 783 390 832 393 801 l 519 686 b 589 690 540 668 571 669 z m 319 690 b 315 758 338 710 335 740 l 208 856 b 139 851 188 874 157 872 b 143 783 121 832 124 801 l 250 686 b 319 690 271 668 301 669 z "},"Ȅ":{"ha":729,"x_min":0,"x_max":0,"o":"m 697 57 l 697 181 b 650 238 697 207 697 238 b 601 181 601 238 601 208 l 601 85 l 231 85 l 231 397 l 413 397 b 461 318 413 340 413 318 b 508 375 508 318 508 349 l 508 504 b 461 561 508 531 508 561 b 413 482 413 561 413 539 l 231 482 l 231 764 l 571 764 l 571 690 b 618 633 571 664 571 633 b 667 690 667 633 667 663 l 667 792 b 611 849 667 835 658 849 l 93 849 b 36 807 72 849 36 849 b 93 764 36 764 72 764 l 135 764 l 135 85 l 93 85 b 36 42 71 85 36 85 b 93 0 36 0 72 0 l 642 0 b 697 57 688 0 697 13 z m 589 951 b 585 1019 607 971 604 1001 l 478 1117 b 408 1113 457 1135 426 1133 b 413 1044 390 1093 393 1063 l 519 947 b 589 951 540 929 571 931 z m 319 951 b 315 1019 338 971 335 1001 l 208 1117 b 139 1113 188 1135 157 1133 b 143 1044 121 1093 124 1063 l 250 947 b 319 951 271 929 301 931 z "},"ȅ":{"ha":729,"x_min":0,"x_max":0,"o":"m 644 151 b 596 190 644 190 604 190 b 550 160 571 190 560 186 b 406 76 519 89 444 76 b 175 265 301 76 197 146 l 589 265 b 644 317 618 265 644 265 b 375 611 644 475 556 611 b 76 301 210 611 76 472 b 396 -8 76 132 217 -8 b 644 151 579 -8 644 117 z m 546 349 l 176 349 b 375 526 196 450 278 526 b 546 349 447 526 533 492 z m 589 690 b 585 758 607 710 604 740 l 478 856 b 408 851 457 874 426 872 b 413 783 390 832 393 801 l 519 686 b 589 690 540 668 571 669 z m 319 690 b 315 758 338 710 335 740 l 208 856 b 139 851 188 874 157 872 b 143 783 121 832 124 801 l 250 686 b 319 690 271 668 301 669 z "},"Ȉ":{"ha":729,"x_min":0,"x_max":0,"o":"m 619 42 b 563 85 619 85 583 85 l 413 85 l 413 764 l 563 764 b 619 806 583 764 619 764 b 563 849 619 849 583 849 l 167 849 b 110 807 146 849 110 849 b 167 764 110 764 146 764 l 317 764 l 317 85 l 167 85 b 110 43 146 85 110 85 b 167 0 110 0 146 0 l 563 0 b 619 42 583 0 619 0 z m 589 951 b 585 1019 607 971 604 1001 l 478 1117 b 408 1113 457 1135 426 1133 b 413 1044 390 1093 393 1063 l 519 947 b 589 951 540 929 571 931 z m 319 951 b 315 1019 338 971 335 1001 l 208 1117 b 139 1113 188 1135 157 1133 b 143 1044 121 1093 124 1063 l 250 947 b 319 951 271 929 301 931 z "},"ȉ":{"ha":729,"x_min":0,"x_max":0,"o":"m 632 42 b 575 85 632 85 596 85 l 429 85 l 429 542 b 374 599 429 585 421 599 l 176 599 b 119 557 156 599 119 599 b 176 514 119 514 156 514 l 333 514 l 333 85 l 165 85 b 108 42 143 85 108 85 b 165 0 108 0 144 0 l 575 0 b 632 42 596 0 632 0 z m 589 690 b 585 758 607 710 604 740 l 478 856 b 408 851 457 874 426 872 b 413 783 390 832 393 801 l 519 686 b 589 690 540 668 571 669 z m 319 690 b 315 758 338 710 335 740 l 208 856 b 139 851 188 874 157 872 b 143 783 121 832 124 801 l 250 686 b 319 690 271 668 301 669 z "},"Ȍ":{"ha":729,"x_min":0,"x_max":0,"o":"m 650 424 b 364 864 650 825 621 864 b 78 424 107 864 78 826 b 364 -15 78 22 107 -15 b 650 424 619 -15 650 22 z m 554 436 b 539 176 554 350 554 251 b 364 69 524 99 488 69 b 190 168 242 69 207 99 b 174 436 174 239 174 360 b 189 681 174 522 174 617 b 364 779 207 763 250 779 b 538 690 468 779 517 767 b 554 436 554 625 554 521 z m 589 951 b 585 1019 607 971 604 1001 l 478 1117 b 408 1113 457 1135 426 1133 b 413 1044 390 1093 393 1063 l 519 947 b 589 951 540 929 571 931 z m 319 951 b 315 1019 338 971 335 1001 l 208 1117 b 139 1113 188 1135 157 1133 b 143 1044 121 1093 124 1063 l 250 947 b 319 951 271 929 301 931 z "},"ȍ":{"ha":729,"x_min":0,"x_max":0,"o":"m 649 300 b 364 611 649 474 519 611 b 79 300 208 611 79 474 b 364 -8 79 124 211 -8 b 649 300 517 -8 649 125 z m 553 310 b 364 76 553 181 467 76 b 175 310 261 76 175 181 b 364 526 175 436 265 526 b 553 310 464 526 553 436 z m 589 690 b 585 758 607 710 604 740 l 478 856 b 408 851 457 874 426 872 b 413 783 390 832 393 801 l 519 686 b 589 690 540 668 571 669 z m 319 690 b 315 758 338 710 335 740 l 208 856 b 139 851 188 874 157 872 b 143 783 121 832 124 801 l 250 686 b 319 690 271 668 301 669 z "},"Ȑ":{"ha":729,"x_min":0,"x_max":0,"o":"m 725 129 b 676 174 725 174 692 174 b 629 132 663 174 631 174 b 603 69 629 121 626 69 b 564 207 564 69 564 133 b 551 338 564 294 564 306 b 483 422 535 378 503 407 b 601 615 575 474 601 558 b 332 849 601 735 496 849 l 86 849 b 31 806 64 849 31 849 b 86 764 31 764 65 764 l 121 764 l 121 85 l 86 85 b 31 42 64 85 31 85 b 86 0 31 0 65 0 l 251 0 b 307 42 272 0 307 0 b 251 85 307 85 274 85 l 217 85 l 217 382 l 325 382 b 438 343 351 382 393 382 b 468 225 468 314 468 283 b 494 49 468 135 468 93 b 604 -15 518 7 557 -15 b 725 129 692 -15 725 76 z m 506 615 b 317 467 506 547 443 467 l 217 467 l 217 764 l 317 764 b 506 615 444 764 506 682 z m 549 951 b 544 1019 567 971 564 1001 l 438 1117 b 368 1113 417 1135 386 1133 b 372 1044 350 1093 353 1063 l 479 947 b 549 951 500 929 531 931 z m 279 951 b 275 1019 297 971 294 1001 l 168 1117 b 99 1113 147 1135 117 1133 b 103 1044 81 1093 83 1063 l 210 947 b 279 951 231 929 261 931 z "},"ȑ":{"ha":729,"x_min":0,"x_max":0,"o":"m 676 521 b 544 607 676 549 660 607 b 308 494 474 607 385 582 l 308 542 b 253 599 308 585 300 599 l 100 599 b 44 557 79 599 44 599 b 100 514 44 514 78 514 l 213 514 l 213 85 l 100 85 b 44 43 79 85 44 85 b 100 0 44 0 78 0 l 463 0 b 519 42 483 0 519 0 b 463 85 519 85 483 85 l 308 85 l 308 258 b 558 522 308 389 390 522 b 618 461 560 489 583 461 b 676 521 649 461 676 483 z m 589 690 b 585 758 607 710 604 740 l 478 856 b 408 851 457 874 426 872 b 413 783 390 832 393 801 l 519 686 b 589 690 540 668 571 669 z m 319 690 b 315 758 338 710 335 740 l 208 856 b 139 851 188 874 157 872 b 143 783 121 832 124 801 l 250 686 b 319 690 271 668 301 669 z "},"Ȕ":{"ha":729,"x_min":0,"x_max":0,"o":"m 722 807 b 665 849 722 849 686 849 l 486 849 b 429 807 465 849 429 849 b 486 764 429 764 465 764 l 528 764 l 528 290 b 364 69 528 142 436 69 b 200 290 290 69 200 142 l 200 764 l 242 764 b 299 807 263 764 299 764 b 242 849 299 849 263 849 l 63 849 b 6 807 42 849 6 849 b 63 764 6 764 42 764 l 104 764 l 104 283 b 364 -15 104 113 225 -15 b 624 283 503 -15 624 113 l 624 764 l 665 764 b 722 807 688 764 722 764 z m 589 951 b 585 1019 607 971 604 1001 l 478 1117 b 408 1113 457 1135 426 1133 b 413 1044 390 1093 393 1063 l 519 947 b 589 951 540 929 571 931 z m 319 951 b 315 1019 338 971 335 1001 l 208 1117 b 139 1113 188 1135 157 1133 b 143 1044 121 1093 124 1063 l 250 947 b 319 951 271 929 301 931 z "},"ȕ":{"ha":729,"x_min":0,"x_max":0,"o":"m 711 43 b 656 85 711 85 675 85 l 593 85 l 593 542 b 538 599 593 585 585 599 l 436 599 b 379 556 414 599 379 599 b 435 514 379 514 415 514 l 497 514 l 497 218 b 340 76 497 93 385 76 b 231 167 231 76 231 122 l 231 542 b 175 599 231 585 222 599 l 74 599 b 17 556 51 599 17 599 b 72 514 17 514 53 514 l 135 514 l 135 158 b 332 -8 135 25 231 -8 b 497 44 389 -8 446 6 b 553 0 499 0 528 0 l 654 0 b 711 43 676 0 711 0 z m 589 690 b 585 758 607 710 604 740 l 478 856 b 408 851 457 874 426 872 b 413 783 390 832 393 801 l 519 686 b 589 690 540 668 571 669 z m 319 690 b 315 758 338 710 335 740 l 208 856 b 139 851 188 874 157 872 b 143 783 121 832 124 801 l 250 686 b 319 690 271 668 301 669 z "},"Ș":{"ha":729,"x_min":0,"x_max":0,"o":"m 656 231 b 589 396 656 319 606 378 b 386 486 532 451 494 461 l 274 511 b 163 642 215 528 163 576 b 329 779 163 713 231 779 b 522 606 493 779 514 649 b 569 567 526 575 542 567 b 618 624 618 567 618 596 l 618 807 b 576 864 618 829 618 864 b 525 799 543 864 536 840 b 331 864 468 847 393 864 b 72 636 176 864 72 754 b 251 418 72 543 136 451 l 411 381 b 565 224 450 372 565 344 b 396 69 565 151 506 69 b 233 113 357 69 289 75 b 168 233 175 150 169 208 b 121 282 167 257 165 282 b 72 225 72 282 72 253 l 72 42 b 114 -15 72 19 72 -15 b 165 49 144 -15 153 4 b 394 -15 221 7 306 -15 b 656 231 556 -15 656 107 z m 451 -150 b 365 -46 451 -86 411 -46 b 299 -110 324 -46 299 -76 b 364 -176 299 -150 329 -176 b 385 -172 369 -176 378 -175 b 307 -258 369 -237 319 -254 b 278 -287 297 -261 278 -267 b 311 -321 278 -303 294 -321 b 451 -150 344 -321 451 -264 z "},"ș":{"ha":729,"x_min":0,"x_max":0,"o":"m 638 174 b 414 354 638 318 458 347 l 319 371 b 185 447 279 376 185 393 b 361 526 185 483 229 526 b 500 449 476 526 496 485 b 547 401 501 425 504 401 b 596 458 596 401 596 431 l 596 554 b 554 611 596 576 596 611 b 513 582 521 611 515 592 b 364 611 451 611 390 611 b 100 447 132 611 100 497 b 374 276 100 319 246 296 b 553 174 442 265 553 247 b 375 76 553 122 501 76 b 197 200 310 76 232 92 b 149 240 190 225 185 240 b 100 183 100 240 100 211 l 100 49 b 142 -8 100 26 100 -8 b 193 44 154 -8 176 -7 b 374 -8 261 -6 335 -8 b 638 174 593 -8 638 107 z m 451 -150 b 365 -46 451 -86 411 -46 b 299 -110 324 -46 299 -76 b 364 -176 299 -150 329 -176 b 385 -172 369 -176 378 -175 b 307 -258 369 -237 319 -254 b 278 -287 297 -261 278 -267 b 311 -321 278 -303 294 -321 b 451 -150 344 -321 451 -264 z "}}}
